<mxfile host="app.diagrams.net" agent="Mozilla/5.0 (Windows NT 10.0; Win64; x64) AppleWebKit/537.36 (KHTML, like Gecko) Chrome/131.0.0.0 Safari/537.36" version="25.0.3">
  <diagram id="_Zeu2Und_BIN9iEwyCzT" name="Page-1">
    <mxGraphModel dx="4948" dy="2578" grid="1" gridSize="10" guides="1" tooltips="1" connect="1" arrows="1" fold="1" page="1" pageScale="1" pageWidth="1600" pageHeight="900" background="#F2F2F2" math="0" shadow="0">
      <root>
        <mxCell id="0" />
        <mxCell id="1" parent="0" />
        <mxCell id="PEiCkukdCwHBLGiY2Sb7-82" value="" style="rounded=0;whiteSpace=wrap;html=1;strokeWidth=6;fillStyle=cross-hatch;fillColor=none;strokeColor=#FF8FC7;" vertex="1" parent="1">
          <mxGeometry x="-160" y="-50" width="1860" height="1410" as="geometry" />
        </mxCell>
        <mxCell id="PEiCkukdCwHBLGiY2Sb7-70" value="" style="rounded=1;whiteSpace=wrap;html=1;fillColor=#00478F;strokeColor=#1793b9;dashed=1;dashPattern=8 8;strokeWidth=2;opacity=10;fillStyle=auto;gradientColor=none;" vertex="1" parent="1">
          <mxGeometry x="-40" y="-20" width="1700" height="1220" as="geometry" />
        </mxCell>
        <mxCell id="EPMx4ZkjcdX6J0T9C3sz-51" value="MONITORING" style="rounded=0;whiteSpace=wrap;html=1;fillColor=#d5e8d4;strokeColor=#82b366;shadow=0;fontSize=16;verticalAlign=top;" parent="1" vertex="1">
          <mxGeometry x="1779.9999999999998" y="549.0999999999999" width="400" height="370" as="geometry" />
        </mxCell>
        <mxCell id="EPMx4ZkjcdX6J0T9C3sz-57" value="" style="endArrow=classic;startArrow=classic;html=1;rounded=0;curved=1;entryX=0;entryY=0.5;entryDx=0;entryDy=0;exitX=1;exitY=0.5;exitDx=0;exitDy=0;fillColor=#d0cee2;strokeColor=#00CC00;strokeWidth=2;edgeStyle=orthogonalEdgeStyle;startFill=1;shadow=0;" parent="1" source="PEiCkukdCwHBLGiY2Sb7-35" target="EPMx4ZkjcdX6J0T9C3sz-51" edge="1">
          <mxGeometry width="50" height="50" relative="1" as="geometry">
            <mxPoint x="2298.6099999999997" y="446.12" as="sourcePoint" />
            <mxPoint x="2802.11" y="156.12" as="targetPoint" />
          </mxGeometry>
        </mxCell>
        <mxCell id="PEiCkukdCwHBLGiY2Sb7-68" style="edgeStyle=orthogonalEdgeStyle;rounded=0;orthogonalLoop=1;jettySize=auto;html=1;entryX=0.5;entryY=0;entryDx=0;entryDy=0;strokeColor=#00CC00;strokeWidth=2;" edge="1" parent="1" source="PEiCkukdCwHBLGiY2Sb7-34" target="PEiCkukdCwHBLGiY2Sb7-67">
          <mxGeometry relative="1" as="geometry" />
        </mxCell>
        <mxCell id="PEiCkukdCwHBLGiY2Sb7-77" style="edgeStyle=orthogonalEdgeStyle;rounded=0;orthogonalLoop=1;jettySize=auto;html=1;entryX=0;entryY=0.5;entryDx=0;entryDy=0;strokeColor=#592C00;strokeWidth=5;dashed=1;dashPattern=1 1;" edge="1" parent="1" source="PEiCkukdCwHBLGiY2Sb7-34" target="PEiCkukdCwHBLGiY2Sb7-35">
          <mxGeometry relative="1" as="geometry" />
        </mxCell>
        <mxCell id="PEiCkukdCwHBLGiY2Sb7-34" value="&lt;b style=&quot;&quot;&gt;&lt;font style=&quot;font-size: 22px;&quot;&gt;Prometheus:9090&lt;/font&gt;&lt;/b&gt;" style="rounded=1;whiteSpace=wrap;html=1;verticalAlign=top;shadow=0;fontColor=#FF8000;" vertex="1" parent="1">
          <mxGeometry x="643.2448387096777" y="491.0094845360825" width="298.4516129032258" height="295.10777881911906" as="geometry" />
        </mxCell>
        <mxCell id="PEiCkukdCwHBLGiY2Sb7-71" style="edgeStyle=orthogonalEdgeStyle;rounded=0;orthogonalLoop=1;jettySize=auto;html=1;entryX=0.5;entryY=1;entryDx=0;entryDy=0;shape=flexArrow;strokeColor=#994C00;fillColor=#994C00;" edge="1" parent="1" source="iOH8eXoNTPQZBnvEToZv-2" target="PEiCkukdCwHBLGiY2Sb7-40">
          <mxGeometry relative="1" as="geometry" />
        </mxCell>
        <mxCell id="iOH8eXoNTPQZBnvEToZv-2" value="&lt;b&gt;&lt;font color=&quot;#990000&quot; style=&quot;font-size: 22px;&quot;&gt;mongodb:27017&lt;/font&gt;&lt;/b&gt;" style="rounded=1;whiteSpace=wrap;html=1;verticalAlign=bottom;shadow=0;" parent="1" vertex="1">
          <mxGeometry x="9" y="851.78" width="420" height="212.33" as="geometry" />
        </mxCell>
        <mxCell id="PEiCkukdCwHBLGiY2Sb7-74" style="edgeStyle=orthogonalEdgeStyle;rounded=0;orthogonalLoop=1;jettySize=auto;html=1;entryX=0.25;entryY=0;entryDx=0;entryDy=0;strokeColor=#FF8000;strokeWidth=4;dashed=1;dashPattern=1 1;" edge="1" parent="1" source="a6Zs2eqveyUoSRwlcodf-14" target="PEiCkukdCwHBLGiY2Sb7-34">
          <mxGeometry relative="1" as="geometry" />
        </mxCell>
        <mxCell id="a6Zs2eqveyUoSRwlcodf-14" value="&lt;b style=&quot;&quot;&gt;&lt;font color=&quot;#803e74&quot; style=&quot;font-size: 22px;&quot;&gt;flask_app_form:5001&lt;/font&gt;&lt;/b&gt;" style="rounded=1;whiteSpace=wrap;html=1;verticalAlign=top;shadow=0;" parent="1" vertex="1">
          <mxGeometry x="569.53" y="30" width="298.45" height="360" as="geometry" />
        </mxCell>
        <mxCell id="PEiCkukdCwHBLGiY2Sb7-73" style="edgeStyle=orthogonalEdgeStyle;rounded=0;orthogonalLoop=1;jettySize=auto;html=1;entryX=0;entryY=0.25;entryDx=0;entryDy=0;exitX=0.75;exitY=1;exitDx=0;exitDy=0;strokeColor=#FF8000;strokeWidth=4;dashed=1;dashPattern=1 1;" edge="1" parent="1" source="iOH8eXoNTPQZBnvEToZv-1" target="PEiCkukdCwHBLGiY2Sb7-34">
          <mxGeometry relative="1" as="geometry" />
        </mxCell>
        <mxCell id="iOH8eXoNTPQZBnvEToZv-1" value="&lt;b style=&quot;&quot;&gt;&lt;font color=&quot;#803e74&quot; style=&quot;font-size: 22px;&quot;&gt;app_admin:5000 / 8888&lt;/font&gt;&lt;/b&gt;" style="rounded=1;whiteSpace=wrap;html=1;verticalAlign=top;shadow=0;" parent="1" vertex="1">
          <mxGeometry x="20" y="30" width="489.13" height="360" as="geometry" />
        </mxCell>
        <mxCell id="PEiCkukdCwHBLGiY2Sb7-75" style="edgeStyle=orthogonalEdgeStyle;rounded=0;orthogonalLoop=1;jettySize=auto;html=1;entryX=0.75;entryY=0;entryDx=0;entryDy=0;strokeColor=#FF8000;strokeWidth=4;dashed=1;dashPattern=1 1;" edge="1" parent="1" source="EPMx4ZkjcdX6J0T9C3sz-1" target="PEiCkukdCwHBLGiY2Sb7-34">
          <mxGeometry relative="1" as="geometry" />
        </mxCell>
        <mxCell id="EPMx4ZkjcdX6J0T9C3sz-1" value="&lt;b style=&quot;&quot;&gt;&lt;font color=&quot;#803e74&quot; style=&quot;font-size: 22px;&quot;&gt;flask_app:5002&lt;/font&gt;&lt;/b&gt;" style="rounded=1;whiteSpace=wrap;html=1;verticalAlign=top;shadow=0;" parent="1" vertex="1">
          <mxGeometry x="934.63" y="30" width="290.16" height="360" as="geometry" />
        </mxCell>
        <mxCell id="PEiCkukdCwHBLGiY2Sb7-76" style="edgeStyle=orthogonalEdgeStyle;rounded=0;orthogonalLoop=1;jettySize=auto;html=1;entryX=1;entryY=0.25;entryDx=0;entryDy=0;exitX=0.25;exitY=1;exitDx=0;exitDy=0;strokeColor=#FF8000;strokeWidth=4;dashed=1;dashPattern=1 1;" edge="1" parent="1" source="EPMx4ZkjcdX6J0T9C3sz-50" target="PEiCkukdCwHBLGiY2Sb7-34">
          <mxGeometry relative="1" as="geometry">
            <Array as="points">
              <mxPoint x="1359" y="565" />
            </Array>
          </mxGeometry>
        </mxCell>
        <mxCell id="EPMx4ZkjcdX6J0T9C3sz-50" value="&lt;b style=&quot;&quot;&gt;&lt;font color=&quot;#803e74&quot; style=&quot;font-size: 22px;&quot;&gt;flask_app_dash:8051&lt;/font&gt;&lt;/b&gt;" style="rounded=1;whiteSpace=wrap;html=1;verticalAlign=top;shadow=0;" parent="1" vertex="1">
          <mxGeometry x="1284.63" y="30" width="298.45" height="358.2" as="geometry" />
        </mxCell>
        <mxCell id="PEiCkukdCwHBLGiY2Sb7-2" value="" style="shape=image;verticalLabelPosition=bottom;labelBackgroundColor=default;verticalAlign=top;aspect=fixed;imageAspect=0;image=https://www.stickerpress.in/media/products/full/83a78dbd45804be5bbd0dd2a82c50fb1.jpg;" vertex="1" parent="1">
          <mxGeometry x="301.8709677419355" y="101.97866916588566" width="143.36119962511717" height="143.36119962511717" as="geometry" />
        </mxCell>
        <mxCell id="PEiCkukdCwHBLGiY2Sb7-3" value="" style="shape=image;verticalLabelPosition=bottom;labelBackgroundColor=default;verticalAlign=top;aspect=fixed;imageAspect=0;image=https://upload.wikimedia.org/wikipedia/commons/thumb/3/38/Jupyter_logo.svg/1200px-Jupyter_logo.svg.png;" vertex="1" parent="1">
          <mxGeometry x="65.59677419354841" y="91.54912839737585" width="141.5691846298032" height="164.1342374507966" as="geometry" />
        </mxCell>
        <mxCell id="PEiCkukdCwHBLGiY2Sb7-18" value="" style="shape=image;verticalLabelPosition=bottom;labelBackgroundColor=default;verticalAlign=top;aspect=fixed;imageAspect=0;image=https://www.stickerpress.in/media/products/full/83a78dbd45804be5bbd0dd2a82c50fb1.jpg;" vertex="1" parent="1">
          <mxGeometry x="641.2445161290324" y="107.37698219306469" width="143.36119962511717" height="143.36119962511717" as="geometry" />
        </mxCell>
        <mxCell id="PEiCkukdCwHBLGiY2Sb7-19" value="" style="shape=image;verticalLabelPosition=bottom;labelBackgroundColor=default;verticalAlign=top;aspect=fixed;imageAspect=0;image=https://www.stickerpress.in/media/products/full/83a78dbd45804be5bbd0dd2a82c50fb1.jpg;" vertex="1" parent="1">
          <mxGeometry x="1008.0296774193549" y="96.22754451733829" width="143.36119962511717" height="143.36119962511717" as="geometry" />
        </mxCell>
        <mxCell id="PEiCkukdCwHBLGiY2Sb7-24" value="" style="shape=image;verticalLabelPosition=bottom;labelBackgroundColor=default;verticalAlign=top;aspect=fixed;imageAspect=0;image=data:image/png,iVBORw0KGgoAAAANSUhEUgAAAEcAAABBCAYAAACD6bkCAAAAAXNSR0IArs4c6QAAAARnQU1BAACxjwv8YQUAAAAJcEhZcwAAJOgAACToAYJjBRwAAAg8SURBVHhe7Zp5UFvHHce/ug9AEshI4jQJGBxDHGdKsGPwOBwOOG4ynTrJODg9p/84mcZN+o+Txp5OMp2mmUybTuIkbht7mqNNHY/HBsf4yOH4ahNwiU3HbmxIIIABiVtIQkIS3ZU2I4SeVjwV/+X3YQT8fm9X+/a7x9vfvpUZTBmzkBBEzv5KCCCJw0ESh4MkDgdJHA6SOBySFkcmkyFbnYYq41JYNEbImD8RGoUSpdZCFFsKICffsRBoWZnmLBQXrURamol5E6PU6JBXVg5bSRlUag3zLpyk1jlamQIvZq3DFv2tCCrl8KuU+MdUF57tOQVPcIalioZW8E5rEf64/meQKZUknwIu2SyebHkFX9q/xuys8G2k6g3Y/uNfEWHKECB5AgoFPjl3FPv3vwq/X7gsuVyBlbUP4N4ndkKVYQ7lmXAM4L3HHsJYbzdLlRjRPUchk+NpczkaNfnECleItv/9xkI0WldCSYQToiQ9B8/f9RCUc/qYloj0i6otyDZZmCcatVKN79U8jJL8EuYJl7X+ngdQV78l7BAgc2kRqn/0c2jTjMwDpGXl4MHX9kOp1TFPYkSLk67UYrMmN2YY0d5UacxDikLFPBFor1ljLYZJFXtj2cZMLM8sYFY0aakm3JpTSIZf7G3eVloOlTK2LEpmfiFMtlxmRTDk5iP3jgpmJUZ8zyFZVHFmGL1MKTiPyMiPjogmFyiO9kQVmYeEUMjJtTgCKEgemYBoFJVKzf6bB0mvJYIvFNHijAY8aAuMMSuCfzaItqlBuP0+5okQJNcujnwDp3+aeSKMuMbROz7ErGicrkn0DHST+SjIPBH6+rrgm/EyK5rh/h5MT00yK4JnbATdraeYlRiFRqv7Nft/QQTJxHnRN4Zl2gzkk6cV6SoIKuQ45R7AnwYvwOF3s5TR2D0TobRllltIqyswS3qFe9aPvf9uwec9l0LfO59A0A+n24l8MrRMJnMoT4D0zIsdn6Hp8F543FMsZTTTLif5TZ6mJbdDrtWSfDJM2gdxdvcLuH6pLZxoASQdlWcqdLhNnwmbJg293glcmx7FyIyHTNHxv05NhsJSow15JhuC5EnVPXodfZMO+AN+liIWOl+ZDBnIySpAeroFjtFB9JJe4yK9ioeKTLzmvFtgKy6D1+OBvesyxvq6EQwEWIrESFsWHETPOTcTkjgcJHE4SOJwkMThkPTTqlyfhR1LvgOrSo/r8hm8NNSG1sledlUYrUaDZ555GrU11QgGg2hqPoLf/+FlBDiP11DAuqIC3617hKxuUzE0Ycd777+OoSF+WWazGb986kls2FAHt8uNd959F3996234fLGL1HiIXgTS4OCelFz83VqNIpUBGSReytMYsNaYj2vecXxD1jxCpKenY++bf8bWxkZYLBZYrVasW1eF7OxsnD59BjMzsRG2nCz61q5aj59+/3FYrNlIMZhI3lysrqzHl1cvYnzMwVJGQ4V56cXf4QePbsWSJUtgs9lQW1sDtVqFT0lZC0X0sNLJVdhpWIVUEmXNJZv0oIaMImjlwnFSbU0N7l6zhllhaK+oq6vF6tXCwWCKLg0VpWuQqktlnjA6Ym/Y2Bg3tiotXYFNm+4LifstdFW+bds25OTkME9iRItjJFF5rkzLrAg0uCzUpUMrEJXTm1y+vAR6vZ55IhgNBmSRlhUiRadHZrqVWdEYSTgRbwPLkmmBhgzh+dBhfeeqO5iVGNHiOP1eTEBojpjFkM+FmWDsNdpDaMsJQa/RjxDT0x6MOUeZFY2HxFwzPuHAc26PmY9GE9uw8RAtzlTQh5ddl4lA0fHQoN+D5tGrcJHri4XT40T7fy/A7XUxTxgXibjPn2kRjNYXE9HiUA44O/HU8Gf40DuIrqAbH7n7sav/LM6O98Td7kwG+hQ798UpvN30F1zp6oB9eADtl/6JfXt/iy/aT7NUN46kxPGRoXPI2YXG3hZUXv0bftjVjGOj1+LuH/8/eKbdONP2EV7YvQM7nvsJdu/ZhY7//EtUdJ0sSYlzsyCJw0ESh4MkDgdJHA5Ji6PTakOx0aNbG0N/6erzRkHLorERLWt1RUXcBeVik5Q4BrLk37fvTRxpOozdr76C5sOHsOeN10NB3mKTl5eHQ4cO4uCB90NlHT92lJT1WkiwG41ocWir7dr5LDY2NDBPOARo2NhAIu5HoFIJv4RLBirA449tw13l5cwTLuvBzZuxffsTzHPjEC2OyWQiwtQzKwIdVmvX3i0YXCZLhtmM28vKYoYRFWhdVdWiNoQQosXRqNUkGhZ+3ZqamgqlUnjLIhm0Wg1pjMhhgLloyDV1nPtYLJKekG8GJHE4SOJwkMThIInDQRKHgyQOB0kcDpI4HCRxOEjicJDE4SBanGTeS9E8yeQLBILw+YRf99BTGvQjFt7hzPmIFmd8fBz2odhzw7TyXZ1d8Hg8zBOBVqKzsxPT07HnkJ1TUxgeHmFWNJOTk+jtFT5qYrc7BMui2B12+P2xItDjJ62tCz9qK1ocD6ngc8//BgODg8wT5quvvsaBgwfj3vCJkx/i448/YVYYKmhTUzPOnT/PPNHQhmg+8gERb5h5wvT19eGNPXuYFcuVy1fQ0nIsSiCv1xs6n9Pf3888iUnq8BJ9UU/3jeluYOmKFbjU0YEjpBJtFy4InrP5Fnr8Y9N9G1FdXQ0/SXfi5EkcO34cDkd05edCN9EqqypDZRUvW4b29nYcJRX/vLU17lClm2EFBQVoqL+XfOoxMTGB4ydO4DBpiCnSUxeKdA6Zg/S04iCJw0ESh4MkDgdJHA6SOBwkcThI4nCQxIkL8D+PdI9+ZC/O8wAAAABJRU5ErkJggg==;" vertex="1" parent="1">
          <mxGeometry x="1360.2400000000002" y="99.32029990627929" width="151.24606560449863" height="138.4654146579194" as="geometry" />
        </mxCell>
        <mxCell id="PEiCkukdCwHBLGiY2Sb7-35" value="&lt;b style=&quot;&quot;&gt;&lt;font style=&quot;font-size: 22px;&quot;&gt;Grafana:3000&lt;/font&gt;&lt;/b&gt;" style="rounded=1;whiteSpace=wrap;html=1;verticalAlign=top;shadow=0;fontColor=#FF8000;" vertex="1" parent="1">
          <mxGeometry x="1279.9983870967744" y="586.1213870665416" width="298.4516129032258" height="295.10777881911906" as="geometry" />
        </mxCell>
        <mxCell id="PEiCkukdCwHBLGiY2Sb7-36" value="" style="shape=image;verticalLabelPosition=bottom;labelBackgroundColor=default;verticalAlign=top;aspect=fixed;imageAspect=0;image=https://upload.wikimedia.org/wikipedia/commons/thumb/a/a1/Grafana_logo.svg/800px-Grafana_logo.svg.png;" vertex="1" parent="1">
          <mxGeometry x="1348.4495161290326" y="649.4119493908153" width="165.65386616682287" height="169.38125735707592" as="geometry" />
        </mxCell>
        <mxCell id="PEiCkukdCwHBLGiY2Sb7-37" value="" style="shape=image;verticalLabelPosition=bottom;labelBackgroundColor=default;verticalAlign=top;aspect=fixed;imageAspect=0;image=https://www.curatech.fr/data/uploads/software/prometheus-monitoring.png;" vertex="1" parent="1">
          <mxGeometry x="689.8858064516128" y="546.0942924086223" width="215.04179943767573" height="184.93594751640111" as="geometry" />
        </mxCell>
        <mxCell id="PEiCkukdCwHBLGiY2Sb7-45" value="" style="shape=image;verticalLabelPosition=bottom;labelBackgroundColor=default;verticalAlign=top;aspect=fixed;imageAspect=0;image=https://i.pinimg.com/originals/64/41/79/644179db2d1ebe74ec52d7e53dd90a7a.png;" vertex="1" parent="1">
          <mxGeometry x="50.45193548387097" y="892.7178350515462" width="358.40299906279296" height="97.66481724461106" as="geometry" />
        </mxCell>
        <mxCell id="PEiCkukdCwHBLGiY2Sb7-48" value="&lt;font color=&quot;#ff0000&quot;&gt;admin&lt;/font&gt;" style="html=1;verticalLabelPosition=bottom;align=center;labelBackgroundColor=#ffffff;verticalAlign=top;strokeWidth=2;strokeColor=#FF0000;shadow=0;dashed=0;shape=mxgraph.ios7.icons.locked;fillColor=default;" vertex="1" parent="1">
          <mxGeometry x="1730" y="750" width="24" height="30" as="geometry" />
        </mxCell>
        <mxCell id="PEiCkukdCwHBLGiY2Sb7-49" value="" style="shape=image;verticalLabelPosition=bottom;labelBackgroundColor=default;verticalAlign=top;aspect=fixed;imageAspect=0;image=https://cdn.icon-icons.com/icons2/2107/PNG/512/file_type_prometheus_icon_130229.png;" vertex="1" parent="1">
          <mxGeometry x="130" y="270" width="90" height="90" as="geometry" />
        </mxCell>
        <mxCell id="PEiCkukdCwHBLGiY2Sb7-50" value="Prometheus Client&lt;br&gt;:25000" style="text;html=1;align=center;verticalAlign=middle;resizable=0;points=[];autosize=1;fillColor=none;fontSize=19;fontStyle=1;fontColor=#FF8000;" vertex="1" parent="1">
          <mxGeometry x="222.83" y="290" width="180" height="60" as="geometry" />
        </mxCell>
        <mxCell id="PEiCkukdCwHBLGiY2Sb7-51" value="" style="shape=image;verticalLabelPosition=bottom;labelBackgroundColor=default;verticalAlign=top;aspect=fixed;imageAspect=0;image=data:image/png,iVBORw0KGgoAAAANSUhEUgAAAcEAAAFvCAYAAAAyrXB2AAAAAXNSR0IArs4c6QAAAARnQU1BAACxjwv8YQUAAAAJcEhZcwAAJOgAACToAYJjBRwAAIkESURBVHhe7Z0HfBTFF8d/6T2kAQkk1NB7kyZNepFepFdpAoIiCBZA/2ABLKCCCCjSiyJNUAEVFAWkdwgdQkjvPeE/791eSEJ6Qkhy78tnud3Zvc3u25nXZvbGyLV02UcQBEEQBAPEWPsUBEEQBINDjKAgCIJgsIgRFARBEAwWMYKCIAiCwSJGUBAEQTBYxAgKgiAIBosYQUEQBMFgMbG1d5irraeNTRnUadoB3VrXQLHEcPj5hiBO2/VMsemMKe+NR72II/jvXqxWmM84e6JOi87o1dAdcTGBeBgYpe3QYeNeD9UruMHV9fFiHuaD0GQC1B1ji1ifQERrZTqcUKFuVZQxDcfD0Gd0f4IgCEWcDF6Wt0WdoR9gdq/qsDHRiohQL+z+8nUs/zdcK8gDnuuH8XXd8PD0Emw/ppVlRt+l2D60OmJPLsKAeXu1wvzCCd1mLMXo5q4w00qIuAdH8f2ns7H9im679Vs7MP05W91GErF4eGgJpizeiwi1pTvGB9t7jMMq3QEa47FkRz+UPLYAA+Yf0MoEQRCEvCTddKjNgA8wt68ygMEXsf3L6Zjy+nQs2nwUD6080W36Yowuox2YF9Rqh25de6BNLW07K2ybhSlvj8P4fDeAQMPXl2K8MoC4cxirFo9j2SzZ64VYt8YYPXsuWmvH6biDX+dMx1u8LMKv94CSLadg7oDUxlEQBEHIb9JJhzbGG6+/hHKPTmHVhGnYcNkHQYE+uHXuAA5E10aXhjVQ0vYcdv7jozvcuS3Gv/kuJowej37tmqCatQ9OXvTR0qY9MH3xa+jgFgI0nYKZk6fhpfb1UDL8P/x3OwroOhtL2laFo605zB2ao2V9d3j/+R8eUiTadQqmTHkF44YPRNsG9eAadwqn6DtE3VF4bXgf1DTbjSPXgG7Tvsakju4IedQM42dMx+QBXVDbNRyn/ruZLM2oztl3Nqa/8gomqv0Nazgj4uQp3NXSk/pzJDh3w/Q3Z6J3xTvqHu/oduqxGYVpk5uhuO9evPnKAhy+Hciyuf7fblxw7ogONSrB8dF6/HYBKNdyIJqVDsHZz77BXh8fPPTxwtE/ndGiTw2UMY/C5t/OaceE4/Km3Til/QkdDdF5YA3Y3j+MbYdvamXJqDsec994GQ21+2dIluOHoEZSmRNaD38Hr4wdj4kDe6J1XXdEnDuKW/qsrXpuo197DWPHTMGwLu1QrxwQcOEKHiala9X3x7//+JkFhqDO6Hcxsr4J9v6rhbuZyFQQBKEgk3YkWLctKjoDERf2Yjvl7JIRsXMBZqmoZslmTfNWGY8lX89Gtyq2iPW9g3AVKTYbugjLZ7TV7Ycbynh6ok7H6Xi1qTPi/H1g7lYP3V5fjPEZRJPVRi/G3LGdUd0mHJdOqr/l3hi9VAQ2/TntAIcyqKbOW0YFZETJsp6oUK0zXp3SAk7RgfAxLoM6nWdjQdIfsUWHt77F/KEtUAaBuOsPuNYbjNlfLUAHG90RfI5aPTBhSD2Yh96BT5iuPAXd6sHTDLhxfDkuaUV6Ln03S0V7s7Fsv1aQFhGx7ByYmdjptnNKqvtnXMuiQrKy1rO+xvTeynkIvYBfzgXCtoZySD6YrcyrwqYz5n4yG70aKPncOoozAbao3k5FqHMGQycOW/T/YD2md64Hp/A7CIp2Rpsp09G6mpJRWTc+IisyFQRBKMikbQQdbJV6g4pc0uqLCsSN06dw5p6uT7DboM6oYOaDX+f0w4TXx2HCqH7YciUWjs37Y3QyRWgWehizh4/ElNdHYtS6i8oQlEH19mrHngWYclQXUT48Og5T5i3HGbXuc2o/ftm7HLNHjcPcj2djwuIDKjp0RbUW9fjYNLEKx99vadcxXhkpFfF4VO2i21dmFHo956SilEUY9QqlMEdi/PenEOGgjOvQZNbYLBC/z+qB0ZPH4a0Vh7XCZKiI1QzhCLyeRp9oxB2cUbK5EaBtP4GKrKa1gIdau3vtZ13RU6MxmlVyUqHdUXw+ay6WfzwZ4xetxvbdB3Cd91/AkZ/3YstXgzFhzlwsmNUPG9VzM6vQBF1pd90p6FjdXEWOy5PkNWrTbZhb8Zd1ZFWmgiAIBZRcviLRArXLKXP54FTSYBAoA/H9CS82clW7aUWKiLunkiKniMAwZDbeMejkVqzd7YOqw6dgyltLsWR8Y5RU5baWSrGnR+htnNVfR0QgIpKn5NrUUMYnFoFRlTB07BSMV8tQ11iEJyjTVLKGdpAi+TnyBE9026QiarXs3rEV01tTX+IOrFqeKs2a5xzFkWuBgHMLvLHia8ydPBjNIw5j086jCKLdymD/unk1/jLuoWQxF/MXf4sXK5grJ8AcHKM2KKvkHQuvY1t5AA8RsfMALoVqG0RWZSoIglBASdsI3ghUpkxFUeX76bZTQEP366GOO8WK5jCnM0SH4y7v0wggI2cOixyP/bBFh1lbsfnLuRjduQWqKbsXePqCigRzganuw7ZsDVSvol+cEXHTCw9DlfLPKn5hysDbwqNGGpEOvU6iZFPBWdtmAnHx4F78opbde3bg+6UjMWTyEvyn7X2a/PHBOCz68ShH0HXajMKU/32LdYvHoxrtpDT2pq3ch9imYVnYhd/Gmdupo9tYxEVqq0wq1yWvZCoIgvCMSNsI3tmC4/dUUFC1C8ZX0co0qo1djMXzFmF8N4rIjuIupf5cPdGL9+poWL8SbJTy97msFWSbHmjfwAlxV9ZjwEuU3pyMuT+rqCY3XA9QEY25ijBfx5TXKXVHyyzMWaA+P92hHZQFdh7GRRUalWwyPlW/lzLc05di/jxluPX9lkwgbqxYguXasmX/naTIirgeTIZHRc2DUnoMNr0pylJxdXTG921j+dgY25ikMjw2trhzYAGmjO2BXr174K0/fGDm2RkDWgN1urVABatAHPlQbY8diSlz5uJ6VLLvs7xsUbF+Y61AUaUePOy1dSKvZCoIgvCMSCcdegfLtx5GkFkZdJu3HvMnD0aHDoMxRa0v6FoGZsGHsZnTeeHY9M9FxFnVQ+//jUJrihB7z8WE55SBfHAU2//WnS1TWJkqne3QFnVqlVEG1AcRUcoIl/REGxVx2rh3xpSZbTkdmmP+2IHjKpSs0HkppnRQ0ZpnPXSYvBirV+/FkqHJR5dkxg4s/8ULcfaNMWX515g9vB86dB+P2YvXY0p9W8R57cXybLy1cXfXYdyIM0e1vuuxZIaSc93O6D/ja6weUh1mcV44sjXlmNEk/riAO3HKGLeZx/fTuvtcLGrtqo3IJXpg/jffYsn82ejl6cQv5dcpQYY2HOHBgBcbX1u4KiPnqKL7hoMWoXetZEZQk5dj89lY9tZ0TpkuebstnJKnmPNMpoIgCM+G9PsE/5iL8R/swI0YV9RpNwpTXhmlFLQrwr12YNFrc/GHdljE5llY+KsXzKsPxnQVIc4f3gJO/kex6tNFT4yeTJc/1uFXr1iUbDkb89+agg44gM17LyLCrjHGf7kDm7+cjkb3TqVMuWabo1i0eDnOhJZBh1cWYcniRZjSzhWBx1Zj2VrtVY8scnfNOMxeo6JgE0806z0eU0b3Q7Pyqlyda+67y7N3nXeWY5ZyLi6F2aJCcyXnedMxrLknbMK8sHvR61iVbtfheqz+UcnIWHc/0wdVwvU/TiVLWO7AgtUH8NCiMUYv1qWW+6uo/sae5Vh2Wj23TT/hjwdkwBZg7Y6tmNvdDtcvJk+HKnnNWoDd6rm41mqLji/UQMze1Tijf72CyTuZCoIgPAsy+MWYZNDPg3kofX3aSzeoIk2or7As7PyvJY0czTbOZeARfQd3k/KFunPibkYjLrMPRUWeLmGZ3E/W4HM5BsDrXMo0Z45gOdshLI/v11FFaGWs0r7GjK/fCY7OgQhKupbOmLt2Ohr6bkW315drZTryUqaCIAj5RdaMoGCAdFbR7nQ0M1MR6XfL8Y+vKxoOGIVe1W1xY+c4TEk/RBUEQSg0iBEU0sWmyRR8MKEzKjhofYVxgbixfznmLD8g0Z4gCEUCMYKCIAiCwZL+wBhBEARBKOKIERQEQRAMFjGCgiAIgsEiRlAQBEEwWMQICoIgCAaLGEFBEATBYBEjKAiCIBgsYgQFQRAEg0WMoCAIgmCwiBEUBEEQDBYxgoIgCILBIkZQEARBMFjECAqCIAgGixhBQRAEwWARIygIgiAYLGIEBUEQBINFjKAgCIJgsIgRFARBEAwWMYKCIAiCwSJGUBAEQTBYxAgKgiAIBosYQUEQBMFgESMoCIIgGCxiBHOBtbW1tibkBpFj7hEZ5h6RYd5Q2OQoRjAXWNtIo8kLRI65R2SYe0SGeUNhk6MYQUEQBMFgESMoCIIgGCxiBAVBEASDRYygIAiCYLCIERQEQRAMFjGCgiAIgsEiRlAQBEEwWMQICoIgCAaLGEFBEATBYBEjKAiCIBgsYgQFQRAEg0WMoCAIgmCwZMsItmndHiuWrcHmjTvx6eKvUK9uQ20P0KxpC6z+ZgPWrN6Mbl17aqVAGY9yfGyH9p21EkEQBEEoGGTZCD7XqClGDBuDCxfPYfEnHyAiIhwTJ7zKRo7o1bMfjh4/gj17d6Jj+y6ws7Pn8iGDRyAgIAAHDv7K24IgCIJQUMiyEWzZsg3ue9/DF199imPH/8HSLz/BoUMHYWZuxvstLSyREJ+AmOhowMgIVlZWbBjd3T2wcfP3SEhI4OMEQRAEIbuYWhaDs2dLlGvxCmoPWIGGY37U9uQOI9fSZR9p6xmy9LMVuHL1Emxt7VCubHncun0T6zd+h7t37/D+MaMmsKEkjhw5jN8O7MPr097E3r27sWvPdi4vargUd4G/n7+2JeQUkWPuERnmHpFh3pAXcjQyNoOdW3XYlaoF+1K1+dPKwV3b+5h/lrRCbESgtpUzsmQES5f2wHtzPuQU59lzp3Hx0jl07NBVRXfxmP326wgODubjSpQoyZ8BAf6Y/eY8JCYmYP4Hc7isKCKNJm8QOeYekWHuERnmDTmRo5VzOdi71dIZvdK1YVOiCoyNTbW9OhIT4xHhewWh988izPscQr3PIirwtrY352TLCD709cE7c2ZwarNunfqYOmUGtv6wAXt+3qkdqaN3r/5o3aqdMoDvokunF9GhfRf4+/vhs6ULcf36Ne2olNCU/IVtRmInJ2cEBgZoW0JOETnmHpFh7hEZ5g5TSyeU7fwhLJ0raSW5Iy7MB1G+FxHpfwWRDy+o9QvanuwRGRGJyMhIbetJspwOpRGeVEHen/8Ob5cvVwGzZs5hA7hj1w9cRlSrWgNTJk3Hpi1rVUTox+srVn6Fnj36shFd+sVi7cjCj3iOeYPIMfeIDHOPyDDnmJhZoe6wtbBVEVxOSIiJVJHdaY7wQu6fUdHeGcRHh2p7ny5ZNoLDhoxC2xc64stln+HEyWMY9/IkNGnSHIsWL+AUKWFiYoIF7y/CPe97bOzq12uIMaMm4rMlH2NA/8GIio7i44sK0mjyBpFj7hEZ5h6RYc4wMjZBrQHL4FiuKRuuW7sm477XSW1vwSfLo0O3/rARly5fUNHfu9i6aRdatmiDLVs3JBlAYtSIcTAzN8fadat4+5rXVURGRWLGG2/D07MKzpw5xeWCIAhC0aBKl/fYAD5KjMP5bVMQE6IbLFlYyHIkqIdefXB0cIL3g/tayWNo4ExYWMoQlqLDKlWqw9/fF76+D7XSooF4jnmDyDH3iAxzj8gw+5RpOgblW78KPHqESztmwPfSvkInx2wbQeEx0mjyBpFj7hEZ5hxzGyfU6r8ctq7VtJLsQSlA3ws/4+HFnxF6z3CyXSVqdEa17h/z+s0/PsOdf3QZQDGCBoQonrxB5Jh7RIY5w9TSHvWGroW1SwWtJHdEB9+H78U98Dm/C1EBt7TSooe7Z2s0674Y9vEJMLp3FuZ+t1Dc1g2linnA3NRSOyrrXH54Ft/9+yl8wp7MMD5tCoQRLFGjG4Ju/o24yCCtpGBjZu2I2gNXwrZEZa0ke8THRCiP8SRC7p7gkVAhd/7T9hgWufHAeTQZjSKjEWUPLiBEeeD5NZqsICJGMPsYm1mizqDVsC9Vi3XPzZ2v4MHNc9rerOPs2QolqnflyCg54Q8uquhwj4oSd+f6he5nQTFLR5SwLw1Xu9IoqT5L2pZiQ1faoSzMTMy1o/KWH86swa5z67Wt/KFAGMFWs3QVL+zBeQRe/wuBN/5iBVdQqTf0e9i719O28gZ6AZTumQ2jMpDZcQjMbVxg6VQG1o5lYOVUFlaOHrBSHhl5t9TQs0u4zyWc3/oKYsL9tJK8h34CieSYVx44QV44vUBLC79MW4DrUF4jRjD70E9vOVbQjWg8tXYYrI1CciVDE3NrOFd6Aa61e8CxXBOtVEfgzX/w8NxOBFw7iITY9N9ZSw9nmxIY//xsVCpeXSt5tsQZGSEY8bh95188CLkN37AHHMX5ht6HmZ1JtuXYrkoP9K83mqPI+yG3sOrIYtwIuKLtfboUCCNYrcfHqvK05ndNckuYzwVc2Dr5qSnwyl3mwq1OHyTGx/BQ4LuX/9H2ZB2b4pWVEa2LYmqxK11bGa+y2p7HRAbdRtg9ZRQp2rl3GvFRQbBQxo0NHRk5Mna5MHSZQX//7LqRT0WO9JzrDF4NO7eaykP2V3Kckm0P3MbFE7b0s0puNXQ/q6TOlRbkWJEMw30usmce4e+l7SlaiBHMHjV6fwKXKu2RGBeN0+tHcj3JSxmSY1qiRheUVBEi1dPk+F7cq6LDPQjw+lMryZi6pZtg7PMzYW1mo5XkD7Hx0fAOuQu/8Ad4GO4N3whf2DcfifjiFREU7otTawZx+01NTuXoYO2CUU2moXapRrz9y6Ufse30t4hLiOHtp0WB6hOkH0ctXrUjG0TK1eeUqOC7OLN2eJ4r8FINXkKlDm/x+qWdM5DoezxPGg2lV4u510cxjwawL12HfzYoO1BDjvS/gShVYaOC1BJ4WxmxO4gOvJNmJc0IC9viqDN0DawcPJ6aHOsO/hbFyjRUHniI5oGH5okcKTq3L1VTGUTd7w1aOpTW9jyGvP6H53fjwamtRcogihHMOnpHlji3aSxHacTTkiH9JJhrzRc5ZZq8Tkb4XUW4nxf8Lv2CoJtHuB0nx9jIBL3rjkDXGv1hpP796fUz1h77EvGJcdoR+Uut/l/BqWILJMSE4eT3Q1jnpEVu5dikfBsMbjARdpbFEKAM78ojC3Hp4dPL6hSpgTGswId8pyKlMhzJkAKPjcibn0EipU3Km7j777e48bvyJJ+i4qG/50BKXS0UMUI1iGhl2Oi+yMiRscupocuMpynHGn2XwKVSGxVJKw987QiO3J+WHCnlSg4FR4rKuSimDKSJhZ22VxclUorK5/wO7mMszDwNGVKft5VTec462LhU0D498SgxsdD2x1Zs+wbcnxvG6xd+nAb/K/t5nXia7VmPvUd9lKjWCSVrdH3C0aduoIBrf8Dv8q+wVDKe0moepz9jVST07T+f4p9bB7Uj85/KXeYpx6E3r59eN4K7bdIjL+RobW6LIY0moln5drz9943fsP6/ZYiMDeftvKRIGUHC3MYZdYet418cjwq+h9PKY8mtArewd0XD0dtYqQbd+ld5j+Pw6FFivjSaZ0Wey9HICNVe/IgHD9BLtWc3jkPwneO8K7/kSD/I61z5BbiqxuxYvqm6JN1vRZBB9rv8G3zObE+6psJGTmVIDo+VMxm6crChT7VYq3WLYm5J8skKVEfC7p9DGPXJPlCfDy7ycy5IlGkyGuXbTOX1K3vehs/ZHbyuJz/bM8mWHFwXVR+dK7fhzIueEjExaO0XAJtHRgiI8sfi/W/C+xm+gJ7Wu4AZkZdyrFayDsY2nwFH6+IIjQ5WhvArHL31h7Y3byhyRpDIy0jG2NQS9YavZ684SkVeJ78dgPgYnTdSlI0gkZkcbS2Kcf6elpqlGsDSzAphMaGIiAlDRKxa1Gc4b4fComxDWHrUQ4yJMS4fXooHyusN046zd7TNdzma25WEa+2eKFW3Lzs5ekiZ+5z9iZfYsIL/4w6WylhV7f6xLluQx0QHe6s6fwsRvtc4NR4VeEcZtnjeR0aS+mOLlar7RJ+XnuT9sfyL/8/wlQFKf1IalLh+YCHuHfue15PzLNszjRNwqdQK7T27olmiDYzxCHetLPGnkwNCQ++piPUA9yHm90jy9N4FzIi8lqOF0sF96o5E+yo92Hk4730CK/9ZiOCovBlxWySNIMEKPA/6tqr3WsT9lJQuO/Fd/xRTdxR1I0iklmPYz/NRtVhF1C7dCOWdc/Zjuc8SSqf8deM3/OH1M7yDdc/SsWxjFR32gkuVdsrpseAygtJTD07/qBTQb1pJwcJJRbPVey1OkeLNLtQPFe53TZdqD7yFSP+b7OyFP7ykHZE1stIfmxMozep/+Vf4nNuBkHuPf6IxOxSv2oHlRJASJ2WeFs+yPZMDObbZDNT3aM7bu73/xpXirnCq8Dxv55acPOfkXUDUh35133u8nhlPS44VXapiTNM34FbMA9FxUdhyaiUOXt2l7c05BcIIfjfkV23t2RIc6Y8wFZmEqbCbIhg4esDcvQ6ijY1x4/gaeN85ivDYUN5Hi62DTZE3ghTtNarQDs0bv4wyiaYwT0zU9ui4GXgV5+4fx1Xf8yk67I2Vx2ZjbofSldvBo0oHWKjvRd89DeMwf3VOW9goxW1jbg8HKyftG/nPzYArbBCpv4EalYmFNUpU7wa3ur1h51pDOyrnUL/Jld1vc3SZ15R9fjzPsE1Qv6b/0U8LVF3MrD82JyS9iH52ByvwrECvQNCrEITP6W24sncer6fFszKCHg7lMbn1HJSwLYWQqCB8cfg9XNOmDaKR347lm8HFs7Uy5u1yLcO04IhfOfc0UIcc3ciAmxxxVe/9KUxVWw28fhjntkzUjs6cpy3HF2sNRp86w3l90YFZOP8g/f7JrCBGsBBB4X8EG2FKNYbrUo1qm9OOnH7UGecIFe2QsabymPiUI86ygmfx6qjDKc6GT0R7scohuGMcj0NHl+HkjT/U3wvR9jxJyVrdUbXbfF6/dfgr3P5rGa+nJj+VT8MyLdC6UhfUdGuglQBxCbH47+5fOOy1Dxd9dNEGDQBxrdeXR/XlZqQy9TdeP7gY3ic2aSW5w9TCBlW7f8QvaBPXfp3P534aMizj5ImSdqXgZu/B3ndJu9JwL1aW3+XKr7rIL6LX6Kqck/ReRP8Z6Q0Mo5fg6WV4MiR+l3/Bxe3TtT1p8yyM4PMV2mN441f55fMrvufw5aH3ue8rr7GwLcEDm+iVKsrqUPqVti0dSmlHpA29M3x63XAkKCcxq+SHHKk+NvRogV3nN2glOafIpkOTk5XUKKUjbC3seXFy9kTtdrNhaWyORN9riL51TJXbcVREw3bpGEcrZ+2bRR99tHcp2At2Xd7KUorZpXIb1OizhNfv/bce13/7kNfT4lkoH3onqUXFjmjt2ZlfRNbjG/4Ah6//qpZfODOQG8o+P0FFazoPOujGP7i8e3a6CjsrkGGu0W8Jyz8m3BcXtr3K/W5ETmVI9ZgUiqu9O0ci7ioqoXUX25LaEYWXSGMjxJiasjF+cOcYG2xdlof6qkMQppZnmdkZ2WQqWnl24fXdFzZh26nVvJ7f2Jasxv3+1i66QVH6UcAxEX44/f2wbNfZZ9Gec4NBGEEiq6MdKfyvP2orHxfhdw0nvxvE3nxa5OfDps5hSiHamtvDxtyWDbENGW1zu6TUos6I5z7VSINVqPP5zP1jOOt9nBWGnqzI0aFMI9Qe+DWMjM2Up74Xl3bN5JFl6fGsG01117p4vmIHNCrTMsXPQdG9/6UM4rHbWXupOTXkWJUsVR81O76FYsrQmkdHIPj8zzAKeaCcKQf1rMixstfWC55j5R/+ED5h93Av6KZyDrzxMMwbCdrAGD36tPfTqotFnajYSCz/+wPV1o5qJYUfMYIFmKyMGq310goecEAd8idW90W0UljpUdgedl6RkRzpl1vo12DoV2ECrh7E+R9e5fKMKChyJKPVpNwLyjvvVCgH/eQE+lWQu8G32Mg9CLmLB6F32djdCSwcPySgfxG9ZM3uKUb5mimnK9HvBm7vmQMrI1PYWVAGhzI5ZJxp/dk7IHeCbmDpn3PhF+6jlRQNxAgWcDJKjVZo8xo8mozkdfoppcyGIxuqESTSkqOJpR3/Ij/1oQXd+gdnN47Vjs6YgijHUg5l0dqzC5qVf4GVZk6gvkZd2k2XfosxMYW5e23EqQgpIj4cN05txcP7JxCmHC7aTym55P1m9APj1Xt9wr8kRH0yNMiGXqROC0Oui3roRXQ3ZRBdqnZAXHQITn8/NM1sT3qIDPMGMYKFgLRSepTCq9ZzIe/XDzbIDENvNMnlmBzqpyInIvXPQKWHIcmRBrZ4dnoXJat34RTxvRPrcfP3z/i3aJNDIyur9/6MnQ1yMi5snZLhz7yJAs89IsO8obDJ0cTW3kH3BqkBQV41vXvEv9Tg6MHvh5VUHqSRsSkenPkBtw59oR2ZMdY21oiMLNw/t5UbksvRzEoXLVE/6pkNY5AQG8HbWcGQ5JiYEMc/1RXpfx2OFZor56shildtj1DvM4jVMhKlGwxEDWUATc1t+AVp+n3LmExe3Df0upgXiAzzhsImR4M0ggRNZ+J/+Tc4VW7NMzOQAaRZoS9koQ9LjzSaZHL0bIm4qGCcVQYwLip780IaohzJCPqe2wmbEpX4XbpSdfvxu1n0jqJH09F8zE3ljF3b9z4bzsyQuph7RIZ5Q2GTo0GmQ5ND6abag1axAjq1dmi25vGT9EneYOhypNlJKr7wOv9EH0GDsi79ND1pdoOsIHUx94gM84bCJkeDN4K5QRpN3iByBI+0rd5zkXLGjHD+x1f5Vzyyg8gw94gM84bCJses/0y8IAhPDfoZsBPf9sd/q/tl2wAKgpBzxAgKgiAIBosYQUEQBMFgESMoCIIgGCxiBAVBEASDRYygIAiCYLCIERQEQRAMFjGCgiAIgsEiRlAQBEEwWMQICoIgCAaLGEFBEATBYBEjKAiCIBgsYgQFQRAEg0WMoCAIgmCwiBEUBEEQDBYxgoIgCILBIkZQEARBMFjECAqCIAgGixhBQRAEwWARIygIgiAYLGIEBUEQBINFjKAgCIJgsIgRFARBEAyWHBnBwQOHY+2arejUsZtWAjRr2gKrv9mANas3o1vXnlopUMajHD5d/BU6tO+slQiCIAhCwSDbRrB2rbro1KkbLC2sYGFuoZUCvXr2w9HjR7Bn7050bN8Fdnb2XD5k8AgEBATgwMFfeVsQBEEQCgrZMoImJibo328QfHweICgoQCvVYWlhiYT4BMRERwNGRrCysmLD6O7ugY2bv0dCQoJ2pCAIgiAUDLJlBHt07wNX11LY/tNWJCYmaqU6zpw9hZYt26BPnwG4cOEsR4Lt23XC3r27cf36Ne0oQRAEQSg4ZNkIUt9epw5dcejQQdy7d1crfczK1cswfcZkXr5Z9RUGvTQc9+/fw64927UjBEEQBKFgYeRauuwjbT1D3nj9LZQs6YZ578+Go4MTZr85B3v37caOXT9oRzymd6/+aN2qHeZ/8C66dHoRHdp3gb+/Hz5bujDdqNDa2hrWNtbaVuHAyckZgYEp08JC9hE55h6RYe4RGeYNBU2OkRGRiIyM1LaeJEtGsG6d+nhzxrswMzNDfEICjNQ/CwsLxMXFYcfObVi7/lvtSKBa1RqYMmk6Nm1Zi4AAP15fsfIr9OzRFw99fbD0i8XakYUfl+Iu8Pfz17aEnCJyzD0iw9wjMswbCpscs5QOvXL1EhZ8OFdFdnPw0cfv4ctln8LX7yF27t6OX377WTtKN3BmxLAxuHj5PP48dBDm5haIj09AaGgIYmKi2XAKgiAIQkEhS0YwKioKZ8+dxslT//Fy8+YNJMTHIyQ4CL6+D7WjgFEjxsHM3Bxr163i7WteVxEZFYkZb7wNT88qOHPmFJcLgiAIQkEgy32CWYFGhIaFhWpbOig6rFKlOvz9fVMYzKKApE/yBpFj7hEZ5h6RYd5QJNOhWSW1ASTo/cCLF88VOQMoCIIgFH7y1AgKgiAIQmFCjKAgCIJgsIgRFARBEAwWMYKCIAiCwSJGUBAEQTBYxAgKgiAIBosYQUEQBMFgESMoCIIgGCxiBAVBEASDRYygIAiCYLCIERQEQRAMFjGCgiAIgsEiRlAQBEEwWMQICoIgCAaLGEFBEATBYBEjKAiCIBgsYgQFQRAEg0WMoCAIgmCwiBEUBEEQDBYxgoIgCILBIkZQEARBMFjECAqCIAgGixhBQRAEwWARIygIgiAYLGIEBUEQBINFjKAgCIJgsIgRFARBEAwWMYKCIAiCwSJGUBAEQTBYjFxLl32krQvZxKW4C/z9/LUtIatYmNnAzdlTLZXg5lQR5mbW2p6sExMXgeveJ3Ht7lFExYZppYaL1MXcIzLMGwqbHMUI5gJpNFnDyMgIznalldGrDDcXTzjZlaJS3c5ckvgoAff9LuPqvaPwC76tlRoeUhdzj8gwbxAjaEBIo0mfjKO9RwgM88YD/2t4EHANRhYx8PPz0/ZljrGxCcq51kbl0k3gYOeqlQLBYT7KGP6LWw/PIjExQSs1DKQu5h6RYd4gRtCAkEaTEpdiHsrgKcPnUklFe6W1Uh2xcVF4EHhdGb2ravHidKae3MixuENZeJZ+DmVL1tRKdKlSL+8T8Lp7zGBSpVIXc46dtTMaVe2OEg7ltJLsERsXict3/8HVu/8iPiFWKzVcxAgWcSjCqez+HCqpJSd9WYRv8C38d2U3QiOyHv0UFKzMbWGjlIa9lRNs1aed+rQwt4G5iWWKqIwIDLuvoj0vZfyuwT/krlb6JHnRaKws7NUzaYyKperxM9Jzz+8irijlVNRTpWIEs4+JsSlqVmiNamVaaCW5g4zhxdt/wev+cYM2hmIEiyg2lsVQvVxLlHOty40nL7h05zDO3/gDCYnxWknBIC1DZ2vpCHub4jAxMdOOepK4+Ch4B1yHt/8V+KioL3m0lxF53WjoGVUp0wyOtiW1EiAo/CGu3DmCWz6ntZKihRjB7FHKuRIaVnkR1qpdk/E6eW0fwhPuZ1uGpibm8CzdCNXLPp/kFBu6MRQjWMRwsCmJasr4JU+3RcWEqkp+GCGxd+Dr66OVZp3ybnVRz7OTajRWiIwOwX9X97DhyCuszO3g6fEcPEs1SBEV5QXxCTEIjwxCWFQAwiIDEB4ViFC1RKj1qNhw7ajs8bQaTVqpUoq+ozXj/OhRojLUkZyqjYmNUOvqU23zEk/l6jM2iu+5oEHPtZRLJbg6VVIKvSLMTK20PdmD7v3C7UPsIBgC1DYaVOkK9+LVePu69384c30/yyE39ZCMYaXSjVGtfAuYm1hwmaGmScUIFhFKuVRBZffGSslU1EqAkIiHuHjrMG4/PMfbuXnYZADrVGyHiqUa8vY9v0s4cWVPrvqwSOnTNXuUqKGV5IynYegy4mk3GkqVero3QmXlsefUWOSEuPgY+IXcgX/wLfiH3OM0eG7IqM81t5Azdv7m77jx4JRWUvSopqK1muVbw8TYjJ2hY5d3pEjT50U9FGP49Noz6UyXYmXgbFcKzqotWKt2/fPRL7S9OadAGMG6nh35hqws7HSL8tYySrtlRFoKPEwt4VlU4OVc66jG0hzFVASo52HQDe5XSh2t5cXDdnEog+eqdOdUY0JiHM7d+B2X7/yt7c0aFVTEV8WjcYprJoN95e5R3PA+oZUUXJ62EUyOqVJMFuZWnLqyMFULffJipevbpE8VZXGZuTXXxbwkIPQ+90+S8vULuaUizUhtz5Mkj/Z0I2xTGnBdn+s1PAj0UhoiKtsyNDO1UHW9hao7TZNS/CERvhwZ5VVmgup32RI1eTRvThyQuPhollmAkldAmLeS3R1Ou2eHrLaxvKyHZAwrezRBVUqT6o2h0k2Xb/9V5I1hXsmRnD5nO3dl8NRiXxo2Vo7ansf89NfHiI7NWrdLehQII/jSC/O0tadLQkIce4Dh0cpIJjOQkTGhKO1cGVXKNOe+Pz23fc7g0t0jPPQ+LfKy0VQt0wy1KrzAXiopouNXdqkI4o6290nSS3nefngeXvePFaqBIPlpBPMTSqW7OHiw90qKmPpVU0POGil4v2Cl5NWnqal5vo+wpbpUs2IbVHRroJXoBm+dvvYrG9rsQqMty7vWRdmStdJUXLklIiqIX7HxJ5mF3Ut30JWZqSXqVuqQdF80SOrE1X2Iignh7dQ8jXpoiJFhTuRIdcbZ3gNO9qVUe3FPN9MRFKocodA7CAx9gCBVB0hX5pYCYQSrKuMTFROmLHoYpwOjo8PYa8oJKQZ1qIWEa2flDFtrR44CMoMGqVD0RJ5iRHTajUVPXjcaK4tiaFC5E9yLV+ft6w9OsCIib1hPWilP8oyv3j8Or3vHub+ysFFUjWBqKLIsXqysWsgolmXvNjPyc4QttZXaFdqmqFuUpj9z/Td2GjPCUkXRZV3roFyJWnBUiiw5tx+eZecsJ9FlMZsScLQrxcqxuFKSqc+th+RE8iHlGBB6l9tJ3YrtOeIno3f88m54K+chI55mPUzLGJJMwyL91XXfUUvu0+V5DV2zuZmlljXRZU/M1SdlTSgrYW6qtjlzom2rJS8zJ+Ts+Ife52dLDmJG9T83GFSfYEYG8tGjR8ozO8q/PPKsRjXqKaWi0kZVu7FRJK/x3M3flXFO4FcAko941KU8/1FGu3D34xiKEUwLejeNjKKzihSLF/PgephetJcReSlDF3t31PHswIZEDzmGZ28cSJF6IqeyTInqyvjVRknHClqpDhodfMvnLBvRvB5YRFG1s7pG+hWi9NJkemjQz8Wbf2ZpBHZ+1MO0jGFy/ENVZBtMRjHzdHle4aB0ip21C+vDYjbFlW50hoNyPnLaJZUTHqe977ET46c+s5v2zikyMCYXPM1GQ300Ncq34aHXqbnre6FI/UyYIRvBvOJpyJCcsTqe7ZL6msmQ0G+1BoX78MCx5KNuCUpV3fI9hzvK+D2NAVTpQREIGW5Kp+n6jzzUNXpn+13c/K6HydPldN3kkKdGny4no0jp32Dl+OYEitDIyFG/KAUA9Ldp28bKQTsibSgzR2l4HkGtfcbyyGltWxkqHkWtfcbGRcPByb5QtecsG0ETExO8PHoinm/eCqampjh/4Ry+WfUlHj7U9Zc1a9oCY0ZN4OO2/rARu/f8xOVlPMph2tQZ2LtvF379bS+XFRXyo9FQpW1U5UX16YLrKuK7poxfYUx5ZoQYwdzzNGVIr/TUKt8W1pb2WsljKGVFo6Vv+pzONGVa0HnW9TApXU6p8mLKOCrDnh9ERAUjNMofoZF+CIsIYMeBnmVOR6oXtvacZSM4bMgodOrYDdt+3AQfnwcY+NIwBAcF4Z25M3j/wo+WwOv6VQSpshbKUM5+ZzrCwkIx+825/FuPH3w0FwkJRev3HEV55w0ix9zztGVobGSCSh6NUaNsSzxCIu48vMB9fU+rn+ZZUNDqIelNSvvq+pB16fKcvuJDr+uEKUMXFuGPEK0vktZD1Sf9CH1eUmSN4Buvv8VR3ocfv8fbZARfaNMe7//vHdy5ewtLP1uBM2dPwc/PF+3adcL7899G82Yt0V6tL/70Q1y/fo2/V5QQ5Z03iBxzj8gw94gM84bCJscsT6q7cPH8JANIeFashODgYNz31nmCZABbtmyDPn0G4MKFs7Czs2cDuHfv7iJpAAVBEITCT45mlu/Vsx+qVK6O3Xu2J6U4V65ehukzJvPyzaqvMOil4bh//x52qWMEQRAEoSCS7dGhZAD79x2EH37cgm0/btRKU9K7V3+0btUO8z94F106vYgO7bvA398Pny1dmG5UaG1tDWubnM3K8KxwcnJGYGDhHgxQEBA55h6RYe4RGeYNBU2OkRGRiIxM/1WTbBlBGgE6cfxU/PX3H1i+YqlWmpJqVWtgyqTp2LRlLQIC/Hh9xcqv0LNHXzz09cHSLxZrRxZ+pA8hbxA55h6RYe4RGeYNRbZPMCsGkAbOjBg2Bhcvn8efhw7C3NwC8fEJCA0NQUxMNCwsMv/FFkEQBEHIL7JsBPv1HQgHBwd069oTu3cc4GXzxp2oX083CwIxasQ4mJmbY+26Vbx9zesqIqMiMeONt+HpWQVnzhTdX6gXBEEQCh/Z7hPMCBoRSu8GJoeiwypVqsPf3xe+vjn7tYOCiqRP8gaRY+4RGeYekWHeUGTToVkhtQEkaPToxYvnipwBFARBEAo/eWoEBUEQBKEwIUZQEARBMFjECAqCIAgGixhBQRAEwWARIygIgiAYLGIEBUEQBINFjKAgCIJgsIgRFARBEAyWPP3FGENDfmEibxA55p6iKkNTcytY2jjAytaBP/WLfttCLdY2jrDg7WLaPkfEx0bhvtcJeF/7D95e/+HBjdNIiI/Vzpo2Ug/zhsImRzGCuUAaTd4gcsw9BUWG1sVc4FCiPBxLlIVDyfJqvSwc+bMczC1ttKPyn4SEePjePs8G8b4yjPevHUNUWKC2V4fUw7xBjKABIY0mbxA55p78lKGNfXE4uOoMnENxZeTUejGXMnAu5cmRW14THuKLmIhgRIcHIyoiRH0GIZq21RKlfdL+R4mJ2jd0OLpVRGnPBijl2RDFipfRSh8T9PAmHlw/mRQxGsUFSj3MA8QIGhCivPMGkWPWyG/jkxNioyMQ4nsbQb43EeRzE8F+av3hLYSoJSLUTzsq/7Gyc1IGsRFKV1ZLpUZwLV9H25N7YiJDcPnoTlw6uoONaWGF6lD5Wq1RsW47tbSHhbW9tid/0Ds7UcrZic7A2eF13heCuJj0J8vNKmIEc4Eo77xB5PgYMXT5h3vlxsogNkQpWio2yBOlH+J3VxnEHbjw9zYE+97SSgsu5BxUbtgFFeq0YwNY2PhkdDltLeeIEcwCxd2rKmVUkRWSs5sn93W4lK6cK6UUHuzDHk9UWID6VF6Ntk6fkRFB3F8RTZ9qHy1xSvEUBAqSkn5WnmNWMbO04UEatFjaqE+lcGgQh6Wtg1p31n2qfcYmpny8iakF3CrU5fW0yMj4WFk8Ekcil+TUGatQpy2qNu6hlu5aiY6Ht86xQbz073ZEhgZopc8el9JV1DW/gIr1Oqj6Vk8r1REW4I2r/+3B9dO/4d7VY1pp9siJHM0srHUDm6itWGufNMhJLfrBUFRmxcfo1k2MTfHVqymvPyeIEdSwdSgJJzcydBVYubuUJsNXHvYu7toRz57kSj+GjKam6J9Q+knGIGdKvzBEI0WVnEZZEk3nntzKkJyeSvU7oVrTXihb/XmtVMftC4dx+dhOZWB+fiYOLUW9ZKwrNej0RP+oz80zuH7qV2X4DsD//mWtNOcUtrpYIIzga6sKdtog1P+eUkQ34H/vCiulQG8vtX0TlmYJOXrYKSMEXVTwZITgxJEDHUMGuqDwNFJh+eE50lB622IltG/nH48j/kD1qaJ7Xk8e8at1zXHJTcQvRjD35KUMyZGs2qQHqjXpiRJla2qlOi4f24UrKkKkSItSsJllCmg9r/XAzXO/w+vEL/A6/SvXzbxEjGAOKAhGkJR7kM91tdxAwANl5EjB+96C750L2hFPkp8POy2ln0Lhp1L6tE4NMSfkd5+PKPDcIzLMPU9LhpRdqt60Ny92zqW00vwlJjIU107sw/Wz+3H7/GF+j/JpIUbQgBDFkzeIHHOPyDD35IcMS3k24OiwSqNu7NhSdoAzBfQZRt0YuvEA3KWhlsgIrVyfKcjHPu2cIkbQgBDFkzeIHHOPyDD3iAzzhsImR/ntUEEQBMFgESMoCIIgGCxiBAVBEASDRYygIAiCYLCIERQEQRAMFjGCgiAIgsEiRlAQBEEwWMQICoIgCAaLGEFBEATBYJFfjMkF8gsTeYPIMfeIDHOPIcvQ2NQYLhUdUKKKI1wqO6J4JUeY25hpe58+ifGJiA6PRWx4HGIj1BIWl2w7FjHh8WpR27RPfdI2fcbHJmhnyDliBHOBKJ68QeSYe0SGuceQZGhhb44SlZ2SjJ5TuWIwNjHS9hYeNg7fi8SE3JkwMYK5QBRPSkwtTGFuawoLW3NYKC/SXH2SN2lpp9b127Zmar9uMbcxh5WDhfbt/CMqKFp5mXGICY1RHqXmdYbFJHmfMWHkaar9vB6H+Oh47ZsFl6JaF3NTp7L7nB3sHIpsey5W2g7FlbEjo+fs6QB7Vxttz2PCfCPhfzUQfteC4Xc1GMF3Q7U92SMndTH5c6bnqv984jnTPipT22S0t43fr50h5xQII1itawWusFHBMWpRFTdIVdSooqt4TC3Vw1YPkhs2PVg7c1jSQ1ZllnYW/Mnl9hZ8nLWDpfZNwRCgdqBLAZGCpvSPLgVEqaBopayTUkLqk1NE4fFwsM+ZApe6mDfk5JlBBV7PUvYBN0LgdyUQvrRcDVLOQqy2J3cUNoesQBjBqzsCtLXcEwdTBCXaISDBDoHqM/CRPQLUZ9AjO4QmWmtHCU+LJGWgGj41+LSUgT63n1sFnhOypPRVmW4RpV8QyEqdou1Hj9JWZdTfZejPOS4yThfhaQbP93LeTqSbHDGCOSAvjWBGFCQDmZSqoZSMWopCSi6nFNVUXk7IcvpPnxbKg5Sy1EUdOc7s5OKZFUXZixF8xpR0TkRZtwSUc6PPeJQtpT5pUWWW5kXqVoUCTnSMEYJCjREURp+69WBaD1NlapvXaT/t09bpOzkhp4rH0uIRHO0T4WhHn7p1B1q3U2Vqm9dpP+3T1uk7wmOiY40Qop5fcLju+erW1Sc94wgT3afafrzPmD8pHZpvso8zBSLNn1wi0ijTL/SdAk7ls4e1tZxTMCLB2i20NUEQhEKGaQJgHQsj6zg8sorldVjGAbRuoxb6VNuPqFyt03F8zCNlBdMyPoXcMOUnYgQFQRCETDEyjlfGWhlgk1gYqwWmMTBW21DrRuqT16mMtnm/+qTvFHDc1hbX1nJOgTCCD4b6aWuCIAiFjEcmeBRvjsR4MzxKUNFavAUeJap1VUbb/MnbFoDa5uNUmZGRUr1F0DDlJ0XGCBZWZEBH3iByzD0iw9wjMswbCpsc5bdDBUEQBINFjKAgCIJgsIgRFARBEAwW6RPMBdKHkDeIHHOPyDD3FGUZGpkZwcRSRT2WxjC2glo3VouR2laLFX2qbVWe/JNIiE7Eo5hHSIyGWh6pbVpPRKIqS4hSZbxP29aOcXZ0LlRyzLIRNDExwbAho9D2hY68fvrMSXz9zVIEBwfz/mZNW2DMqAm8b+sPG7F7z09cXsajHKZNnYG9+3bh19/2ctnThB62sQU9RHro6oFb6B50UgVI2qZP7aFb615QTohI1D3IKPUZRQ9XLdonPXxdBXhc7uSQs4dtTNfIFe/xtaSskGqbPq3U9aprNLUpPAF7QiTJRzUKJcckeWkNRd9IdA2GjqF1wDmHchQek1MFntO6mJPn/CiuYPvbOZVhbnSOkDtuf5GzH/lOTpaN4ID+Q/Bi11748afNCAsLw8ABQ3H9xjXM/2AO71/40RJ4Xb+KoKAgtGjeCrPfma6OC8XsN+fC2NgEH3w0FwkJac/9VHaSvbYmCFmnoCviouzsCIWPzJx8+nyU3rRERqqepmvcdQ7AszDu+WYEKbr7ZOGX8H5wHx8tfJ/L+vR+Cd1f7I2Fi97H+QvnsPSzFThz9hT8/HzRrl0nvD//bTRv1hLt1friTz/E9evX+HtpkddG8LFypIf7WBmmVo5I5wd3jUz0D1f3+TQUVlYqZJJip/IC7kUTKTxibiAkq4LVaIQnKYrKMb/Jks6hdS6jfQU/Ms4phS2tnCUjWL5cBbw5cw6nNH/asY3L6tapj2lT38SWreuw5+ednApt2bIN7zty5DB+O7APr097E3v37sauPdu5vKgh/TB5Q07kaGSaTNHqDa765P4MbTvJiVHHGNE+VWZkop0gH3iUoBkWVoJkYHSfyQ0MR6laOR2XU8UodTH3iAzzhiJpBOvXa4jXlMHbum0jduz6gcuor2/2m2QYdyeVlShRkj8DAvzVvnlITExISpcWRaTR5A0ix9wjMsw9IsO8oUgawcqVqmLGG29j167tSQavZo1amP7aW9j+09akMj29e/VH61btlAF8F106vYgO7bvA398Pny1dmG5a1NraGtY2hWu+PydHJwQGPb15uQwFkWPuERnmHpFh3lDQ5BgZEYnIyEht60myZAQpwvvfvI9x/L+j+GbVV1zWvl1nDBk0HJ9+/jGPFNVTrWoNTJk0HZu2rFURoR+vr1j5FXr26IuHvj5Y+sVi7cjCj3iOeYPIMfeIDHOPyDBvKGxyzNLoDl/fhzh77jSaNG6OqlWqwcHBAV06d8PDhz44d/6MdpRuAM2IYWNw8fJ5/HnoIMzNLRAfn4DQ0BDExETDwkI3kaQgCIIgFASyPMRx3YZvOZL7YP6n+HblRtja2mPj5nUpXnsYNWIczMzNsXbdKt6+5nUVkVGRnEr19KyCM2dOcbkgCIIgFASylA5NDkWBxkYmCAwK0EoeY2dnz+8GJoeiwypVqsPf35cjyqIE9WNmlGsWsobIMfeIDHOPyDBvKGxyzLYRFARBEISigvxEhSAIgmCwiBEUBEEQDBYxgoIgCILBIkZQEARBMFiK5MAYGpH68uiJeL55K5iamvIPfH+z6kt+r5GoV7chhg0dhVKl3BEVGYm9+3Zi89YNvC81NBp23MuT+bdSib+PHMKqb5cjKiqKt+m9ybEvT0Lp0h4ICQ7i10Z+/+M33peakiVd8cqEaahcqQqio6Of+LvZOVd+klxe4WFh6prXJU2LlVrWN25ex7KvP8fdu3d4f3Ky8lxGjxrH6x989B7u37/L68nJSEZ0/oym+3pWtGndHgMHDEExB0f4+T3E2nWrcfTYP7wvdf3K6Jozq4sZ/Z3UZFbXaMaYPr0HwNLSMsNnml9kdG952Z6T/52i1p7zUy/qoR9VGT50NH75dQ/Wrv9WK03Js5ajia29w1xtvcgwdPBIVoQ/bN+MAwd/RZMmzVG7Zj0WHP3m6fTXZyEoKBDfrfmGhd6504sIDw/jqaFSM/mV19VDqM4P8NTpE+igHqqbaykcO/4vV4RZb87l10LoXLZ2dupc3ZTyvof73ve0M+igCjjzjXfUd5ywavVyHkLcpXN3xMbE4uq1y9k6V35CFfSN12cjOCSIrys2NgY9uvfh2ULu3L3NP5zeulXbJFk3aPAc6qvGdFDJ+lGqWToyei40VdfLoycgPi4OFhaWOHTod4SEpjQEmcmof7/B6NTxRfz40xZWkHRdnp6VcfivP7Qz5D+1a9XFKxOn4uLlC1inFLejkzM6q2s8f/Es18HXp81CJc8qSfWLrrlMmXI48s9h7QyPyaguZvZ3kpOZHFu1fEEpwzH8gxd7ft7Bz7RRw6b459+/+PnnNxndm52tfZ615+caNcX4cZNw8dJ5/jv2xRxUferKP/VI70gnpzC25/zSi3pId0wY9yqcXYrjxg0vnDz1n7bnMQVBjkUyHVqypBv/ws2P27ewMqHF1c2NH3RMbLR66Pux9MtP1AP7B999/w0CAgPg4VGWv9uyRRuMHD6WhU+4OLvg0F8H8dv+vbzQeatUrsb7WrVoC1sbW2z7YROf6+sVXyAkJDhpNo3k5yIvy0P9fZpsmK6HvCYvr2tJx2Z2rmdFyRKuSEhMYFnSdf2wfRMiwsO5ARC3bt/Et6py6mV94OAv6n4dUbqUB983eZ404TKR0XNxVN/57vuVKRpR6u9nJCNqTM2aPI9z53Xnp2e1Z+9OVFbPin7n9llBXnVQYCC2bNnASmDPnh1cXrN6bf68pBT7V8s/T6pfR48fUfLQ1UUPjzIYP3Zy0vVnVBcz+zvkuJCjQXLKSr194OPNbYOe0eYt61C8eHH+xahnQUb3lll7zo4MQ5XTtXv3dpYH/Z0flHyiVWRTvlxF3p9choWxPeeXXtRDTmniowTcu3dbK9FR0PRikTSCCxfPx4cfv6dtAZ4VK3F66b73XQ79N2xck5QCIE/P3s4ed1VUQ1CqgLwlN9fSvD1z9jTlgazkdfoxgLJly+GelqajChQaFpb003HkrXh731cGwJ23k5/L3d1DeVdRuHr1Eu8jbty8BkdHJw7zMzvXs4Iq98RJo5O8ODJ+VlZWuHtPlxrTNwKCPL+GDRorWQexrMuVraDuv71Sns14f0bPZfmKpaCpupKT+vsZyYgMh6W6rivJ5Hv9+lX+LFu2PH8+C/b9shuvvjZeRc23eJt+jN7ExBi379zkbVJI/504yuvly1dErZp1OMImKAKi+lO7ti7llFFdzOzvUITZRi3OSnllJEdS8CWU4+N1/UrSr0HdvHVDRYCxcC/9bOpiRveWWXvOjgwvX7nEaTiSBzsLrV7gn368ees6708uw8LYnvNLLxLNmrZEvToNsEXJ81FiyoxQQdOLRX5gTK+e/ZSHUl15GttT/MRbjxf7YPu2fRg7ZhJOnDyO/SqCIRZ8OBdDhvdhDz01gwcOh0MxR+zc9SNvlyhekifmTX5e+lUcUxNTXk9+Lhfn4jAzNVPHJvI+IlB5t5T+MzFWiieTcxUEyHMb0H8wG8D9B/ZppTpoUuVVK9aril0KGzZ9z/dB/VsvDe6FTz77SDvqMek9l+Sk/n5GMqJGY2Ntk6LBkXyjIiPUfjOt5NlSUSmdF1/shf9UfUv+o/Pkia/+ZgPLMCE+gX98nqB5Ovu91I2VU2pS18XkpPV3pr0+EeNfGcnyykiOFMGTHOk69FDfLPURmRSAupieDNNrzzmRIaX4d/z4K/eL/vrbz+wIEsllWNjb89PUi2QUaSYhOpZS6qkpaHqxSBtBetD9+w7iiYBTPwya/qlX307sHVHnLs2XmBGUUnm+eWtOE+grQrAKy1Pj4OioraUkVHkwcfFx2pYOe3t7mJrpFHR2zvUsIAM45535as2IUybJKyUxeepYrtjUn/LatDfZA0+PjJ5LRmQko/DwcETHRPO6Hnt7O1haWmlbzxZS3rNmzsGdO7ewUpuJRQ9FOKNeHoQJk0YiLDwUb896j6Pq9EirLurJ6O/oyUiOQcGByjNPKUeaRca8APz4fUb3lhftWc/K1cvQo3cHTvN369qTB1ulpjC356etF3v16KuiSDts3rKetzOiIMixyBpB6kfq0+slfsjbftyoleoadPXqtTjdQfz195/s6en7YdKCKg0NFqD+sOSVJjgoEFbW1uzJ66E+NOpPSQ11OFtaWPLf11PS1Y3De1KC2TlXfkOyoo5wO7ti+OKrT5NSJlROstTfE6VWft67U3lx8Un9KKlJ77lkhYxkRAN3EpVhTi5fNzd3GBkhKSX4rCAHYtLEqepZh2DJF4uSRtBRWpn6qvT9LDT6cv+BX9lwp5fuSa8uEun9ndRkJEeqjxGR4Up2pbQ9FIGXgIW5hdp/XyvJf9K7t7xszyQPGqREkJNH/VSUmk4rnV5Y2/PT1ouUwmzVsi2Kqzqz8OMl2LxxJzzKlOPBLG+8/hYfk5yCIMciaQTpQU8cP1U9yD+4ryk5dWrXV572POWt9Odt8rgrlK/ICpxI3QGs95q2bNvAEwgn58i/f8HYyFh5iz248tCxpLxOnDjG+5Of69+jf7PX06Xzi6z86Brr1m6AU1pfW2bnelbQtcx+cy4rgg8+mpdiUmRSFCOHv8zeuT5yqV2rDvejBAT6830nH9iS0XNJi9Tfz0hGlCKhRpvZdF/5DV2HLoIG5r3/VlI9IyhtRPNt0kJ1gu6JjGJiYiJCQkOeGNSRUV3M6O8QyQd1ZFbX/j16BJUqVWEFp9vfn6dC++8Z1cWM7i2z9pwdGbZq2QZz3/2A75ugekQKlxQ1kVyGhbE9Z9T+8kov+ijjtPizD/H+/Hfw0cfv8eLtfReHDv+eFBkWNL1YJN8T/HTxV0kenZ6IyAh+IGfOnsK4lyehXduOStk84rD75k0vfKIeHHnipPCrV6vFs+LTw3lvzodPpKZI4c59bzZ7KpQuocmFzczMYWxsjN//OIAvl33KBiL5uShVQEOwX5nwKis/I/Vgz5w9ic+WfJxU0TI617Oia5fu3EdC15Sco8eOcEWn0V1jx7zCkUNCQrxaErFj5zas37iG0ylvzngHNOKT+vUyei76gTf0t6ghkHydnJxSfJ/ISEbUqGZMf4cndgYewT/AH18t+xynTuvO/SwgJ6F3rwHqeauQNBmUiqK0G72XNkIdQ+kjIiIiEmvWruTBRiT7EcPGYvuOrexpZ1QXaQBRRn+HZG+lIsx3573J38lIjqRs6NWNpk2ag15ziYyMSrqmZ0FGMvx2zYoM23N2ZBgaFqyizdfRoH4jlgOd67SqO/o2mlqGha0956deTA71ddP5qR4SBU0vGvQsEuXLVYDPwwfppo2yA6UByAvKyoMp5Vaa+17S+7vZOVdBgQyQjY0dD6LIDzKSEV1LetN9FVT06SBSJPlJRnIkz9zRwQneD55dGjQ75FV7JieA0oCUCjXE9pyXejE7PCs5ylRKgiAIgsFS5F+REARBEIT0ECMoCIIgGCxiBAVBEASDRYygIAiCYLCIERQEQRAMFjGCgiAIgsFSoIygrWMZdJqyH01f+hLGJo9fzi5Xrw+6Tf8bJSo01UoEQRCePaSTSDe1G78DlrYuWqmOUlXb4cUZ/6LNmC0wsyqmlRoOtTrMyNN7NzY2ZRtham6jlTwJ/a3mg7+BU+k6WknmFKxI0MQEFjZOKF29Iyo0HKAVqmIzKy43Nn32P+IrCIKgh3SSmWUx2LlURPFyjbVShZERyjcYACt7V5hbF+NfQjE0zCzs8vTerZ080Hb8Tyhbt5dWkpJaHWaiaovx6u/aKuekGZ4fslI9G1ttb/oUqJnlza0dOeqLCLyJkhVb4MHl/YiNDlFWvTZcK7XE3fN7EB5wi2+sSrPRqN5qEoqXb4pQ/+uIjQxmD6FO57dh51QWpZUXVqnJCEQG34e5pT3qdnkbHjW7ISL4HqLDfPnvJT+PY6maCPK5gITY/P2VBEEQCi+2zuXgWrE5YiL8YVWslNJRu3XlSgdVbTEOMeF+eIRE3Dq5DQlx0bCwdUattq+jcrNRsC7mhpCHl5EYH8vfSU+vObhVRx2lvx7Fx6GKUvLl6/dDlNJhpNsKMm5VXoCNY+mke08ORXXlG76EGi+8qiLm9qyTI0MepLmPdHZ8TARqtX9D2YJasHFwh5VdCfjefDwBNzkdYb7X1Pf6K9vRHJZ2Ljj183uIDMpcRgXOPSEBeF8+iMRH8ajRdirfXHLI82o+eCUqPjcUgffOwEZVvDajN6FYiSpqn7nyAJqgWutJygNzU0bVAc+rY5sNWaEeQiyc3eui2UvLuPJRhWsxbI2KOAch8MEFVemeQ9tx2zncFgRByCqUqQoPuA1nj7oqIqzAZe41O3MEFOJ7hbcJ0i1tx/7IUQrpLtI9pINIF2Wk1yyVwi9VuS3qd/8fjE1MleEtixaDv4FLmQbamQsZSqc37PkhaiujFuZ/E3iUgBbDv4Nr5da8u07nt9hRCPG5zPueH7IKxdxSzlqfGvqZRLIXjqVqsYNgbGyGOh1nZykVWyBj9Ohwf1z7exVKVWvPEV1yEuNjcOyH1/Db8hdx/uCnOLV3Ht+wcxndzNHEw+t/4diP03Fi51skHXj9swb//TQTp/bMhamFNexLVkHpah2Vt1YGf28aj/O/LcTfG8bzdz1qdeNPQRCErEI6hyitdBaNZyhdpR2CvM8pXfb492vLURdPYiIOrRnGuuufLZM4YnT1bJW5XlPG4OyvH6ljXsc/myepICEBxVwzNgwFlkeP1L18iF+/7IIz++ZzxBYV8pCzfYR9icoIvH8GFw5+pu53OvYv644g5RhcOvQV4lREeP34BpZRchIT49Xxn+Pgit7KsN7A3xvH4fj2GYiLCtGOSJ8Cm6i+cWILAm6fUCHxNMTHRiI+7nGakrwjiuh6vnUaHSbtg4W1I4yMdfNgEXHR4fyZmJhAkwkgMUE3aSNVHNombJXHRunXViPWosesk2g/cbeKEEvBSkWJgiAI2SEi6B4C7p5m4+dStqGK1srj1ukftL06ihX3hLVjaXSc/CvrnJbD1/BYB9JDvD8DvUa6LDZKN6uCXq8VZkjPNug+H93f/A8vzjiqIujybPSJ26d/RPHyjdF7zkUecORWWTkJyshlRlSoDyKC77OjQM8jq+niAmsEyTM6+9vHsLB1gXuNzkkPnVIAz/VZzF7W/q+645elHRETGaTbmQ1iVLQZHeqLv9aPxYFv+uDAij7Yt6Q9zh/4RDtCEAQhazxS/26d2gprpzI8riE60h9+t45re3XERAQgxOcK/lg1kHXO/q97Ye/nbZXS355neq0wQN1RZOwT4qPx5+pB2L2Q+j+9tL1QcvwBP/2vDutkSifX6zoP5er21vZmgooyyRiS/cgqBdYIEsEPLuL6v2vgVqUNTMx0I0Mp/0743TqG8OC7KFWlLcys7LksOwTdPwsTUwu4eNTnwTbmFvZo0vczOJXSTb4pCIKQHcjoxUYFoUzt7vC58gdiUxkxGshh4+QBW5dyCPe/qSK/Smjc5xMe6JFXeq2gQdEd9YXaqkiPFmuHUtz/Sfo84O4pZeSuwlk5ANbF3Pl4GlHaZsxm7hcM8j6PK3+vRGx0KEzNrZEQE4m4mDAeXJSXFGgjSFw7ugbB3heShtn63T6OgHunlCfxFfrOvaoqXDckxEbyvuzgf+cEzu1fxCOQ+r9/E23Hb0d44G343jqqHSEIgpB1yOiR8YuPjcCdc7u00sdQ2Y3/NqLpgKXo/79b6vMLZfT+RYjf1TzTawUNGijUbsIOdJn6Oy8thn3LRu3uud2o3XEW+s67htodZib13ZGRu336J5Rv0J/1MnVThfhcwp2zuxAV7osHVw6iRptX0fblbSneJc8NhXY+QX0ePbW3lW2MjDg8j40M4corCILwNKER8Jb2JXkAYOq0XZ7ptUIAvdJmZmHDozmfIB/1skyqKwiCIBgsBT4dKgiCIAhPCzGCgiAIgsEiRlAQBEEwWMQICoIgCAaLGEFBEATBYBEjKAiCIBgsab4iUaJESW1NEARBEIou8p6gIAiCYLBIOlQQBEEwWMQICoIgCAaLGEFBEATBYBEjKAiCIBgsYgQFQRAEg6XAjw79aMGn8A/wx8LF87WSJzExMUElz8rwefgAwcHBWmnaDOg/BL179sOKlV/iwMFftdKiR6eO3dBL3eeXX33K22NffgUrvvkSZ8+d5m1BEJ6kZElXvDJhGipXqoLo6Gjs3bcTm7du0PamxMOjDCaMexUVyld84ljSScOGjELbFzry+ukzJ/H1N0uT9FO9ug0xbOgolCrljqjIyCe+O/ONt1G7Vj14Xb+GRZ/MT/reqBHjUL5cRSz4aA6ioqK4LL95sWsv9Ok9AJaWlrhx8zqWff057t69o+1NyYB+g9C5U/c0j61apZrSS5NQurRHmjLQy8/U1PSJ7zZr2gJjRk3g47b+sBG79/zE5WU8ymHa1BnqXLvw6297uSwzCnwkaG1twwLMiNKlPDB1ygy0atFWK0mfP/7cj42b1+LEyWNaSdHEwtwCNkp2VIFosbbSrQuCkDakUCe/8hocHZ2w5IvFOPzXH+jZox8r/dTY2dnj1ckzYK7aWVrH9u0zUCnwTvjxpy1Y/d0KVKlcjY0rQYp64oRXERERjsWffMDf7dG9Lzq278L7X2jTAR7u5TD3vVkoZl8MHdp35fLnGjVVSxPs/WXXMzOArVq+wIEEXTPdN8lh6pSZ/JkakkW3br3wu9K5qY+ld9FJfpGREWnKgP5G+3adWX76706e+Bo/I4Ic/KPHj2DP3p38Hf3fHzJ4BAICArIV4JjY2jvM1dYLBORdTRz/qvI0+qNMmXIoWcIVEUpQhw7/DisrK+UdjMbgQSPRskUbrkRxcXF4ecxElC1THu6l3VG8eAn2uurXa4jx46YowfZSXl1V3L5zk48v5VZaVc4OuHnzBpydXFTFnAo3VzeMGP4yLCwscPXaZe1KUjJS7W/SuDlat2qrHkB/xMfHq8pclv9Gu7Yd1XXEqr9xi4+lB0UPadTIcapCt1clj9Tfu8776DyNVEVu1uR5DHxpKHt1Fy6e4/MRNWvUwivqYXfr2lPde0l0f7EP7FVDoOvK6LxEj+592DuiihobG6POXQH//PsX76MGFBgUqCrJyCeuVxAEoEH959BeKdQfftzMzvKp0/+hbu0GqOhZCb/tTxlVUBtrUL+Rik6W4OSp43zso0ePEBISgrv3bnM7vH7jGlauWoYbN7xgamaGZs1awsvrMkLDQmFkZIxNW9bh6tXLOHvulDpfWzZsJ0/9h1o16qBSpco4+Pt+NG7cFH6+D3Hn7i3WNZcuXcD2HVu1q8h/KDojnbvokwW4o/RHmLqXli1aIzAwgO8zOaSXr1y5jK9XLFUyuaN0lReMVPnNWzeV7izDuvS3/fvUff76hAx69ugLYyWjTz77kL9LurlWzTo4ffokQkKD0V0Z1wcPvBEaGoIKFSvhyD+HlbPQRUXYDTjLFxDgr7uILFCgIkFKRbw96z02hCS8qlVqwN3dQ9sLTFLGgYzfYWUQw8PDlLGYxqkIMnAxsdG4730P9+7fQ4vnW+ON199SRsNYVc5TqKmEN2nCa3wOOzs7Njz0SUvNGrW54t+5exs+Pg/4mLRwdy/DFT8xMZEf+OiR4/HSgCEqTPdSD8tIbY9DRfUwiJdHT0Q/5Qk+fPgAQcrwjB3zCoYq40PQedoqT48M2311rW1at8MEVbmJ2rXq4s0Zc2ClIl+qME2btEDDBs/BtaQb78/ovFQ5Bw8cAT8/XwQHB/J5TU11XhNBDkSnDl3h/eC+TnbK+Kfl4QqCoUK6Jjo6ShmmS1oJVPu+xpEhpeySU1Y56NFKYT/XqDGWfv4NFn74Ofz9/dh4knNsqdrblWTnuX79Kn+WLVtetV8fbNi4hj+JTh27wl5FMneVDiJOnT6hDCow5535sLayxhHlyL7UfygeKd2zXn3vWUFOeAkVlHhdv4KEhAQuu3nrhnK4YzkASQ5Fu3a2dggOCcT7cz/GV0tXK+e7k4rcdigD5YdrXlcRFByEOnXqsW5q8XwbPl4vg4vK2BdzcGCdS/vJuAWr4+973+X9Z86eQsuWbdCnzwBcuHCWI8H27Tph797dStbX+JiskqNIsGJLd7Sd+RzqDayK2r0rZbpUaVcWMWGxCLodqp0hbbp26YFqVWvgsyULOad7+fJFjr7o5ikS7Nd3IHsf365ZwZb/jz8OsDADAwPR5Llm+PvvQ/h5304+5t+jRzhPfFpVKBJQrVp1cObMKVhbW3NUdOz4P/w3ych8+90KbN22kQ1EetDDCAj0x4cfv6fOf5sN7bHj/7KnR0axWbMWyoh6s5F8SYXy+37Zja+/+RJ/HznERozSGEfV36S/Fxoainnvv6Xu4S+UU9FaubIV+H779x8Mh2IOmPPeLE4P0AOna6WKFqI8nvTOe15FkgP6DeEIePGnH/B5nZ1dULFCJT6OIDn+uH0Lvl+3is9dt47ycCt6PuHhCoKh8nzzVqotlsfvf+znaIOgDFPFCp6sW/RlBPW5k66yVYp7v4pmipcoycbMz98XxsbGaNXiBaWczyUZQkqbNm3cTEVL15PKerzYBx8u+FTphMaqnR7G5q3rdNGk+jvUzs+cPYkNm75HlcrV0blTN6zbsCZF5ie/8XAviw7tOrN+pWiNoEiwvTJuvsr51pcR5ctX4LRuJc8qfL+Xr15E69ZtUaN6Lfx56CD3oZIzTqlMyu6RfiL9tXb9tyyDW7eu83f79x2kdNtgdgbWrF2Z1CdIf4t0G/X7/fX3n5g4fipHhStXL+P92SFHkWC9l6rCwt5c28ocOpa+kxnkDZFQLyqlTlAKgFKYeijPW6d2PWxavwMLP1qCevUaaHtSQp7Di117YsWy77Ft8x4WJIXWaZGQkJjib2QEGbj0MFL/TE3MOIdvpCLDy1cuanvAD44aQYniJXg7JiaaP4ngoCBtDWwAKZrVd4KTcafKQmR03gqqwhkbG6VoIL6+DzltoYe8NUrT6LmlDKulRcZ9rYJgSFCaMi7+cZsh7O3tOZWZFuERYZwO3bHrB+XUzlbt6y6aN2uplHs4opO1ccLe3g6Wllbalg76Xq++nXjQX9069fHa1De1PaSXEtj5pWxVXxXtkKInJ3zpZyuwcd127lbJb4KCH+sjPdS3Z25hoW2lhJwBCkaWfLGII991679jQ0ppTcp6UbqUgpkevTtg/gfvstHTZ8Uo60dO/Iw3p6DfS92U0TuOsWMmJWXbCNJxtFA3EHWDkQEkuZB8SE7Jj82IAjcwhgRKgiW4E1Qpfj0U2Q0eprynj+fxzVN6kPr3UkOpyqZNmivP6TsMHdGXPYiEBF2fW35gYmqqIrHi2pZyAiwtERMbozyVMK0kbaji29s76O5bQelcqkh60jtveHgEN1RqsHqMlFEk06yHDKip6ePGbKUiYkEQHkNdDOQY6vUPUdLVjR1zcsiT8+DBfcTGxCI8TNemqe2Gh4dy2w0OCUKi2k5+Hjc3d1Zl1HVD5dVVRKRv52TgaNQ2pVFTM1RFSRGqfVMalMYD+Po9xFfLP+fIicY65Cckh4jIcHUvpbQSZQSV8aFBeA98UmbR/Pz9VHARwdGeHpIvBRKk06g/NS42Tun0HSy7o8f+YRnQACJKPVetUp3HM1y+con7Cffu283nqFm9Nn/qoWi8fdvO+OHHTSjuUlzp/eex+NMPOXPWpXN37aiMyZERPLXpMmJCY7WtzKFj6TuZQVGOjbUtpyUI6tfS94c5OTrjf+99jEEDR+DEyePYuXu78sTCk0aOkmB1ih+cjw9VlfPQ4YMcAZHXkdwAPE0oPRsWFsJGmCq5g4ODWm8G34e6zu2MOHfuDOfW+/R+iY1dnz4vwcHRifdldN6jx47ggbc3p1WonCLhRg2bwMz88T1TGrhjhy78XfKQ6tVpkKLPQhAMnX+P/s3RYJfOL3IbomH4NDDmlJbmo/EII4eP5TZGOoj63GmQGUHdJZU8q+L27ZvsoJNCJ0NFrwHQ8V06d+M+wHPnz6BO7fp4e9Y89OrRn79LYyFobEPq17soVVirRm1s2LSGDYWViiSDQ4J1mStlUc2Tte/8giK7SpWq8P2SLqFBgpTZ+u/EMb5PCkxIbvfv32V9Tt01NMaD5EnpYhqwpx+7QWUNGjTi8yaXAX03MCgANWrU5HMStWvV4awXRcN66O+PGDYGFy+f5xQr7Y+PT+C0KF0TDabJCjkygtcP3cO2ifuxfsjPWVroWPpOZpBHdPjv3zF08Chs3bSbB3qQ90GQUKjDs2f33rxv/nsLubJRXpj6zmik4/ChYzD33QU4dOh37mTdvGEnNqjQ2MWlhBJOyjTH04Ku9/u1q7kfYcvGnfh25UaYmZnju7XfaEekz64929m4d+vaA18u+Ubdgz1CggN5X2bnpU+K7qh8zeotnFqOUw6AnsjISC6jVPKij5Zwp/S6Dd9qewVBoDa2dp2uja3//gceXEeDQHbu/pH3k3NO7625uZZmI7d9xzZ0aN8JP2zZw69o0QhH/cAValsPfX3wwfxPuU3aqra8cfM6NmY0GpJ03aCBQ7m75utl3yMhMQErVn3B3yVoYEmPHn2w79c9uHT5ApfRyMjGjZphwvhXOaq6dPlx10h+8dOOrTh//qy63zeUHt7F/ZXbftzMBp7GNrR9ob0y/s34WBp/QCPSl3y6AhvW/shyXfXt13ysXgY0sI9ksPzL71QQY5ykzzZs/F5F5db4btVm3t+3zyAcOLiPv6OH3pk0MzdXz2wVb1OgEBkViRlvvA1Pzyo8BiQrFMiX5cn6UwRIN0WVJjnkPZAw7ylvIbXnlBzyEqqokNrf35eNZVZ456330fg53QPUQ69nfPTxeyk6fbMK5bhjYmIyjQCTQ6kS/fXSKw5vz36fR5xRh7GejM5L+6hjPb17psZFZOeaBMHQoFepqA8sK+/jUfqOBsWl1lUE6TJjIxN24tOC2jj9yEfqv0N6jrJYqc9J+oGc+isqykrr7+UXdH2ODk4ZDibUk1MZEPRdGxs7jg5TQwMe9UGSnpzofZlPsADRoX1n5d2MVd6nF+7du8P5bkcnJyxavIA9T0EQBCFvESNYwKCX/Dt3elF5ey48+pNSLs9yWLQgCEJRRoygIAiCYLAUuFckBEEQBCG/ECMoCIIgGCxiBAVBEASDRYygIAiCYLCkOTAm+c/9CIIgCEJRRUaHCoIgCAaLpEMFQRAEg0WMoCAIgmCwiBEUBEEQDBYxgoIgCILBIkZQEARBMFgK/OjQjxZ8Cv8AfyxcPF8reRKaPqOSZ2WejiOj6ZWIAf2HoHfPflix8kscOPirVlp46dSxG884/eVXn2Z5pgndBMULeQLRN2dP1UoFQSBdMmzIKJ43kNZPnzmJr79ZmqleGTxwODp16ob1G9Zg3y+6WdBpQt2xL0/iqZaiIiOxd99ObN66gSf5fm3qmzz/Z3Ju3byOmbOn8d+d+cbb6rh68Lp+DYs+mZ/092kOvfLlKmLBR3OyNM1TXpP8nkKCg3iOxN//+E3bmzY0Ye5bs95TMojg+yOSy9nU1BQ31L0v+/pznjQgNWnJlibuHTNqAp9n6w8bsXvPT1xOU8VNmzpDyXoXfv1tL5dlRoGPBK2tbZJmj0+P0qU8eFLLVi3aaiXpQ3Pzbdy8FidOHtNKCjcW5hawUTKiipRVaF6vzVvXYeeuH7QSQRCIvn0GKsXcCT/+tAWrv1uBKpWr4ZUJOsWdHmTUSElbWlhxeyToXetXJ89ApFL8iz/5AIf/+gM9uvfl2eKveV3BJ599yPOU6pc7d27DWCl04oU2HeDhXg5z35uFYvbF0KF9Vy5/rlFTnql97y+7nokBpLn9Jk96Pemerqr7GDVyLF9XRgwbMhrupd1Zl+uhYKR9u84s5yVfLOa5ASdPfI2NWnLSki1Bjv/R40ewZ+9Olil9nxgyeAQCAgKyFeCY2No7zNXWCwQ0Ff/E8a+iT+/+KFOmHEqWcOWJbQ8d/p0nciSBDh40Ei1btEFERDji4uLw8piJKFumPAu6ePES7L3RlETjx01RFa8XKleqitt3bvLxNFlm2xc64ObNG3B2clEVfCrcXN0wYvjLPB3/1WuXtStJCXkzNNffwJeGKC+kJUJDg/HAx5snsaVz0ASTdI52bTuqa4rlme6Jkaqskaq4zZo8r747lI+nvxEdHc370yL5fbZp3U6VPEoxnVKP7n3YC2rV8gXExsbwpJT//PsXbG3tUtwPVaB79++wx5X6b7+gzuvi7MKyovsZNHAYe3f0vWZNn8edu7eV9xmk/UVBKPqQAqZ2df3GNaxctQw3bnjB1MwMzZq1hJfXZfj6+WpHPoa+M2niNG5Tjx4l4tq1K7hy9RIbz9at2uK3/ft4FnWadb5Vy7ZsvI4d/4dnnSf9QUvlylW5Lf+0Yxuuq8ivVo06qFSpsvrefjRu3BR+vg95EmzSZ5cuXcD2HVu1v56/dFTGuE7telj97dcqiDiOc+fP8Gz7xZRxPPLPYe2olNB9dezQFRcunFP6yZYjNKJnj74wNjJmZ+DuvTuse2vVrMOz59Ok4ER6siW6d+uFBw+8lR4OQYWKlfjvd1DGsF7dBpzlCwjw5+OyQo4iwT5tY/Dv90G4uiMgSwsdS9/JDDI0b6uwmQzhlSuXVehdA+7uHtpeKIG8xsbvsDKI4eFheEUJqEL5imzgYmKjcd/7nlL699Di+dZ44/W3lBCNcer0KdRUwp004TU+h52dHacT6JOWmjVqo70SHil9H58HfExqyAOiGd7pPHQ+Oi9dS0UlfDpH9Wo12TDRLMt8XcoQvdi1F3/X3b0MOrTrAlfXUqohqQquDNM7b81P8lxSQw9+9sx5aNOmHc8eTYZo1IjxXNkIMmiDB46An2qQwcGBbCRNTXXek/5ayKhduUINsSrmvfshHB2d+G/TOYYow0rQddFCFHcpjvr1G7FHd+vWDZQq5Y6Z09+WXw4SDIoyHmVhqRxQvaIlrl+/yp9ly5bnz9RQu6e2vf2nrUhMTNRKoaK9qwhSbbdOnXrs1LZ4vg3slJN6V+mZ5FB7b9+uE7yV7tp/YB+XnTp9Qil9YM4782FtZY0jysF9qf9QPFLnX79xDR/zLHB1c0NoWBgbP4Jmdff2vo/SSl+kBenNXj364b+Tx7irKjkXlTEn40lGkuRDxot03X3vxzPIpydb4szZU2jZsg369BmgDOxZ1qckx717d7MjkR1yZATfGB4Jp2IpLyoj6Fj6TmaQp2RhYYkvl32O5SuW4vMlCxEU9DgaKVWqNFfQ3T//xH2EU6dNwL9Hj+Dgwf2ICA/H2bOnlee1l1MP02dOwZx5s/D92pX4488D/AApX5ya6OgorPl+JZaqkPy/E0e10pRQPn7O3Dcxc9arfD7KTRM1q9fmz4SEBOzY+QOfY/4Hc7gB0APSQxV8zrw31X19hnXrv1XRbUk0adxc25sSOtfizxbg1anj8c2qr7g/IiwsRDkE1flBN2n8PHs9Hy/6HxZ98gH+PHQQRsqj0kNeEzWUlauXKY/zXy5b8/0q/tsXLp5jw50WVKFXfPMFH7fth02wsrZRkfVjB0QQijrkLFLXwqPEx8MkAgMDuS/L1MRMK3kM6ZNOKso5pNrgvXuPlTdB7WnL1vWchdq6aTdemzqTddf+g79oR+ggx5QyXpS+o7ZPUNQ36dUx+N+CdzBx8milL9w4s7Xtx8183mdFieLKKVbWWX+dhK+KUk1N0u6K6ddnEMwtzFkOqfl57w5cvnwRr0+bxfKpWKESp0b1585ItgTpt+kzJvNCenLQS8NxXwVAu/Zs147IOgWqT9BeKXl6yBeVsiaoMlAKUw9VFArHN63fgYUfLUG9eg20PSkhz+LFrj2xYtn32LZ5D/r3HcShd1okJCSm+Bvp0bDhc3hvzkfYvGEHFvxvMezti2l7gNjYWBXSP/bwKJqyVMZcj3+AX9LDvX37FkeL5OGlB6VSZrzxDjau245vV26Em1tpLqeUq7GxUYrUKFVCSgnreaQqaXz84+3UpFdh49U59CnaALre+HheFwRDIVw50tExKbsp7O3tYGlppW2lZED/wRwZbd+xTSt5DHVFUDcNOaw9endQzvG73B0xYdwU7YjHUaDPA+8njCPpi5tKj1B2p6+Kdv76+08EBPpj6WcrWC9QN0t+Exzy5OAgB0dHbS0ldP/k6FNk9vChj1b6GM6kKcM3480p6PdSN5w8dRxjx0xKctIzkq0e0n20UMRI3WBkGEkuJB+SU3oOf2pyZAQXrrFGYEjWv0rH0neygrmFRVIajiqJCnN4naARQIOH9cGHH8/jm3959ETu30vN6JHj0bRJc6zb8B2GjuiLNSp6S0jIuVInb23YkDGcBpg8dSxemz5ReYiPc85G6hpNTR97iqlHfRkbP5YVDfKhfob0oAc3fuwUPv/MWdPQd0A3TtXqoe/a2z9OpRopo6j+120IgpBjgkOCkKiMT/JuADc3d1ZB1OWSnLp16qNB/UYoX648Vq5Yh0UfL2VndeiQURg6eCTvi4uNUzprBxu0o8f+4dHb5ODqSSsKTM3QIaMRER7B2R0aDOLr9xBfLf+cDQxFmflJcFAg67bkGTUas0H9mqnppoIQF5fiLI/NG3eic6du8FD3+sWSb1RU+xxntmgcw+Url7ifdO8+3ahPyq5lJtvkVKtaA+3bdsYPP27ibp2mTZ7H4k8/REhoCLp07q4dlTE5MoI/HLBAk2GOqNzDOUsLHUvfyYzLVy7Cxto2qf+L+rtcS7rxum5Y/8cYNHAEd8ru3L0d4SqC048cJUOjMwjK0KhIkLyIQ4cPcpRGXklyI5VdrFTUlvgogfPQZHzr1WuIYg6PPSBrVTE6dujCRpuMWL06DVL0K9ADpyG9BA2cMTE2wfmLZ3k7NVbqfijaowEsFAk3fq45P1yCth94e6Nhg8acb6eIt1HDJjAzz/m9CYKgg9o2GSoyMPQqALWxLp27cSRDDjCNRxg5fCyXU/te8OFc7v6g0Z1fLvuUDRTppV9++5nHJlD7bNCgEZ+bxjvQ+AX9qw4ZRYF6aNRjrRq1sWHTGjaSVioipWiMM1fKMpvnc7unvknKqHXr2oOvn4wy9QeeOHGMZUJBiV7PrVv/Hea9P5sDFpIPDWz09r6rDPgSpUdP8Aj1GjVq8veI2rXqqPux4Gg3M9nqoWsYMWwMLl4+z91C9P34+AQeLBOjInoabJMVcmQEnxYU8h/++3dl7UdxnpgGgOhz4CQ06vDs2b0375v/3kKutH8fOcSdqTQac/jQMZj77gIcOvQ7d0Jv3rATG1Ro7OJSIsMUYWYc/+8fzku/OeMdbNm4i0c70Xs/eiLVOqVyKU276KMl3CG+bsO32l7A56E3JoyfwtfdpnV7/LRTNwosLS5dvogLF8+zx0N/a/TIcUlpSuK7td+wN0Zp0jWrt/DfjVOGXhCE3EPtlkZufjD/U25jtrb2/C4cGSFyzum9NjfX0hy9kME8eeo/Xmi0OXUh0LtzpJdoRCjpM2rH1CWz/MvvlJNuzO2XyCwKpGirR48+2PfrHqUTLnAZjZxs3KiZ0iWvIkhFZaQr8hPSWdRv17JFa6WbdvIgPRqTQUa8XNkKSjbtlQPRjI8lh10vG1oiIiKUfBK4q4vud8PG72FpYY3vVm1m+fTtM0jJYh/LLDPZ6qF3Js3MzbF23SreprEYkVGRmPHG2/D0rIIzZ05xeWYUyJflyTugCJBuKnUFIe+qYgVP5WndTfKq0oK8hCoqAvP3900huIx45633VeSle4h66PUM8kboYVDFJO+C3vPRQx3WlN/+4qtP1N/SpUipAuihcxKLPlmA8uU91QP14odM35s5413uiE/O0WNH8P78dzglQ8abRoim1Uiof4GGEmf13gRByDqkg4yNTNj5zi30ChONjqR2n1VIz1EWK3Xbz0wv5Bf0OpWPj3eur4HkbGNjh/tKn2cXGiiYeqBQTvS+zCeYS5IbQTKUqdEbQTJsgiAIQsGiwL0sX9hIfKR7VYT6C9MaZUqvfFDUSi/eCoIgCAULiQQFQRAEg6VADYwRBEEQhPxEjKAgCIJgsIgRFARBEAwWMYKCIAiCwZLmwJjkPxskCIIgCEUVGR0qCIIgGCySDhUEQRAMFjGCgiAIgsEiRlAQBEEwWMQICoIgCAaLGEFBEATBYCnwo0M/WvAp/AP8sXDxfK3kSWj6jEqelXm6koymVyIG9B+C3j37YcXKL3kur8IMvcpSzN4haWqnTh27oWOHzlj0yYc5mppEEISsQTpn3MuT0OL51vh5706sXf94/lA9NE3QuJcn80zpBM19uurb5TwN2mtT3+R5QZNz6+Z1zJw9jc898423UbtWPXhdv6ba8/wkvUZz6JUvVxELPpqTramZniUkh1cmTEPVqtWxfsMa7PtFN4u8HrpfmpCX5lg0NTXFDSWHZV9/jrt37/D+enUbYvSocbz+wUfvsW6jyXvHjJrA3936w0bs3vMT76fp7qZNnYG9+3bh19/2cllmFPhI0NraJmn2+PQoXcoDU6fMQKsWbbWS9Pnjz/3YuHktTpw8ppUUXrp3640pk17XtgALcwtYWVrzzPWCIDwdaJb4TxZ+icaNm8PIyIhnikmLl0e/giqVq2H1dyt4qV+vEUaPHM9O6yeffcjzlOqXO3duw1gpdOKFNh3g4V4Oc9+bpZzcYujQviuXP9eoqVqaYO8vuwqNAaxVsw4WfrQUFcp7wszUjHVUasiw06z9NGHvki8W8zyBkye+xgaOghaazNzczBzWVjZJuo1mtT96/Aj2KAeEZuCn7xBDBo9AQEBAtgKcAjeVkodHGUwc/yr69O7PMy+XLOHKE9vS9Pw00eSwIaMxeNBIFhpNXRQXF4eXx0xE2TLl4V7aHcWLl8DpMyd5nr/x46agR/deqFypKm7fucnHl3IrjbYvdODZip2dXJSHMhVurm4YMfxlnjD36rXL2pWkZKTa30hVwGZNnsfAl4ayN0fH0qzvtJ7WeejvjB3ziorQuqqHZMdljx49Ul5MS3UPw1GhQiUMHTIKZcuWQ1BgAMaPnYyePfqhVKlSOHf+DB9LpHWerl16oF27TnBydOLGRY2I7p0iYmLY0NHq7zyPO3dvKy8yiMuo8Y4aMVZd/xD+zn3ve7xPf/0PHngjUF0HRZg0RyL9+bv3bqf4XhPV8JOfUxAMDZrU29nZGetU9NewQWPVRu6kOZdojxd748SpY/hx+xaeSq18+Yrc1nbu3s6z1z/w8ealcuWqaNXyBfy0YxvP3l6rRh1UqlQZB3/frwxtU/j5PuSJukmfXbp0Adt3bNX+QsGHouBoZbApUmvUsAkuXjyPK1cvaXt1ODu7sM7e8/MOliXpTzKeNJN+7Vp18Oehgzx5rodHWRXEHODJxLt368X6KjQ0BBUqVsKRfw4rZ6GLihobcJYvIEA3wXlWyFEkWOP5fpjw2Um8tupWlhY6lr6TGaRs3571HhvCK1cuo2qVGnB399D2ghUzGb/DyiCGh4fhlYnTlIdRkQ1cTGw0K/V79+9xiuKN199SnoQxTp0+hZpKoJMmvMbnICNC6QT6pKVmjdpor4RHit3H5wEfkxbu7mXQoV0XuLqWgpeXqqi16uKdt+arc9ineR7yVMhw0XXeUw+2T6+XOFolirsURz1lpCtXqqLOdQXNlVF8e/b7iE+IVw/2Hjp36s7GkKDzkGH183uoznMX/foMZM+J/gbNnBwZGYlryiiGhoXw8Y5OzurcjXDr1g1lTN0xc/rbbNQoJTHzjXfgWbEyzp49zTP3z35zLqcPksuEsLSw4tmw6TrJG3t96pucytj3y8/KEbHGm+o89KwEwRA5e+60iuQ+QkiIrs2lB6U2v1uzktdJT5CzS3OLJofaV3vlzHor3bX/wD4uO3X6BDugc96Zr6Ifaxz59y+81H8oHiUmYv3GNXxMYYFSkstXLEV8fJxW8iS/7d/LC0F6hRwLcrLve9/l71JqMzU0f2vLlm3Qp88AXLhwluVLcty7dzc7EtkhR0awZd9ZsLJz0rYyh46l72RGq5ZtObXw5bLP+eY/X7IQQUGPI45SpUqzF7H755+4j3DqtAn49+gRHDy4HxHh4azcSZiH//oD02dOwZx5s/D92pXsPbi6ubHCT010dBTWfL8SS1UY/t+Jo1pp2lBFnTPvTXV9n7EXWFIZF4qMiOTnoWuk6O2ff//G/A/m4POlizjUr127njKWtfj4EPWQV61exvd5/cY1ZcwisGjxAiz+9EP4PvRBFeUd0oOl1MhRdY/U6D5fuhD7ft2DBvVV5Kc8Q/Iuych+u+YbPFTfIchjWvHNF3yN237YBCtrGxUhe6jr6QR7+2JY8uViPn7BR3O5UbVSFSkjyOg7qGjz5Mn/8Iv62/Pen60a99SkvycIQuYMHjgcDsUcsXPXj1qJDuoHo4wXpe8SEhK4jNr2pFfH4H8L3sHEyaOVnnHjzNa2Hzdz+y6qLP1sBVatWA83pXM2bPo+SR5psVLpzukzJvPyzaqvMOil4bivAqBde7ZrR2SdAtUnaK+UPj3kixfP8TZVhuSztVNFqaMMyab1O7DwoyUq4mmg7UkJpU1f7NoTK5Z9j22b96B/30EwNkr7VhMSEtOcET4t/AP8kh7M7du32ACRp0YkP4+jgxNMTUxx8+Z13iZu3tTNLO/m5s6ficoA0XfSgzxEOg+dv3Wrdti8cScvL3btBTMzc47W0iI+Lo5TtEQAXW98PK87OjjCxaUEFvxvMZ9niapwJVQ0mF5/hh7qhP7nn8Po2qU7Nm/YgbdUpE75fUEQsgZ1czzfvDW++/4bXLp8QSt9HAX6PPDG/oO/aKU6SM/cvHWDszN9VbTz199/IiDQnw3FxnXbuXumqDF56lgMGd4HFy+dx2vT3kTtWnW1PWlDmTBaenTvw11BZBhJLiQfklPFipW0IzMmR0bw0LYPEBUWqG1lDh1L38kK5hYWST/gTZUERka8TlBeefCwPvjw43l88zSiiCKu1FDnc9MmzbFuw3cYOqIv1qhoMCFBZwxyg7HxY3HRYB1TMzNt60lon729rrOWsLGxhQq92DBlB0qRbtm2AQMGduel74CuGD12MDsI2cVbeUpjxg5JOlfP3h244qSG0sjJ75UiR5I7RZc0EGDqqzNQrWoNba8gCOlB3RnU3/fD9k3ct5WctKLA1AwdMhoR4RGcBqVz+fo9xFfLP+cMFI11KOyQjq9evVaSzqdRsDTaNj4unrtoMoP0UPu2nfHDj5u4+6Zpk+c5mxYSGoIunbtrR2VMjozghb+2YtnU+vhkdLksLXQsfSczLl+5CBtrW64cRJvW7bjvinBydMb/3vsYgwaOwImTx7lzOVxFXvqRo6S0jYx1BtNSRYKhYWE4dPggYmNj2aMwNU3fYGWVqlWq89Bcol3bjjxS6fzFs7ydHDJQD7y9ObdNfXH0oFu3asvXdM3rqnZU5tB5fB8+VA+2GZ+HIK/y3bf/pzOqhDJK7CxkAsnWzt6Or5ugyvPJoi/ZiaCo1NzcPMmw0T06KnkT1Jm/6OMvOBqlwUm/7d+HRBXBUue1IAiPofEKI4ePTWqrZLQoC0VO7PafUuq/jKJAPTTqsVaN2tiwaQ0bSStLKwSHBOsyTqrdm5vnXqc9Kyh6o5GfBEVvs2bOSRpnQINhzM0tOPLNCJLhiGFjcPHyeXYw6Dvx8Qk8WCYmJjrLOipHRvBpQSH/4b9/x9DBo7B1024MVgZPnwMPDArgDs+e3XvzvvnvLeRokN69oQ7U23duYfjQMZj77gIcOvQ77GztsHnDTmxQoTGlATPqmM0qPg+9MWH8FP77bVq3x087daO50uK7td/AxNQE367ciC0bd8JTheZr163Odk6fzkPpTzoPpXZbt3qBR6JRQ6C0AaVMv/92a5LjkB4k24PK4xwyaARfP6VFKW1Kr4rQyKzTZ0+in2qwP2zZw15mcIiuL/aOkquvrw/Gjpmo7mMXXp38Ov9dGr0qCMJjqA22faEj3FxLo3RpD3Tr0pP79SkztXvHAV5Wf7OBxyZkFgXSMT169OExAPoUKo2WbNyomdJBryIoKFCVX+TywggFBW3UQiNDN2z8nrt3vv5qDeufPr0HYu++nayzMoIGCJop533tulW8TQFGZFQkZrzxNjw9q+DMmVNcnhkF8mV58qQoAqSbSl1BqL+PhijTKKuMXownL6GKitz8/X3ZWGaFd956H42fa6Zt6aDXM+g9HnolgVj0yQIVHXlyH19W3tWhykweif6F9pxC6QIy5ldURJde6iQr5EQuBD0TGmBz/UbW7lsQhJxDeo6yWKnbel7pgYII6RgbG7ss/9AHORipg4qc6DeZTzCLkIEk3p//Dn8KgiAIhZ8ClQ4tyNCrGLQIgiAIRQeJBAVBEASDRSJBQRAEwWARIygIgiAYLGIEBUEQBINFjKAgCIJgsKQ5MEb/EzaCIAiCUJSR0aGCIAiCwSLpUEEQBMFgESMoCIIgGCxiBAVBEASDRYygIAiCYLCIEcwG9AvlVatUS5ovzBCgkcKVPKtoW4IgCEWLAj869KMFn8I/wB8LF8/XSp6EjFMlz8rwefggw+mVCJrIsXfPflix8kueyyur0FT9M994By7OLvj7yGFcuHgOHTt0xqJPPszy1B+poXs7f+Es1q7/VispWIwbOwmdOnRlmX6+dCHPOygIRRXSI8OGjOI5AWmd6vvX3yzNVKcMHjgcnTp1w/oNa7Dvl91cltm56tVtiGFDR6FUKXeEh4Vh89Z1+PW3vbyPjp/5xtuoXasevK5fUzpmftL3aA49mnF9wUdzntmUZhQIjH15Es+ZGBIchI2b1+H3P37T9qYNTZj71qz3EBUZgZmzp2mlNHF6ewwcMATFHBzh5/eQ51w9euwfvPH6W2jYsLF2lI642Dis2/Aty5gm/h4zagLLausPG7F7z098DE1dN23qDOzdtytJnplR4CNBa2ubpNnj06N0KQ9MnTIDrVq01UrS548/96uHtpYnk80OzZo8zzPJv/7GJCz+9ANYmFvAytKay3IK3ZuFRcb39qygCLB+vUY8qefIMQPFAApFnr59Biqj1Qk//rQFq79bgSqVq+GVCY8VdlrUrlWXDSBNCks6QU9G5yJFPXHCqzwx9uJPPsCRfw5jxLCXeSZ54oU2HeDhXg5z35uFYvbF0KF9Vy5/rlFTtTTB3l92PTMDSFmwyZNeR6QyZnTtV72uYNTIsXxtGTFsyGi4l3ZnnaeHZDdyxMt8Dpqz9dbtmxj38mQOODZvWc9l+mXL1g0wMjJKmkORZu0/evwI9uzdyXKjuQWJIYNHICAgIFsBjomtvcNcbb1A4OFRBhPHv4o+vfvzzMslS7jyxLaHDv/OE02SMAcPGomWLdpwJYqLi8PLYyaibJnyLOTixUuwwq5fryHGj5uCHt17oXKlqrh95yYfX8qttKqcHXDz5g04O7moijkVbq5uGDH8ZZ789uq1y9qVPIam/2+h/p5DMUfUqF4LpqamMDYy5ujz8F9/IiQ0mM85dswr6NzpRZ589vKVi4iPj+fvJ9/n5OTMM0U/evQIXdT2w4c+PFM8Pfhpr85U+11w6dJ5/l5qkt9/m9btVMkjdR/Xed9rU2cq2ZXDi916oWePfsrDLMWzv9Pfada0JQYNHMaeG90nzWrt7/8Qvn6+/N3UUPqTGizdB838TB4p3Y+trZ3yRMdi4EtD2EDe976nPFTdDPQkI5qRnmaMfqFNRz5+nPIWaQLi3r36o327zggKCkLj55qyB5fZNQhCfkIRBdXL6zeuYeWqZbhxwwumZmZo1qwlvLwup1lP6TuTJk5DdHS0ameJuHbtCq5cvZTpueqptlNZtbEvl32Gs+dO49Tp/1RZQ7gqPUR6rlaNOqhUqTIO/r4fjRs3hZ/vQ9y5e4v12aVLF7B9x1btCvKfjsog16ldD6u//VoFEsdZx1BbLqaMIxnztGjV8gV07NAVFy6cUzrElqM0gu6ZdAzJiPQFzZbfXMkoKDAQx47/gwc+3rz4qghx4EtD2fB/s+pL1mndlZ578MAboaEhqKB0J/3tDsoY1qvbgLN8AQH+/DeyQo4iwZcqRuN8vwA8GOqXpYWOpe9kBoXMb6uQmQzhlSuXVdhdA+7uHtpeqAr3Ghu/w6qihIeH4RVVASuUr8gGLiY2mpXyvfv30OL51hxOm5gYqwp2CjVr1sGkCa/xOezs7DidQJ+01KxRG+2V8O7cvQ0fnwd8TGronDRLcVxcLLxUxU59XP9+g9mDIYNAMz63adMOo0eO533kpdD6XXX+k6eO88Oj9ElyyAC+Pu1NZTTj8PPeHVppSqhhzZ45j89Nf4P+1qgR47kCEnRPvXv25eNIHpSGeXPGu7yvuEtxNKj/HFq3bItbt26wEZ+p9qXnvYWGheDmLS++X7rvGze9YG5urs73DsvSy+saHB0cMffdD9ibI9zdy6hK2FnJtBgfTxWWrqmjKvP391NHPFL3OEsZyRdw8eI5dU0luFHrPThBeJaU8SgLS+VkkhHTc/36Vf4sW7Y8f6amR/c+ynCVwvaftiIxMVErzfxcFqotkSKn9qWH1ksU1/1S16nTJ9R+YM4782FtZY0j//6Fl/oPxSP1N9ZvXMPHPCtc3dyUfghj40fQzO7e3vdRupQ7b6eGIsdeyin/7+Qx7q5KDqU1X31tPBt4goIV0tmkv5JDOo4Cov379yZFgmfOnkLLlm3Qp88AZVzPsh5p364T9u7drWR9jY/JKjkygm/Xj4Cz5eOHnhl0LH0nM1opJU3pwS+XfY7lK5bi8yULOXrQU6pUaa5Yu3/+ifsIp06bwBPdHjy4HxHh4Th79jR+U4I6/NcfmD5zCubMm4Xv167EH38e4IdHaYjUREdHYc33K7H0i8X478RRrTQldE7y5kix79jxwxPH/fDjJkybPhEfLXxfeSpf4cSJ45z+IOiaKZLdvWcHNqgKPGnKyykqMqV6p05+gw0r3VN6aQ56+Is/W4BXp47nv0H9C2HKWFWtUl07Arhw8TzmfzCH72XX7p9QWV1DzRq1eB85Cau/+5q9zw8/fg9hoWFcidKColOqTHQtdN903Y2fa45i9o74fOkiPsf7C97lv9+hgy6FQ1xUXuqceW/y8dQ4CGrAdPyP27eorUf444+D+HbNN/jl1z2wty+GihU8+ThBeJY4OjrBxtpGGZrHQyQCVURCfVimJmZayWNIl1B/+aFDB3HvXsoxAZmdixS4mbkZp/RsbGzZia5VU+dMEmQUJr06Bv9b8A4mTh6NkiXcOLO17cfNSe3qWcGGWllovTEiyFE2NTHVtlLSr88gmFuYY8vW9VpJ2lAg8OKLvZSxPJ6i64WcejJuPirq23/wF60UWLl6GabPmMwL6cNBLw3HfRWs7NqzXTsi6xSoPkF7Zc3pIVOkQFBloBSmHsrzUii+af0OLPxoiQqnG2h7UkJpwxe79sSKZd9j2+Y96N93EKcv0yIhITHF38gJLirSos7dNas389+j8F/PIWWQY2KiseSzr/HN12vRs0dfjqr0UFqzhIqAf/9jf7oGUA8Z1hlvvION67bj25Ub4eZWWtujg9IDery8riAhPl79LV0/BTkJVFkJkvEDn/uwsrTi7axAkR/JSf9s6BxkLCldrYfuMzUJ8Y8bS2romRgbF/huacEACFftIzpV/bW3t1NOatptZED/wRwRbd+xTSt5TGbnohTot999w7qM2nLnjt1w7Pi/vE8PGZmbt25wtqqvinb++vtPBAT6Y+lnK/g71P3wLAgOeXKQkIOjo7aWEsoSURcJOdSkK9KDDOCsmXNw584trFQGLTn6KJB0f3LDS5A+o4UicuoGI8NIciH5kJzovFkhRxrofydtEBCd9a/SsfSdrGBuYZH0A97kBcDIiNcJGgE0eFgfFcnM45t/efRE7m9LDaUfmzZpjnUbvsPQEX2xRkWDCQm6/rmnAaVaK6iIZskXizBgUHfs+1U3Qoyg0JyivylTx3FFpk7vCeOmaHuhospjOH/+LIYPG5PhQ6N948dOUR6lP2bOmoa+A7pxCjc5JqaPB+mQh0mpBT1kbJJv52RATvJnQ9A5KCcvCIWd4JAgJColm7x+u7m5s/pJnZ6rW6c+GtRvhPLlymPlinVY9PFSdkiHDhmFoYNHZnouShH6+flg/Csj0b1Xex54Zm9vz/1fqRk6ZLRyYCM4e0SRI/WPfbX8czYulD7Mb4KDAmFlbZ0iq0aOcFrX3k0FIhQgkFw2b9yJzp26wUMZtC+WfMPjEwiSxaSJU5VTHcL6M3kgkF4UmJxqVWugfdvOnI2jbp+mTZ7H4k8/RIjSS106d9eOypgcGcFN1y1Rc6sz3NYWz9JCx9J3MoM6R22sbZP6uShKci3pxutOjs7433sfY9DAEdwhu3P3doSryEQ/cpSUvJGxzmBSPp68tEOHDyI2NpY9ElPTJ1MaeYWllSV7OnRd5LlVr1pT26Mb0vz+3I/h5/8Q69Z/y9Ftcu/Sz88XGzatgZH6R32FbPjTwErdp7G6Pxq4Q+eg9CQ99OQ817ApG0s6B8kuLDwM17x0fRE04IY6pwkaKFOubHlOX2aV1M+GhiiXKVM2W+cQhIIKOdUUoZFx0b8L3KVzN27X1P9F4xTGj53M3QvUJbPgw7nc9UAjF79c9ikbJ9JJv/z2c6bnqlmjDt6cMZfHBxCkrMuVrYATyiFODo0nqFWjNusHioIoc0ORGGeulEU1N396Oi09qHuDMjjduvZgPUOGmfoD9ddOURm9hkb71q3/DvPen81BC8mJBv14e99VRnwJfJTRJLlQvycx7/23kl4D0ZNRFEjQ3xihgoeLl8/jz0MHOesVH5/AjjllpWigY1bIkRF8WlCkdPjv35U3NQpbN+1WRmFEUg48MCiAo6qe3XvzvvnvLeTK9veRQ7ivBHtbhdLDh47B3HcX4NCh32Fna4fNG3ZigwqNXVxK8KCTpwU9AOqbo+v6+qs13Omth94DLFOmDNat2YYtyhsqXao09h9I6dXQfa36drny7KrxiMq0DOGlyxe5z488zS0bd6lodxyPSkvOQ18flgvdN51rw8bvk+QXFByIGqpB0TW+8fpsHqH6UzZGmdGzOXBwHxtq/Tkogs3OOQShIEPvoFEb+mD+p9zdYGtrz+/AkQImR5oGm9WuXZ+jFTJyNKqbFhppTl0P9M4c6aTMzqVvS2Qstm/bizGjxvM2GVA9FGn16NGHX1GitkqcPn0SjRs1w4Txr/JIStIJ+Q3pKnrto2WL1qzP6F1IGpehj9RodHgbtdCocnLW9TKiJSIigrtHqEuF5EADZjwrVkElz6pKP/6A3TsO8KJ//y+zKJACDDNzc6xdt4q3yeGPjIrEjDfehqdnFZw5c4rLM6NAvixPHgJFgHRTqT0A6u+jwRT37t99wnNIDgmxijJM/v6+SRUzM955630VYTXTtnTQoBbyYughZkRm10WvHcTExHDFyIgeL/bh1xjMzFJ6eT/t2MY5b0qxkFGnEaLJZUM5cOpw3/bjxidkR+ekVMSCD+exd0SvdOhlQt8rX74ir+uhfXPfm53mtWZV/oJQWCH9Y2xkwo53bsnsXJQWpKgoLT1HWazU5em1/2dBeteeX9CIUL2Trycnel/mEywi6I0gGcrUJDeCmRlhQRAEQ0KMoCAIgmCwFKg+QUEQBEHIT8QICoIgCAaLGEFBEATBYBEjKAiCIBgsYgQFQRAEg0WMoCAIgmCgAP8HLMYMPOR0+2EAAAAASUVORK5CYII=;" vertex="1" parent="1">
          <mxGeometry x="1810.4999999999998" y="599.0999999999999" width="349" height="285.26" as="geometry" />
        </mxCell>
        <mxCell id="PEiCkukdCwHBLGiY2Sb7-52" value="" style="shape=image;verticalLabelPosition=bottom;labelBackgroundColor=default;verticalAlign=top;aspect=fixed;imageAspect=0;image=https://cdn.icon-icons.com/icons2/2107/PNG/512/file_type_prometheus_icon_130229.png;" vertex="1" parent="1">
          <mxGeometry x="582.34" y="270" width="90" height="90" as="geometry" />
        </mxCell>
        <mxCell id="PEiCkukdCwHBLGiY2Sb7-53" value="Prometheus Client&lt;br&gt;:25001" style="text;html=1;align=center;verticalAlign=middle;resizable=0;points=[];autosize=1;fillColor=none;fontSize=19;fontStyle=1;fontColor=#FF8000;" vertex="1" parent="1">
          <mxGeometry x="675.17" y="290" width="180" height="60" as="geometry" />
        </mxCell>
        <mxCell id="PEiCkukdCwHBLGiY2Sb7-54" value="" style="shape=image;verticalLabelPosition=bottom;labelBackgroundColor=default;verticalAlign=top;aspect=fixed;imageAspect=0;image=https://cdn.icon-icons.com/icons2/2107/PNG/512/file_type_prometheus_icon_130229.png;" vertex="1" parent="1">
          <mxGeometry x="943.3" y="275" width="90" height="90" as="geometry" />
        </mxCell>
        <mxCell id="PEiCkukdCwHBLGiY2Sb7-55" value="Prometheus Client&lt;br&gt;:25002" style="text;html=1;align=center;verticalAlign=middle;resizable=0;points=[];autosize=1;fillColor=none;fontSize=19;fontStyle=1;fontColor=#FF8000;" vertex="1" parent="1">
          <mxGeometry x="1036.13" y="295" width="180" height="60" as="geometry" />
        </mxCell>
        <mxCell id="PEiCkukdCwHBLGiY2Sb7-56" value="" style="shape=image;verticalLabelPosition=bottom;labelBackgroundColor=default;verticalAlign=top;aspect=fixed;imageAspect=0;image=https://cdn.icon-icons.com/icons2/2107/PNG/512/file_type_prometheus_icon_130229.png;" vertex="1" parent="1">
          <mxGeometry x="1297.4400000000003" y="278.2" width="90" height="90" as="geometry" />
        </mxCell>
        <mxCell id="PEiCkukdCwHBLGiY2Sb7-57" value="Prometheus Client&lt;br&gt;:28051" style="text;html=1;align=center;verticalAlign=middle;resizable=0;points=[];autosize=1;fillColor=none;fontSize=19;fontStyle=1;fontColor=#FF8000;" vertex="1" parent="1">
          <mxGeometry x="1390.2700000000002" y="298.2" width="180" height="60" as="geometry" />
        </mxCell>
        <mxCell id="PEiCkukdCwHBLGiY2Sb7-100" style="edgeStyle=orthogonalEdgeStyle;rounded=0;orthogonalLoop=1;jettySize=auto;html=1;entryX=1;entryY=0.5;entryDx=0;entryDy=0;shape=flexArrow;strokeColor=#994C00;fillColor=#994C00;" edge="1" parent="1" source="PEiCkukdCwHBLGiY2Sb7-58" target="PEiCkukdCwHBLGiY2Sb7-41">
          <mxGeometry relative="1" as="geometry" />
        </mxCell>
        <mxCell id="PEiCkukdCwHBLGiY2Sb7-58" value="" style="shape=image;verticalLabelPosition=bottom;labelBackgroundColor=default;verticalAlign=top;aspect=fixed;imageAspect=0;image=https://cdn.worldvectorlogo.com/logos/docker.svg;" vertex="1" parent="1">
          <mxGeometry x="1360.24" y="960.0000000000003" width="230" height="193.2" as="geometry" />
        </mxCell>
        <mxCell id="PEiCkukdCwHBLGiY2Sb7-72" style="edgeStyle=orthogonalEdgeStyle;rounded=0;orthogonalLoop=1;jettySize=auto;html=1;entryX=0;entryY=0.5;entryDx=0;entryDy=0;strokeColor=#FF8000;strokeWidth=4;dashed=1;dashPattern=1 1;" edge="1" parent="1" source="PEiCkukdCwHBLGiY2Sb7-40" target="PEiCkukdCwHBLGiY2Sb7-34">
          <mxGeometry relative="1" as="geometry" />
        </mxCell>
        <mxCell id="PEiCkukdCwHBLGiY2Sb7-40" value="&lt;b style=&quot;&quot;&gt;&lt;font style=&quot;font-size: 22px;&quot;&gt;MongoDB Exporter:9216&lt;/font&gt;&lt;/b&gt;" style="rounded=1;whiteSpace=wrap;html=1;verticalAlign=top;shadow=0;fontColor=#FF8000;" vertex="1" parent="1">
          <mxGeometry x="90" y="514.27" width="256.38086932620854" height="247.3486048576978" as="geometry" />
        </mxCell>
        <mxCell id="PEiCkukdCwHBLGiY2Sb7-39" value="" style="shape=image;verticalLabelPosition=bottom;labelBackgroundColor=default;verticalAlign=top;aspect=fixed;imageAspect=0;image=https://cdn.icon-icons.com/icons2/2107/PNG/512/file_type_prometheus_icon_130229.png;" vertex="1" parent="1">
          <mxGeometry x="155.71347820419277" y="596.0127459325245" width="124.94934712976905" height="124.94934712976905" as="geometry" />
        </mxCell>
        <mxCell id="PEiCkukdCwHBLGiY2Sb7-83" style="edgeStyle=orthogonalEdgeStyle;rounded=0;orthogonalLoop=1;jettySize=auto;html=1;entryX=0.5;entryY=0;entryDx=0;entryDy=0;strokeColor=#00CC00;strokeWidth=2;" edge="1" parent="1" source="PEiCkukdCwHBLGiY2Sb7-41" target="PEiCkukdCwHBLGiY2Sb7-61">
          <mxGeometry relative="1" as="geometry" />
        </mxCell>
        <mxCell id="PEiCkukdCwHBLGiY2Sb7-103" style="edgeStyle=orthogonalEdgeStyle;rounded=0;orthogonalLoop=1;jettySize=auto;html=1;entryX=0.75;entryY=1;entryDx=0;entryDy=0;strokeColor=#FF8000;strokeWidth=4;dashed=1;dashPattern=1 1;" edge="1" parent="1" source="PEiCkukdCwHBLGiY2Sb7-41" target="PEiCkukdCwHBLGiY2Sb7-34">
          <mxGeometry relative="1" as="geometry" />
        </mxCell>
        <mxCell id="PEiCkukdCwHBLGiY2Sb7-41" value="&lt;b style=&quot;&quot;&gt;&lt;font style=&quot;font-size: 22px;&quot;&gt;cadvisor:8080&lt;/font&gt;&lt;/b&gt;" style="rounded=1;whiteSpace=wrap;html=1;verticalAlign=top;shadow=0;fontColor=#FF8000;" vertex="1" parent="1">
          <mxGeometry x="959.7491306737916" y="840.0013951423023" width="256.38086932620854" height="247.3486048576978" as="geometry" />
        </mxCell>
        <mxCell id="PEiCkukdCwHBLGiY2Sb7-42" value="" style="shape=image;verticalLabelPosition=bottom;labelBackgroundColor=default;verticalAlign=top;aspect=fixed;imageAspect=0;image=https://cdn.icon-icons.com/icons2/2107/PNG/512/file_type_prometheus_icon_130229.png;" vertex="1" parent="1">
          <mxGeometry x="1025.4626088779844" y="909.6891167064014" width="124.94934712976905" height="124.94934712976905" as="geometry" />
        </mxCell>
        <mxCell id="PEiCkukdCwHBLGiY2Sb7-61" value="" style="shape=image;verticalLabelPosition=bottom;labelBackgroundColor=default;verticalAlign=top;aspect=fixed;imageAspect=0;image=data:image/png,iVBORw0KGgoAAAANSUhEUgAAAsgAAAC0CAYAAACJ1NrlAAAAAXNSR0IArs4c6QAAAARnQU1BAACxjwv8YQUAAAAJcEhZcwAAJOgAACToAYJjBRwAAEzXSURBVHhe7Z0HYBVV9sa/9EpCSUILhB5CkaYURYousDZsiIr6V1xWRXHRtbO6wuqiq6sua0ERhUVlWRQVF9SASlmUovSOIaRBQhISUkgv/znzZvLmvbwkL8lLMkm+nw537p2Z9+6c793JuXfO3HErVwAhhBBCCCFExV1LCSGEEEIIIQp0kAkhhBBCCDFAB5kQQgghhBADdJAJIYQQQggxQAeZEEIIIYQQA845yD88iV79BliW65chUSuuEuP+/Z7EZq2YEEIIIYQQs8MRZEIIIYQQQgzQQSaEEEIIIcQAHWRCCCGEEEIM0EEmhBBCCCHEAB1kQgghhBBCDDSdg5x5FKsXzcW0iaMQpc94ETUKo66diadXH0WhtlsFebHYvPRVzJ4+GUMH6zNkDEDUqGtxx0trcDhT268KsnevxCPTx2FolHbsxeMwbf4axGQrG52cpaMwfiuWPjkDoy7W9lWWoeNm4JGV+5Bdqu1ECCGEEEKaNU3iIGf/8BxGXXoznn57I/aczrE6w6U5SDuxE6s/2YFUrUjl9EpMG3Et7n1lGaL3JSHb4D0XZsZi+7LncJ3iqC6N1QptyMHmZxXH+PYX8dW+dKsjm52OPSufw+SrnsTmGpxr5VsQs3QGhk56AAu/3Ic0cao1slP24av5yraJz2GzoZwQQgghhDRPGt9BTlmD2Q+tQZrmqIaOvhnzXlmExYuU5ZUnMP2ycPhYNlkpKUSh7O8TjjHTn8A/ZF9l+ceT16KPvnPhPiycr3yultWJWXoP7l2druUUgqIwZfrNmK4sUwa1AdLW4d5n12kbHSPO8eRX9lkceY8QjJn5rKW+82diTCd1F/W87p1T+fsJIYQQQkjzwq1cQVuvGglBeEBzIqOewJa1M9HNknOMcX9ciw9PvIIJWi5x2c0Y/9JRS2bEs9j57xkIteQqKMzMAdq1sTrK8Svx/JcD8NicoQjy0Mp0Di3C+Jve08IiRuHlH5dhuv6BeRsxe8RcROvO+A2LsPGlSTafkb3xSUx6aJ3VsbU/v/hluG7SqzisZsJx14o1WDBacax1srfikasewFfqB7RRtu9UtqtbCCGEEEJIM6RpH9JLT0Oqg9hdH6NzLETMwIK5DpxjYdB4TAjS1nEEhxO0VYW0dSsrnGOEzsBiO+dYCJr0Cv4xw+Dw2rFnxbuac6zsO+MFW+dYCBqHx2ZGaZkcrN24T1snhBBCCCHNkUZ3kLtdcS0GauuIfw/XTZyJhWuOIi1PK6uOvHQc3roRXy19FU//cSYmT5QH9mbgo4rY3xxkZWmrCod/2amtKd97080Y7sjBVhhz2XhtzZ4k7PklR1sHfnvFKG3Nlm69emtrQPbevTW/ipsQQgghhJiW2jvIp0/XLs42KAgVA7xCxEy88eI4hOrOaspOLH3mZowaOgzjZ76K6PhK81coXuc+LH1oMqKGjsN1s+bikVeWYfW6nYg5bfvAni1JiInRVhUGRPbS1hxQheMMxOKQFg0irJ5lnb3CZqkIJ1FwMCJOCCGEEEKaD845yGFdrTG52WlIqmG0tzDP4LV27VopxrjP9HexdesyLLghyhDyUIjEH5dh9qTRmLbMMB1FaSyW3jMDCzcmWR6Skwf1rp1pebBvxTrs/HENHtMjHOwxOKs+/pUe/SOEEEIIIaQSzjnIHcMRrq0CG/HNliqHbVW2b92orSkM7u3wgT6f0FG465U12LdvJzYsvR8T9NkgFDd4z0sP4DVt5LZwwyIsPGRZl9Hnz37ZgE9efwKzbpiEKaN7IVTxvgscTq/mi6BgbVXhyK8O54BTSUuvakw8HH37aasIwV1LtyoOeQ3L8hnVP8BICCGEEEJMjXMOsuLMTjSM0ka/uxwxVYUSxL6H177U1hWmjHYct1uBTxv0GTcXH25aZxgJTsLmH5PUtZgjhhiHYaMw3H4gOGUvtp/W1m0IQZ++1gfqYr7eUkVscDq+/cIaq2xLLwwcoK0q+x1WqhQaGlL90o4j1YQQQgghzRknY5DDcf2tQ7V1haOLcMf9y7A9zTiSXIi0Hctw712LKmZ9QNAM/N9Vtg6jTOHmcPzZI1RxMLV1QQu9KMwzPHWXmGQb/1yag+jX38UeLWvP8EnXWeOfj76KB9+LtfvuQsS8dz+e361lHTDmt9dWfMaeF+7Ha/usD+3ZkLkPS19awwf0CCGEEEKaOc7NgyxILPAt11rDHXSCQtCtjS+y0u0fmAvB1HfX4x9X2E6Llrj0Zox/F5hy87W4aqj+UpA07P73u1i6Q3+hRxTmbVyDWRGKC/vNXETNtYZshI6eiTm3D0VY5hF8uXI5olO8EZSdAz3KYuq7R5Tv1DJIx+r/G4end2hZBZ+IUZgyKhy+inOcuHMjtscXYuCgKBzWn8arNM9z5c8IGjQJ06+ehBFdldor9fhm43pE/5iEQmfmiCaEEEIIIabGeQdZyN6H1+6fibd3Vx+DLG+bm/rq5/jHtSFagRXVQX7FEDZhj/2xVTnmgrLv9LfnouCB5/CVVmTrICtkb8XT1z6A1Sla3o7Q6e9i4xXrMLS6F6EUyoOCN2NhTec94lls+TdjkAkhhBBCmjO1m+YtaCge+/cObFkqr4TuhW7GeFuPNgjtNwrTn3wXG3ZvdegcC2FXzMRDk4aiWyfjyLIPgroOxZSHXsB/f7I71qMXZn26FYtnjkIf/fuU7+pz2Uws/nYjXr7Cfo4MO4LG4eWNG/Dhk9dieEV9le9T6jpr0QZsfXEcfIyzbjia8s1HqYN23lOHhiPIcNo+7cKVutyMeUvX4ejHdI4JIYQQQpo7tRtBbqEcfm0yrnvP8lAgpr+LWMVpJoQQQgghrZPajSC3RPK24v1/a86xwpiLKqatIIQQQgghrZAW7yBvfu0B9eE/h9HDmfvw2u/m4iv9CT+PSfi/KkJDCCGEEEJI66DFh1hsfnIA7pV5mYN6Ycy4YejmbykvOL0Xm3fEItswn/OYF7fik+l0kAkhhBBCWjOtx0GuDo8QTFiwHB9O76UVEEIIIYSQ1krLf0gv8yii16zEii934nC8Ya5mmXWj9wBMvGEG7rp5Ega208oJIYQQQkirhrNYEEIIIYQQYoCzWBBCCCGEEGKADjIhhBBCCCEG6CATQgghhBBigA4yIYQQQgghBuggE0IIIYQQYqDGWSw4yQUhhBBCCGlNVOsgy6bfvPaLliOEEEIIIaTlU6WDLMVlZWWY9PpurYQQQgghhJCWT7UxyNUMLhNCCCGEENIiqfEhPd1JZsqUKVOmTJkyZcq0NaROz2Lh5uamrVlwU/4zwu3cboTbud0It3O7EW7ndiPNZbtZ66XD7a7d7jFfQVuvhHjRK346U7HOlClTpkyZMmXKlGlLT6t9SK+0tJQP6RFCCCGEkFZFjQ4yp3mrA4XJuHD4WxTgIgQPGQFPD62cEEIIIYSYnro5yOXFKD79PXKP7Ub+2QSUFBRbyt384BHQBd59xyG4/2h4+3tZylsVWbgQ/SjOJWnZ8JnoOuVy0EcmhBBCCGke1OggX/n3n7USC2Wp0Ti3aTUKLmgFVeIFr6jfI3T0CHjYxj23cNKQ8+XTOJ+hZdtPR+cbpsBTyxJCCCGEEHPj9CwWQvGJfyBlXWXn2M03FJ6BfnbP/xWj+Og7SP46GsUOXfCWSigChl9hCavw6Iw2o8bROSaEEEIIaUbUOIJ8xau71KkwShPex9nvdqBU2w63YPhefB/a9Y+Ep5ebur+bWwlKMw4ge8v7yM3Uwi4UPPo8go6XD4KH8jmW/ZgyZcqUKVOmTJkyNWfq3Ahy+Ulk/2R0jrsj+MbXEDq4Pzxshke94N5uONrd8AY69AnWyoDSmPdwPtHqMBNCCCGEEGJWapwHefmPSSg9/h4yTmVqpUHw/81zCA61eMayT6XUzQue3Xqj/NdtKFL94hIU5wYjoG9PGbK27seUKVOmTJkyZcqUqcnSGkMsJr6yERe+eQznz2obwmag8zVXVMzKIPvJULSOMV967CUkbz+prgPdEXzznxHYJh7Zn7+AnGxLqefg59Dp4ghLRsF4fNHup5F6IF1dR0fle6++Au6G7eXZB5G7fx1yE06itEgtgntAb/heNB1tI3vDXdnN+Hklh/6ClJ8T1HW0vwWdrp8Ct6TVyPjfJhQWFMOt/+PoMroXCrY8iHOnLLuh+yx0vXJ0RXy18fPKY9/B6S171HV4X4HQGTPgjXIUbvs90mMsxejzB4RffpGWMR5fjJLTPyBrbzQK07NRJirILCAhF6HNJXcisKOfdf/SnTj30VLkqyUhaDP1ZQR3UDPWz8uORuqaT2Exw3C0v+tB+Ct9GOP35f0wGxnxst0PgVe/ibYdjdstMM8888zrMM8889a8jqs/l3lz5msOsSg5igLdOVbw6TNCdVLlA2QR9HX7vHvX4YrDqJOAokzZ3h0BA3pbihRK4veg0OHx8ciP05xjBd+oser3CuXlRSg6+BLOrFmErBircyyUXTiJvO3Ktk+Xo6DQvn5qtgKJq07duEF1joXyEvkgL/j2m2g1TOIeFBQ7ql8RCpS663hGXaY6x46wfr92fMkZ5Kz/A1I2fIr8NM05VjfkozRtJ85//TCSfzyAUn1/j+Hw666uKqSjMDnN9vOUtCT5oOYcC0qdU+zrGy/TM1twuwi+ofbbmWeeeeaZZ575qvJVlTPfMvM1O8gX0q2xxwiBd4cgbd0JAjvbzP9bmm1xeD26jbI6ztk7UaBPiWYkYw/ytVFmeE9EYIR1TuXiQy8j9ZeTFnfULQg+A2egw4TZ6DB6MnwC1F2Uem9D+qZthrrbcxI5P+90vL2T4pDqFSzfgwtJDuKnSw7igjoaK/RGYL8KD7Z6ypOR+/WfkZWqfWZAfwSOVuqu1L/twP4VU+KVnvgnMk7oBvCCd3h/bR0oOqudewXFKEo6pq1bKErRRsp1so6hSPegI5SOi7WzRAghhBBCDNToIJdnJSvul44f3DytXnbNSyd4tdcOVago9x8O/85aIdJRcNo6IqovRfE7UaLt4d5TRqK1bVnRyPxFd/5CEDDpBXS4eAJ8IobBJ3IaOkx9GH6W6AQgeTVyzth+bgWKA16QrTjXIx5DxzuXoMvdynLZIMt+iIRfL/1DgILEozafIUtZouLY6x8XNhI+/sbtWrlQUWZZig+9j6xz2ragiQiZ+kcERSp1V+rvf/EfETpxVEWnovCXdSgssxzn3nGQ4iZrJB6zGXUvL96NPNUkneDZTt0DJWeOotiwT8lZJW/ZBN/ugyrViwsXLly4cOHChYtlcW4WC5cTBL9+w7V1oPjUngpn2EIi8k/p4RUh8O8Xqa0DRUfXVzh67pF3I7iz1ZFV8R6MNgO6aZl85CfoMdCV8Rr+ODoMioSHg9fcefedaJ2/OHaX4pBq6yrFKDSEV0j4h4OPcMBJXDiYqK37IWD07fC2xqCouHe7HgF6p6JoB/LTtPWgKPjog/flioOsO9lC8iEUSOodBf/wELUI52JRbDBqcfJxbS0Svp1a4xsOCSGEEEKco+YRZG8/w07FKNdGNGURjN525XwyiozhE8oHVWzrOhK++m3+jD0ovGA4/txuFOjRBe0nwK+d/nnpKEq1PKom+HaLrPg8y3bL8R5BFcPTKEs7WTGSasswBEZ1cni8urQbDt8Kh/QA8lMM24sPIk8Pr3AbCf/unrbHq2tW9M9E9klrmIOb8vlKNfVt6naF8vIOFaPA4uAXpemj6+Hwi9CcX4lDTrF4zrKt8MwBdR3dBiGg6yBNL8WmZ/XPP4mC02qhYs/B8PI1fp/99zPPPPPMM88888Z8VeXMt9x8zSPIbbob3gSXguKMYpun/YQq87nJNjG+XsEWB0/d7qk4qP300d9Y5CfqHjFQkrirYkTZu+8oeFV8vq3DnffdfUhecX/FcuZfWn7TLm0PBeV87eun0r43vLQTc1z/boaHCfNREK+PwCqc3lURXuHebyx8ZboMA/bfVvH5WYnWcJXyH3FOr69d/TOMg96G+nuFD64QrDg1VnPEE1GYZOk0+Hbtr56XPihddNYyWu2WfbzCMffqOcxgTwuOz98K88wbYZ55I8wzb6Sl5l31OTrMmz9fo4Nc7tsN3vqDbwoFJ3eqsysYPe6qltKkPVaHEMPgE2a73StiVEUFiuItszaUlycgP1YLr3AbhoBebQzHWIprRcWxyqIVqRjLq1jcw0dWOJtlp/TZNoyzV4TAr2+/SsdV9z21xnh8yCDrw3WJBy3xydlHUZgrBcPgF+6Jco9I+HRS91DjkEuU40rPKqlaEgLvjh2sn8eFCxcuXLhw4cKl0lLzCDK6wbe3fmtf4cxa5KRq69VRHoucA7FaRiFiJHysQ9EWOo2Fn+58p+xCgQyEZu5BQY6lCIoD7W1zTAi82mqr8sKSK19F2LRX0PGWatJJEwwj4LXE/zL46+HMRTuRL+ddcgj5enhFm5HwrQiHcIKgzta6+E1A++rqraXtIg22d4u0Tvem2FdG08vOHrJ0QjopzrP64UHw7qpV+txJNQ65OFUb/fYeBB9t/mRCCCGEEOIYJxxkmeN3KnwqRp+zkbflAxQWyuCmZUS0UlqWh8Kf3kVeRbhwCAIGDpMd1Jx1/3CD830cBSlFKE74WRvt9IN/36FquIJ1/47wrJgVIxslOYqH7xcEN982Vac+XhXH2w7tKlSqj33qCZ+eSr1V8lGYlIByQ3iFd9QEdWaJysepSQUV5W26wVO3Y34CSsqqqbeeKk6vsT7e3fX6yHzICShKsji/Xl0iK95S6NFxkPbQ4DHFiY5FgfZcoLtyLjIiXrm+TJkyZcqUKVOmTPXUKQcZ3iMRPNo6kwTydyFzzXxkx6egzGYi4WKUnfsR2eueRGasNabYvf+9aFPFyKVXr/EV05cVxn2NgtNaeEWbCfDTQgWMeEeMtIZl/PwmctKsD+3ZUBiLC7t/rGYeZOdw635ZxcOEpaf2IPfMXktGwj9612JOaEFGgHta466zN6+1PrRnR1nqRuSctL4oRcdNcX71sI/itK+RnyRrIfDuZBhp7jAYPupO+Sg++SOKte/wVpxoQgghhBBSPR7zFbT1SogH/eH/LHMOu7UfAV+PQ8hP0Rzf8lwUx2/GhYPrkBezA3nH/ovcX77ChV8PoLigzLKPgnvETHQYPajSg2sVeCuOXfJ3KMxT1gtOozS3RB3o9YicjsCODhzQoN5wT1X2V+Nus1EcE428JOW44lKU56Wi5Owu5O77GFk7N6KwpA/8+/aq+O6ytP8hL1mrv1+UzbaqCYNHwQ/IPyexClr9xOuOmIqgHg48eIXSxPUoyNQy7S5BQLcwLeMOjw6BKDp2AKqF8mOQf+R7FGZcUD6zAGXZySiK+wbZOz5EzpFDQOhE+IX6q0dW4OmH8sRNKJJ53XJSUCrGChiPNsMjDb2ddnDLstShLCPR8l1QHPrRI+DpXJeIEEIIIaTVUgt3yQueA+chdPwEeNpN+luWl47SC/m2EQxuQfAe/gQ6XD4SdpM82BEEn569LKtF+Zoz1wsBffXgX3uC4DfxebQJtc7lW5axF3l7luH8/5bg/K5vUJCcbqmLp2vm+/Xqrj9MqNRPHY31g1/fYU441w7wvwztrrkJ3roNy/NRnLgROT8pdVfqn31wF4pzLI82ujmcXDlEsZdmG83g7uGGl4hoeIbZjRZ3GmgXz00IIYQQQhxR8wjyVttXFrsFDYRf1OXwDvREecF5lJfkWUZUBQ8/eHQYBL/Im9Fm3Az4d2znlBPpFuyFksP7rOEQ3W5AUJ8uWsYBboHw6v0b+Ib4oyw3DWUy/Kw5i24+IYpzOBT+l8xE8BB9TmALZWnbrCPgflGKk+vMCLJCYBDKY7ehWJ+SI+A3aHOxccTWltIk4wjySASEh2oZDd9e8I0aBS+vXJTmZKK84o0eXnALCINXxGQEXfYAAroEauW2uHlkoiAmpqJD4j3oTutLRDTclM8uOn5U63AonzxwBvza+2g5QgghhBBSFW6KE2wz8KsjxaWlpRj7123qfHCSZ8qUKVOmTJkyZcq0pac1OsiXvfg/rUTxprUDdZhnnnnmdZhnnnnmdVpaXsfVn8u8efNOxSDLAUaYZ94I88wbYZ55I8wzb6S55l31OTrMmz9fqxFkQgghhBBCWjq1mMWCEEIIIYSQlk+NI8iXvrBVKyGEEEIIIaTlU6OD7OnJyXMJIYQQQkjrgSEWhBBCCCGEGKCDTAghhBBCiAE6yIQQQgghhBigg0wIIYQQQogBOsiEEEIIIYQYoINMCCGEEEKIATrIhBBCCCGEGKCDTAghhBBCiAE6yIQQQgghhBigg0wIIYQQQogBOsiEEEIIIYQYcCtX0NZtkOLS0lJ4enpqJeYkNTUVJ06cQGxsLBISEnDmzBmkpaUhOzsbFy5cQFFREcrKyuDu7g5vb28EBAQgKCgIoaGh6NKlC7p3745evXqhX79+CAsL0z6V1BXqYS6oh7mgHuaCepgL6mEuWrsezc5BTk5Oxs6dO7Fr1y7s378fBQUFiIiIQKdOnVRR2rdvj7Zt2yIwMBC+vr7w8fGBm5ubej6FhYXq/rm5uTh//jwyMjJUsVNSUhAfH6/uP2TIEIwcORKjRo1C586dtW8lVUE9zAX1MBfUw1xQD3NBPcwF9bClWTjIItrGjRvx/fffIzExEQMHDlR7JH369HFpr0R6SzExMWqP6fDhw+jWrRuuvPJKTJo0iY3LAPUwF9TDXFAPc0E9zAX1MBfUo2pM7SBv3boVn3/+OXbv3q32OIYOHYqoqChta8Nz9OhR7Nu3T+1RjRgxAjfddBPGjRunbW19UA9zQT3MBfUwF9TDXFAPc0E9asaUDvJXX32FTz75BB4eHhgzZoy6yDB+Tcg+cozEw8i6nurIOUm8jJ7K+VVx+jbIPtu3b1cXOeaOO+7A1KlTta0tH+phLqiHuaAe5oJ6mAvqYS6oh/OYykGOjo7G0qVL0aZNG4wfPx6DBg3StjjGy8tLXaSOsohgtUWELCkpUZfi4mJ1qY5Dhw5hy5YtyMnJwaxZszBlyhRtS8uDepgL6mEuqIe5oB7mgnqYC+pRe0zhIB85cgRvvfWWGtg9efJkDB48WNtii/RWJChcnpYU4ex7PSKgLMZejr7I+eiLiCbnJqksRmS7iChPZ0rQueQdcfDgQWzYsAHBwcF4+OGHMWDAAG1L84d6mAvqYS6oh7mgHuaCepgL6lF3mtxBXrx4MVauXInrr78eEydO1EptEbH0JyaNSLlxEeFqi5yjCGZcjIiI8mSmfbnOpk2bsHbtWsyYMQOzZ8/WSpsv1MNcUA9zQT3MBfUwF9TDXFCP+tFkDvKxY8ewcOFCdbhfgrNl6hB7RDARTsTRkd6NLqb0YlyN9Hh00aSXoyMCSplss0d6ZhLsLrcF5s2bh/79+2tbmg/Uw1xQD3NBPcwF9TAX1MNcUA/X4DFfQVuvhDjJDWGkL7/8Eo888og63H/DDTeoghgRkURYPz8/tdciddAnoPb391cFtR/+dxXyufL58t2yyHdL/Iyk8qORuonI0nnQkfoPGzZMFXzBggXq1CjNqVFRD3NBPcwF9TAX1MNcUA9zQT1cR6OPIL/xxhvYtm2bOmTeo0cPrdSCiCUCiaEE+W7JiyFrQupblahjx45VU/leR1R3rE5+fj7y8vJUMQURS94kYxRSiIuLU29pyHc++uijWql5oR7mgnqYC+phLqiHuaAe5oJ6uBbXDw9Xw1NPPaUO/T/22GOVxBOR2rVrp4onvQnp4XTo0MEp8V5//XWcOnVKy9UeOVY+ozqkHlIfqZfUT3o6Ul/7+sl5yfnJecr5mhnqYS6oh7mgHuaCepgL6mEuqIfraRQHWXoDEmAtvYP77rtPFUlHjCFD+zLEL+iGkp6Ns8i7vk+ePKnlao8cK5/hDFIv4w9LvzUh56Ej5yfnKecr5y3nbyaoB/WoDdSDejQl1IN61AbqQT1chfVbGwip/EMPPaQGicuwvxGJRZFy6S2IAWRKD3tjCBK8LUtViPHr28OpTkD779d/dFJfWZf6y3nI+RiR85VyOX+zNCrqQT1qC/WwQD0aH+pBPWoL9bBAPeqPraUagLlz5yIkJATTpk3TSixI4LVuAFmXXoN9MLmOTPPxww8/aLnKiPF79uyp5WqPHFudgPLdUgd7jPXWf4D25yDnLecvdjAD1IN61BbqQT2aCupBPWoL9aAerqJBHWSJEZEhc3vxpCwwMLBiXReyKq644gp1PjwJ4naEfNakSZO0XO2RY/X62CPfKd8tdXCELpx+y0I+R1/XkfOXsqaOYaIeFqhH7aAe1KMpoB4WqEftoB7Uw1VUbbV6Ik9Tyvx19sP+ciL6CUpAtiw1ERoailGjRlXby2ko5Dvlu6UO1WE8F+M56ogdxB5il6aAelCPhoB6VIZ61B/qQT0aAupRGepRNQ0yD7LMw7du3To1gFqmEtExnpjEmNifZHV07NgR/fr1qxSH4gwyh97VV1+Nzp07ayXOEx4eri7O1FXqJlOpyGTXej1lAmwdeff5f/7zHzXIvDHnVaQe1KM6qAf1oB5VQz2oB/Wompash5viBLt0HmSZfuPOO+/EM888YzPViMSO6MPsIp7+lKLO/v371ScW+/Tpo5U0D2JiYtT5+oYMGaKVWOb0y87OVtdzc3NtAtBlHr+XXnoJH3/8caM0KupBPZoS6mEuqIe5oB7mgnqYi6bWw+UhFvJ6wzvuuMNGPPH2dfFkmNxePEHenrJixQqkp6drJeZH6ip1lrobkfPTbwfIeRt7ZWIXsY/YqTGgHtSjqaAe5oJ6mAvqYS6oh7kwgx4uDbFYvHgxsrKy1Ncb6uhB1vImFRlG14W0Rx+e//bbbzFy5Mg6hXY0JjIH33vvvYdLL70UY8aM0UqtiGhiP7kFINOUyG0BfbA+IiICR44cQUJCAi655BK1rCGgHlaoR+NCPcwF9TAX1MNcUA9zYRY9XGYlqZC8AvCmm27SSiyIYCKG3ALQvf6qmDhxojoliP3rBc2I1FHqKnWuCjlfOW85f/sfrthJ7CV2awioR2WoR+NBPcwF9TAX1MNcUA9zYRY9XBaDLAHjvXv3tjkhGQqXuBc5AZnPTtLWhtweOHfunJpKLI3Ez+jI9CaxsbF45513tBLXQT0cQz3MBfUwF9TDXFAPc0E9zEVD6+ESi0ZHR6tD/0bx5GlDEU8QT781iifIees9O7GH2EVH7CVTk4j9XAn1qBrqYS6oh7mgHuaCepgL6mEuGloPl1h16dKlmDx5spazoIsnvRwZBjfyyy+/aGstF+M5yvmLHQSJEzIidhP7uRLqURnqYS6oh7mgHuaCepgL6mEuGkuPejvIX331lerBDx48WCuBGjQti3j39rEhMm3Hd999h88++0wraXnIuck5yrnq6LFCMkef2EZH7Cb2Ezu6AupRGephLqiHuaAe5oJ6mAvqYS4aU496O8iffPIJxo8fr+Us6F689HKk0kZkHr7HH39cffrw73//O06fPq1taf7Iucg5ybnJORrnHBQ76L0++16O2E/s6AqohxXqYS6oh7mgHuaCepgL6mEumkKPek3ztnXrVuzZs8dm2hHx4GW4Wx7uk+lHHCGfKZ69pAMGDNBKmz8yQbec01VXXeXQbjI1iUxHIsgDkPrTpGFhYdixY4f6ukWZoqSuUA9bqIe5oB7mgnqYC+phLqiHuWgKPSp/Sy34/PPPK81Rp8fD2Hvxjhg9erS21nKo6Zx0u9jHDYkdxZ71gXpUhnqYC+phLqiHuaAe5oJ6mIvG1qPODnJycjJ2795tI6B48LKIdy+9HFIZsYvYR7eVjthR7Cl2rQvUo25QD3NBPcwF9TAX1MNcUA9z4Wo96uwgb9y4EaNGjVLf4KJTm96NK0leORNjx47VlplYlaRt2LbAUG5ZZq4UAyVj1T0LsN2yl4WkVZh5zyplS8PjqJcjdhR7il3rQqPpIXaqsKPOdiyoVNZ8aNZ6OKLa372x3K4NVKDs94KlLSSvXGBtT4J89guOj3IV1MMeR3pY2pzlOMM1rwGgHvbUpEdVx7kG6mGPIz10RBe2j1rR4O1DWRrwb4gr9aizg/z9999j6NChWs5SAYmPEYwVKyoqwhtvvIFTp05pJa5FnONbTt6Hbdu2WZZVUxB9m1W4vg9+at227VX0eGdJFaI2HCdPnlRtILYQdPuIvYwNQOwpdq0LjapHn77Ahi1qA1DZtgFxUtZMaHF6OMD2d78Ny2Z0VtrKPERPNpS/DDzh8EIVh+OIgLycNO4kEBFuKVU7ok/X7YJfHdSj9npsf+EJ4GXtOLnmPWv5g+QKqIdWXgs9klcuqdDj0wfjsER1KFwD9ai9HhbEoXsCrr5iUY866JEUr/gIc/Cpfuxz1pHx+tKQetTJQZZh6sTERERFRWkllsoIMsWGcbLmzZs3Y82aNbjrrrvw4IMPqtNzyFOIriEZWzb0wKtGY4ffhmXbnofrzF835Bw3bNigvgHn7rvvVm2w9cu31W1iH30qEt1ugthT7Frb2wCNrkfvKVD+JGOL1ivfvikOUyb3sGQUjCP6lp6npWzBC3rPVOnAaCPRxtEvmzsBWsOTspn3SPlM/O2ZsViwTS229HIdNk7HtGg9nKRz9x749WScllMY+3ylC9X2F8T+yh+V6CdUHZ6I3ogn1Dsr27EFC5WL4iRtz/pBPeqnR4/ntuH5sdpO4RGwtr66QT3qpwdmLLPq4QKoR32vV/K3Qxy6VzHHOtlBnaEe9dQj7jh+jXkLtyhlrrjj1Vh61MlB3rlzJwYOHKjlLOgVMvZuhM6dO+OSSy5R1w8cOACZNEPek71kyRKkpqaq5XVHeiqR1f5x+PWdW1ShLIuMujSs8yzntHjxYtx44434y1/+goMHD6rlo8OzEV60Q10XdDvpdtMRu4p9a0Pj6xGB8ZOB42pb2Y4NJ6dgfHd1gxqCMW/DlIqe4n0nb6lwajdislomIyxPPAssVNeB6K3KD1aOe0fp7GjHvYonrM7wZMUx27YMT10zCRs3WZzi7Zs2YtLEmpVsHXpUxuZ3r/3BUC9oEzcY2kPlW2RjFMfr0wf7YpKMhq2ag75TXsW25behs9JqbpshYwL1g3q4Sg8duXW5BJEvGsuch3q4Ug/LbeRblOvYfXVsK9TDRXpsW6DeWV42o35dR+rhGj2QEGcdla7HHa/G1qNODvKuXbvQr18/LWdBD4g2euyCTDciw9+rV6/Grbfeqk7anJmZiRUrVuDjjz/W9qorPRT3+LjiJtuSvG17hfHtbxW4spfviI9W/Eudc09ecRjkU4I7LzqLtbcfwltX/4qh7huBMsttAN1OxkByQewq9q0NTaGH9CZVZ3XbBmCW4Y+zTU9RepBKUYJFDaND23fyePUY+ZwKpkyu6Lz06N234rge3bVPH3sf5pzcoI4+Lzk5B/c5oWVr0cMem9+90aGSi5xevioSS/SLn4aMANzyzq/Y+LSi321v4VcZCbDbpz5QDxfqod6F2YDJSufxtorbyrWDerhQD+Xq9bx67GRsqGOboR6u0ePrTYqt1FHMW/BWzK94yxB2WRuoh2v0kDssEqahIne8Yir7bc7Q2HrUyUHev3+/zSTNUgmJ9ZBUniB0RJcuXfDwww9j7dq1mDdvHiIjIzF16lRta13pjPGT42zjYGQk8uklFbf/HdMZEb032sSJJW9VPDnNaasrngcW4ka/pRgUdgHzJ8Thh7v345HRSejaxjI3H0ry4Z68WV3Vn7TU7aYjdhX71oYm0WPsZEyK3oAFmxSzGR3VHpHoa4w1UpaKhlETyufpSsad/NXqGFdg0XvJs85p1ar0cAK5eFWMygsObs2Pee5TzJli0e/TBydhziq7C2Q9oB621EsPCTFS78LU/Y4Y9bClPnrEGY+VeEtttTZQD1vqo8fVz1n+9mzbpmzv01cpr307oR62uKx9bNuAjYbBMGdpCj0cW7saZIi7oKBAnXxZR6+AsSJVIUPeV199NT744AObH0Fd6az0TD7tvcQ67H9bNKasqnlEZcxz8sCe9TbCLRumYGE9byF7xH+JAW0SsPyGY7i23zmt1BaPhC+1Ncd2E7uKfZ29PdJ0eozB5Ckb1bAJmx96+G1YODm6YgRZFptGVRVynIReaMc8gVcdjvZ3HjcFiAGmjKtZq9alR83IxStyqVWXsY5uzSdtQbT6gIXE9xsfeKk/1MOWuuuRjFVLNyrtwHqnpi6j/NTDlvq0D/l7Ahk1k+Pkb1AdQl6ohy28XlloCXrYtI+nYfvcmJM0hR5u5fK6PAdIsbyJRN7YYkR6ZR9++CEeeughrcTyhhMRRt7sYh8j05rw3P+isvxVyzmm3Kc9Cm+V4W03VaisrCz16cvs7GzLDgpvv/027r33XvXHVBOtTg+5rSwjZzKKphVVBfUwF9Sj/mT+8BUu7N+B8EcXaiV1h3rUH+rRcqEe9ae5t49ajyDHxsaiU6dOWs6C7kQ708NpyZR2v15bqxq3wgy4Zf2qruv2su+EiH3Fzs7QqvSQ28q3vYUexpjnaqAe5oJ61I+zH7+FM/94FoWHfkHSG/O00rpDPeoH9WjZUI/60RLaR60d5ISEBPWd1joS4yHxHrIYpx85d87xELgZyd7+PVI+/Lsi4p+0krpR3m4wygNrftd3RpLlyUuxl247saOO2Ffs7AwtUY8q0R4QcPZBS+oB9Tctv235jTc11KNuFMT/isRXn0T6f95Dp8HDUZCWgoAh9X+NLPWoG9Sj4eD1iu2jKppCD4/5Mi9IFUiYhXy4kVWrVqFv374VMTLincuwv1TG+IaXb775BsuWLVMDomUiZzmmMXtAMtfdZ1+sw79Xrca6/67Fpq0/IenMWXQKC1Gf9BSytqzH2Y/eRMqy14Gc88g9uAtuXj4IGDhc3V4X3DP2wT3TIpDOhRIffBQ/Ad+kDMenSZeipCAbUSMmqtvkNkBZWZl6G0BSIScnB8eOHcM111yj5qujJenRELRmPdI+XYpzXyxH8aljSF+/CgWxx+Dm7gbfHv2oRzNpH21z0pC9/O8ojjuO0H4DkHJgN0JuvR8h19+lHVk/qIdjqAevVwLbh2NaS/uotYO8fPlyjBw5Uo2LEURAmVJDxBEhdQYMGIDx48ejZ8+eqrARETV7/q5i7969eOutt3A0fxBS2lyLzHbX4bz3IJxJzcLu75Yj6HwKSle9hbMfvw1/D6BD5ECkH9yN0Gmz0HbCNfAMbq99Uu1xP38E7ilbtJwFb/dSFJd74tKQ47gpfCcuGhSFsvCr1G0inMR666letmPHDkyfPl3NV0dL0ENuech8jg1Ba9bDMygYbp5eOL9rM7pdOhGlKYlI/vxf2Lf/AJb/72fq0Qzax/4969H+Qgb6dOmEjMQ4BIycgC6z63enywj1qExNenRQ9OhNPbQtroPXK7aPmmhsPWodYiHBzoGBgVrOcgtAsHekBRG2W7duuPjii7WShkd6NvIjS+l4P7KCJqDUs51aLqnkpXz1jn04n5aG8DHj4ekfgKRd/0OX3z+F0Ftmwadbb3X/ulIe7PiVy6Pa/4oI/zT4uBfDLTtGK7XazXgLQOxrDCqvjpagh2yX/RqC1qyH/JblN93lvmeQtGOL+lv3GX0lvikLoh7NqH18498dsWfOwj2kE0Kn/17d7iqohy3O6PG1oscp6uFyeL1i+6iJxtajstVr4MKFCzY9GUcVaEq+3bgZmW1/iwKfnlqJLVIu23cF90LWmURkZ2Uj4pk3EHb7bHi27aDtVXfK29Q8tYpRQEcNQOwrdnaGptKjvKwUZQX5KMvNRklmOorTklGYnICCxFgUxMcg/9Rx5Mcew/ovvnJKD9GtIWgtelSF/Kbltx3xp0XIzszExix36qHQVHrY4+z16ie/cHT+3ZPwjXD8B6KuUA9bnNXjR+rRIBivV1kZGbxesX3Y0Nh6WI9yEhmelp6Ljl4Bswh49OgR5PoP0XKOke2/FiqNsc8gdP/TP9D2CtdNqF0W3F9bqxq3CwmK0pbhfkf2E/uKnZ2htnoUJSci/+RRXDj0C7J3bsL5LeuR8c1qpK1ZhtRP3kLy+3/D6Tf+hPgXHsapp+/GybnT8OsDU3Hi3kk4euc4HJk+EoeuH4KD1wzCoWsH4YCyHJx6EQ7ffAmO3j4Wx+++EidmTcGv912DmNlTcezYUaf0OLznF8Q993sk/eNZtR7n1q1E1rYNuHBkD4pSZNqWumF2PRoL+Y13f+5NxPu0dUoPaUcNAfWwxdnrVVJACPzr8WxEVVAPW6iHOfSQ61XEn9/i9cokeui0tvZRawdZAp0diWUWAQvzsiuG/atCthe7lSvO8SL49R2klboID+uPu1qKLT2YqmypB5TXRG31OHzLSByb+RvEzLkZcc/OQuJLf0Tym/ORtvx1ZHz2AXKiP0XBz0pvPPYwPDNT4VNcgAAvDwQFBaN9x84I7dkXnaIuQtfho9B11OXodtkV6D5uMrpd/ht1XcJWuo68XFnGosvFl6p2dkqP8hJ4ZZxF6f7tyP7vx0hd+gri/nQvEv/2uOK8f6jtWQdMrkdjIr/14rJip/SQdtQgUA8bnL1eFRXlaTkXQz1soB4WzKAHr1dWzKCH0NraR60dZBmqdvRukSreN9Lo+PgGwqMkU8s5Rrb7+FuC4F1OcY62Uh2KaN6W76/KlsZbAtVRWz0GrzuEqBWb0XvRakQ89xa6PPRnhMx4EEG/uQF+g0fCvXN3lHh6ITczE5mxvyLt4B6kHzuIczHHkHEqBhnxschMjENWYjyyT8cj53QC8lKTkZ+RjsLsLBTnXUCZ0jsr136A3u6eTukh+/m2bY/ALt3QRlkCQzvCP6wLik7HoSwvV9uzDphcj8ZGfvfO6OHl7qWGyrgc6mGDs3q01utVY0M9LDQ3PXi9ahxaXfvQUqeRN7oUFmrvvlbQK2AGAdM+X44u5xIRmFf9u7Zle1TUAC3nWtxKanbmyn2sPTBH9hP7ip2dobZ6SIyXb4++CBwyCsHjrkKH6+5AxzvnIHzuC4j4y3vo8+bniFQc6IFf7sWgr49g8FcHEPlhNHq8sgLhT7+Gjvc9g/a33o/Aq6bDd+xV8Bo+FuW9BqC4Q2fk+/ghu7AIGWmpSFWc6eTD+9A1J80pPcLzM5GecAqZmRnI8/JDeUQkAq++DV0feRHBl1ueSK0LZtejsZHfvTN69CjKRsyDU5H+xb+0UtdAPWxxVo/Wer1qbKhH89SD16vGobW1j1o7yAEBAerccjr6ULW9gEuWLMHrr7+OF154Ae+//75W2jDkH9uP2Hn3qhNTX9mmGO3OfwvfwlPaVlukXLb/dtIErcTFKA3VEW/HTMGzh27Dy8duwNvHrd+t28045C/2FTs7Q0Pq4e7lDc92IerTxQEDhqPNyAlqbFiHqXeqD1J0nvUkuv7hL+j+zBvo+eL76P33lej3zlpELv8OA1b9hIGf78Ytzy5wSo/pz/8VkR9tQZ93vkLPv61A92f/ic4z/4gO185A0GjLnIZ1ogXp4Qrkd++MHr8JKkFIvwFI++ifOPXkXchT2phLoB42jMJ5p/Tg9apxoB7m0oPXK7YPGxpZj1o7yDI/X26u1Yt3VAHhsssuw80334zZs2fjzjvv1EpdT+qqd3H8wevhfvoUwvpEoou/D272zUOns+8hOHtzxe0ASSUv5ffcc0+DzZvoVsUtgHt7bsLcvl/j1m4/YVz381qp4wYg9tXnQawJs+lhxM3dA1179FTtTT2aXg9B7FyTHlOyYxHqXgYv/0CERQ0GUhJwYvZUpK58W923PlAPK+lffYySj1/DjR7ZbB8m0aOYeqipGfQQeL0yV/tobderWjvI8pq+8+crV0CfhFln4MCB6uTVISEh8PPz00pdR97RvTj5+B3I+O8n6DJ8DNqEWybKzj6TiDY/rsPvenfA+PAU9Dm/GD0SnlbTib3P4+mnn8awYcPUfRsCt+wT2potfh5FCPXJRs+AVAwKt5pdt5uxAYh9ja+brA6z6FEdYm+xu9ifelgwqx6Pz74PQ0eNRsKWaOSknFb3D+rWE11GXIqMT5ci5g/T1LZXV6iHhYzoz9TX6nYcNByD/cpxn2cGhiWtRO+0RWwfCk2hx+l//AmdqIeaNrUeRni9Mkf7sL9eDW8F7cP6SU7SpUsXZGRkaDnHFWho0v7zHk48eD080s4gtEdvePj4IP9cGlIO7wO690Xke+tx0R/+jN/9fiZeeekFLFq0SE1n/t/tDdaz0XFPrnk+xvLgSG3NcQMQ+4qdncEMejiD2F3sTz3MQVV6dOs/EF0e+JPahsq79EDywT1q25I2FjpgCDyzzuHE7OuRqrTBukA9lAv0lvVIePEP6HjRCHj6+aMkPw8lB7fjzquvwKt//xvbRyOTpegh01p2vOhi6mECPRzB61XT6eHoelWqtI87WkH7qLWD3L17d6SlpWk5pTLl5WolZDFWoiEoiDmM2KfuRsbaj9Qeooway6wJ6fGncKGkFF3nvoCeC95tkPn3nMX99LfaWtWUdbxcTcVeuu2MtwDEvmJnZ2hKPZoD1KNuSBvq+cL7CH/0r8gtKkLqiSNqW5M2J9P3nVv1HmL/eBvylTZZG1q7Htk7NqnOWNiQS+AdGITiCzlI2bcTXefMR+jNM7W9Gg/qsQlx4hwPHQmvgDaqHsnUo8n0qCu8XjUM9terotxsJO/diS6tpH3U2kHu1asXUlJStJyFkpISNS0uLlbThkBmqDj+wFS4JcchpGcf9QGy82dTcC72BNpNvRP93v0v2k68Ttu7aXDLiYVbgfXHXRVlncapqW4v3X46Yl+xszM0lR7NAepRf6RNRS75Gh1u+T3SlT86mTHH1LYXNuAiID0ZJ+6/Tm2bztDa9bhw8GfEv/gw2vfpD5/gdijMykTyLz+h21OvIUS5hjU2rV2P3AO7kOBAj+7UQ00bWw9XwOuV63B0vTq7Zwe6P9162ketHeR+/fohPj5ey1loSAELk04hbv5spP97MTpdNFyNL8pKiEXSjz/A75Jx6Lc0GmHTfw83Ty/tiKYjb9sWnEuZgsKSql+HWN52AMq9LdOQVCWg2Ffs7AyNrUdzgnq4Bmlb0sYil38Pv8t/q7S975EVF4NgpS3Kbbe0FYtw6tlZalutjtasR37MEeWPzR8Q3LEz/DuEIe9cKtKOHUSvvy5F+ynTtL0al9auh9w2bkM9TKGHK+H1qv5Udb3q8eL7rap91NpBDgsLU99lnZqaqpVYK1KdgIcOHbKZ388ZMqLX4NfZU1F66hjC+kUhPzMDp3/+EZ6DRiLyww3ocv88eIV20vZuWspLS5D14Zs4/+3PSPo4A/HfDUX6mck4XzgYB7IsDxAKZR3HamuO7SZ2FfuKnZ2hMfVoTlAP1yNtTW49R364ER79LsLpHVtQcD4DHQcOQVn8rzjxwHVqm3VEa9ZDXpWe8NKj8Pf1QUCnrshNOY2spAT0fPEDBI+/RturcWnVeiQnIlHRw8/PF4HUo8n1aCh4vaob9terC0r7OK+1j7atrH14zFfQ1ishcRuO3jhy+PBh9Uu7deum5iXGQ56klNTf3x/66/3279+P7777DitXrsS5c+fUd2A7ExxdkpWBM+/8BWmfKb35iF7yXhT1LW5evfqrL7QInfY7eLV37inExiL/hy+Qt+EzLafYJDsLhSfPYHdSO/wvfyjWpI1BUn5PlHccgY69L1ZtlZOTo9rYOK2L2Ezm6Lvyyiu1kpppaD2aI9Sj4ZC213bCNQi4aCRyjx/E+UN74dchBIEhYUiN/hyFp+MQOPhiuPtYn65urXqU5mYj/oU58MzJVO9+ZSfFIe9CHiIWvIs2I6wX88amtepRpugR9+LDcFf0kBFF6sHrFa9XVuyvVzlK+7iQl4+ef3lPaR+XaXs1Pk2lR50cZPniX375BUOHDtVKlB+hlxc8PDzg6emprguyLkJPmzYN48aNc0q87B0/IO7P96E8NRltQkKRnXoW5W3aovP9z6DTvY/Du7PlR2M2Mv/6MMrOp2s5K6EFWRh0LhYDM5QLca47Imc8joDgtupk1dLjE/sYe37ff/89Lr/8cvTv318rqZmG1KO5Qj0aHmmL7X57C3y690b2gV3IS05C2/AI9ZWv6ev/De+uPeAT3lPdt7XqkbDwEZSnJ6Nt1+44nxCLEi9fRMxfjIAoa12agtaqR9xf5wLpKdTDAK9XvF7pGK9XEspapLSPHs+/A/9W2j5qHWIhjBo1Su3lGCkqKlJTqZiOzNEnlQkODtZKqif5g1fV2CBfTw+UlpQgJzcHHX/3OPq+sxbBl/9W28t8FOzahOJTx7ScYwKL83HpkIEI62a5HaDbSbebjthV7FsbGkqP5gr1aFykbfZd8jU6PTAP2UrPvqSwAD4e7ohT2nLKh39vtXokvTFPPe+2HTvj/NlklId0Ro8Xl8KvT8O8htVZWqseia8/g9K4E9TDjqbSo6lwdL3y5fWq0vWqTGkfPf/6QatuH3VykGWuOxn+P3r0qFZieb+1IBWq7XQkeccPIGbOTTgf/Sl8w7og78IFtL/5XvRfsRntlR6f2cld9Y62Vj0BV89QU7GPLpyxdyP2FLvWdi5BV+vR3KEeTYO01aiPt6LD7Q8iLycHvu1CkLl+FU7Nn42Scus0O1XRkvRIXvoKcnZuQvvwCGQmJcC9a0/0euF9U9wBa43tQ/S4sGsz2oV3px52NIUeZsB4vbrA61XF9SojKR4e4b3UafO8O4VrezQdTdk+6uQgCxLDsW/fPi1nCcfQK2Ps5dRE+pcr8OsDU1GceBKlF3LR7trb0f+jzU0yx15dyP/+CxTu+0nLVY1HWFf4DB2jruv2EXuJ3XTEnrWJVTLiKj2aO9Sj6ZG22/+TrQieegdKsjNQlpONjOJy5JdpOzigJemR9ulSZPx3JUJ79kXayePwGTJKnZ/dPdC515s2JK2xfaSufl/VowP1qJLG1MNs8HpluV6FKe0jVWkffsp59Zi/GB5sH3V3kCdNmoSdO3faVECvWF5enppWR/G5VJx67j6ceXsB4OaGttffhf4fb0HYjIfg4R+o7WVuimOPIvOVx7Rc9bS56xFtzWof4w9d7Cj2FLvWhfrq0RKgHuZB2nD7yyajnVs5vJSrjDxWkldahuzScij/V6Kl6JGx4XMkv/8y2kf0xNkjBxD8mxvR7Y8vaVubltbYPjIVPVKW/k3VI5V6VElj6WFWqrteOfKTW+L1KkVpH22V9hH+6EJta9NihvZRZwdZhqlHjBiB7du3ayXKCRUXq4s8QZifn6+VVubUl5/gyO2X4fzm9ehw40xErfwfOt/7ODzb2c9MkYtDXyzBqm3WVy82CvG7cUi+Mn4LVny0DodylZocWIMlq7cjQ7u7IU9Dn5t3N8qLLb06I+k+QUjztcYFeXbrhYCrblXXxS5iH91WOmJHsWdthv+N1EePM2fOIDk5WctVB/VwFuph0cOtpAgBHm5or/zV8XF3Q4HyB+dcSTnSPKxPjLcUPXJ2faPOrVvevps6Z2joHQ+h86wnta0NCNuHQ7J3fqPOWFHegXrURGPo0VyvV+nFLft6hXaW9hF25xy2Dzvq7CALN910k42AQk29nG+++Qbn//44irr1RdQnW9D1wWerjnM5Fo3jUfdh/JkNsP2WBiRtO9b8GIdzeUXYuKcIt83ogEPf/oTokxfhvkvjseFnZR+lN5Kx4D6Upp62HGNHXFAnrOhzBX7sOFDNB896RrG0h7ruqHcjiB3FnvWhrnq89tprOH78uFZSDdSjVlAPqx7K3xwEqn94lD86vgEoz7/QovTIP3EQcc/PhXtYd5SdOYGCx19RX1bQ4LB9OET0iJ8/Fx5hESg7TT2coSH1UOH1qlY0dPuouF4l/4p8pX2E3jJL29qANLP2US8HWaYWkYBomaRaR+I+5M0lstiL+PLLLyM9PR1d3vwSl3zwNXy7V/1GFJXzSi8gEOjQvoNW0AiEjsHN47rAG+dwTvlyb48QdGh7XumNKBVR6tGhBMhe9goKd/9PO6AyF6edwO+PRyPT2x/LBl4H38uvVsvFHrpt9HgiQewndhR71oe66vHss89iwoQJWmk1UI9aQT0q4+nmhu6lefDx828xehSlnkH8Cw/DW7lIF+XlIGLGH1E6uX5/HJ2G7aMS1KNuNJQeFfB6VSsaSo+K9uGhtY87/ogytg+H1MtBFu644w5s2bJFy1nQhbtw4YI63K1zzTXX4K677kLHYVVPs2Ej+kURwKYt+G8qEKkVNR6dMcLrINZt2o3CsN8gomQjtkSfUyvi0cHy9r6CaswXVJyH687sxbU33KDmxQ5iD8H+hy32Ezu6grro0a6d5dWMjqAe9YN6OCa4tKDF6JHw17nqHJ1l7YKQNOkxbAq6iO3DSaiHY3i9cjW8XglybEX7aGtpHz+0Gcz2UQVu5cYocANSLF63TEZdE7fccosqzuDBg7USoE2bNuqbXeQNMEFBzj0NKSc4d+5cBAYGqr0heSWgGREBnvr9TGQnxOLPnsnwdXNoQgQ/8BwCpz+grmdnZ6vxMTL9iKzrHDx4EOvXr8enn36qldQf6kE9mpLWpMd/p09A79yzCL7oEvR47k14h5nv5QnUw1zwemUu2D7MhZn0qNpFrwWzZs3Chg0btJwFOUlBKm0fD+IIEe+hhx7CsWPH1BM09ozMhtQtx8sPJ8t98JeSzsh3YEafi0Yj8Jb71XU5f7GDIOdpROwm9nMl1IN6NCWtRY+Vt09G76wzOBkQhvC/fWTKPzYC9TAXvF6ZC7YPc2EmPSp/cx2YMmUK2rZti02bNmkllsma9crKqxOrayCyXRpTTEwMevfujX/+85/qO8fNivSI33zzTfTo0UMV8fniTjYieoR2RvsF76vT16liK+cniD3ELjpiL3kLjtjPlVAP6tGUtAY9Vtw2BcMzYrGvXQSuXb2ZetQDV+qxl3rUG1foweuV63Bl++D1qnZYv7WezJkzB2vXrsX58+e1EkvvRoa8jSdhj5Q/+OCDamOKiIjAW2+9pRrI7MgtDqmrvJklXhMxt9wd7n7+6PDKv+Ee3F7dT//xih30Xo4gdhJ7Pfzww1qJa6Ee1KMpacl6rLj9txideRI7gnvitpXR1MMFuEqP26mHS+D1quW1j51teb2qLS5zkAcMGIAZM2bg888/10os5Obmqicgw+CORJTGdOrUKYSHh6sGEcO4krg3hqlxOpZlGBad1Da4AOnVvf322+jatasq4oKSLkrP5gN4RfRVt8v5ynnL+YsdjIidxF5it4bAjHp8+zs/3LPesm6ri2u0oR5OcnIRhul2/923WmEcFl1s0OPiRUpJ/WipeqxW/kZtC+qBGR+vd/n1CuvvqdBg2Bv1VcAW6lEHqIdWYsEZPXi9cj2uaB+3f8T2UVtc5iALs2fPViu9detWrUSLJ9GEk7gZPXZG57rrrlMnb37nnXeqffqyrhw7dAy3fpav9i7y8/dibm9tg4to3769ejsgLCwMN0y/FT4XW6YSMZ6rnL/YQUfsI2Vir4bEPHpYLmY3rtSyCj0e3atpoiyHXsatC79wiTbUoyYULW5djnsOWWz/BW7UOi3HsPfwrfhC1+SXueih7l8/WqIeYZ274A7FGXP99epb3DMNmgZHcc8nN7q0Qy9Qj9pAPeqiB69XDQPbR+Pr4ZJZLIxIUP6dd96JZ555Ro0h0ZEnWPWhfXnqUnocOuL9N8ywvzhmUXj6sJad8QXyP/itlnEtxnOQBqs/SSnl0svRiYuLw0svvYSPP/4Y/fv310obDlPosX4RFvWfi8iFflh1Uz6WX6OVqyiN7OLjmO+iC5wO9agKO3vLCMDntyF/3nEMG/S08mfHgnQqbXWqH9TDCWSkbGEk9mrXKLnLMr/fXpfqoEM9nIB68HqlQD2qoBW0D5eOIAtSKZmoeuXKlTaTNctJ6B6/nJycpE6DiKdi28u09j5djyPx5HyN4ok9xC5in8ZoTIIp9LhmbpWjw3FvPAMscK1zLFCPaji8HGu1nn7cif2WlWN7cUw6kMr35ud/AUy7R/nT5DqoR93Yf8K1ty11qEfdoB4WGlUPXq8qYPtoXD1c7iALN9xwA8aOHYt//etfWokFOSGjiPp6w/FbLM9frvxrof+g/g0moCDnYxTP/vzEHmIXsU9jYh497InD2k+G4LYG6HEKcj7Uwx6lTXw2BE8PssSN3fiJpV3gmuWGuyv9MWzgfhx38e0yOR/qUTuG9HN119GKnA/1qB3Uw4qxjg2nB69X9rB9NJ4eDeIgC48++qgaZC0evRHjiUmciB4/0yDILYCK4H1xxoB7pjaMgMZzcSSe2EHsIXZpCkyhhz0n12L5kNsqOjCuhHpURRwWPb8fL+sxfXdYLmpye6ziIQvRBffgehfG61MPJ+gdiSErV2kjYZbr1bAGGpiiHk5APSpoOj14vXIE20fj6OHyGGR7JFBaKj5t2jStxIIxZkbW5elKd3fX++vSkKLmWSKV+i88ir2PutZB1oPk9aF++5gY4bPPPlOnHVm8eLFW0nQ0pR4yi4VNDPL6ezDsxHyXakI9nEDi+Kb9R121tgljvH5/5Q+Sax5opR61xKE2roN61BLqYQOvV9TDhhbePhrcQZb56WTS8JCQkEoienl5VQgni6yLmM0FEUrEExF1IYuLi7WtFkS89PR0dboSb29vrbTpoB7Uo7GgHuaCepgL6mEuqIe5MIMeDe4gCyKivJNd3t4ic9MZEeGkp6OfnMQZSV7KzYqIJT0ZPRBezk/yUm5Ehv3lVsCiRYtM0Zh0qAf1aEioh7mgHuaCepgL6mEuzKRHozjIOk899ZQ6FH733XfDx8dHK7UgwgUEBKjrIp6si+BmQwSRVxrqYsm6LqSOPE0pAeNy6+Nvf/ubVmo+qIe5oB7mgnqYC+phLqiHuaAersdjvoK2XglxksWYrmLSpEnqKyj/85//qK8QlBPUKSkpUU/cw8ND/U7pNUjezc1NvVXQ1IhI8gSlDPuLXaRuMuQv9TQi8/AtWbIEw4cPx3PPPaeVmhPqYS6oh7mgHuaCepgL6mEuqIfraVQHWRgzZozau1m4cCGCg4PV97Xr6IYRMUVIQfJiPEEXt7GQEXT57qysLFU46dVI3fThf6mvEXmDi7xBSN7/PXPmTK3U3FAPc0E9zAX1MBfUw1xQD3NBPVxLo4ZYGJE3woiIEjh+00032fR2dERoCSo39nAk1kTKZFtDiCkiyY9GBDP2XiQ4XMpkmz1yW0Pe/S09nnnz5jXapOGuhHqYC+phLqiHuaAe5oJ6mAvq4RqazEHWWbx4sRpsff3112PixIlaqS0ioC6aESk3LnqvqDbIOYo4xsWILqZ9uc6mTZuwdu1aNTheplxp7lAPc0E9zAX1MBfUw1xQD3NBPepHkzvIwpEjR/Dmm2+qQ+2TJ0/G4MGDtS22SLyMiCi9HBFM8kakxyOLCCmpbNcXOR99kV6MnJukshiR7SKW9G5EPMk74uDBg9iwYYPaM5szZw4GDBigbWn+UA9zQT3MBfUwF9TDXFAPc0E96o4pHGSd6OhoLF26VL0tMH78eAwaNEjb4hgRURapoywiWm0RASXuRRYRTpbqOHToELZs2aIO98+aNQtTpkzRtrQ8qIe5oB7mgnqYC+phLqiHuaAetcdUDrLOV199hU8++UTtqUjQuSz2vRlHyD7G3o2e6sg5iWB6KudXxenbIPts375dXeSYO+64A1OnTtW2tnyoh7mgHuaCepgL6mEuqIe5oB7OY0oHWUeeWpTg7N27d2PUqFEYOnQooqKitK0Nz9GjR7Fv3z7s3LkTI0aMUIPdx40bp21tfVAPc0E9zAX1MBfUw1xQD3NBPWrG1A6yTnJyMjZu3Ijvv/8eiYmJGDhwIPr164c+ffogLCxM26v+pKamqvMInjhxAocPH1bnErzyyivV+QU7d+6s7UWoh7mgHuaCepgL6mEuqIe5oB5V0ywcZCMipvQ4du3ahf3796tPQMpcf506dUJoaCjat2+vBnbL6xT1JzPlNoCcjwSFy/4yz55MHZKRkYG0tDSkpKQgPj5e3X/IkCEYOXKk2qNiI6oZ6mEuqIe5oB7mgnqYC+phLqiHLc3OQbZHeiXSI4mNjUVCQgLOnDmjiiJvZZHXFMrTkhIPI/Ey8nSmvGIxKChIFbtLly7o3r07evXqpfaYXNlbaq1QD3NBPcwF9TAX1MNcUA9z0dr1aPYOMiGEEEIIIa6k9vN2EEIIIYQQ0oKhg0wIIYQQQogBOsiEEEIIIYRUAPw/oFbJ/Rmvdc8AAAAASUVORK5CYII=;" vertex="1" parent="1">
          <mxGeometry x="1000.0000000000001" y="1460" width="340" height="85.95" as="geometry" />
        </mxCell>
        <mxCell id="PEiCkukdCwHBLGiY2Sb7-67" value="" style="shape=image;verticalLabelPosition=bottom;labelBackgroundColor=default;verticalAlign=top;aspect=fixed;imageAspect=0;image=data:image/png,iVBORw0KGgoAAAANSUhEUgAAAqQAAAE6CAYAAADAwkAHAAAAAXNSR0IArs4c6QAAAARnQU1BAACxjwv8YQUAAAAJcEhZcwAAJOgAACToAYJjBRwAAHIsSURBVHhe7f0PfFxVnT/+vyikhQ61adq0kth2BEK1gTUEs9W2ulnc4rZZbN217G5S/AW1oTUodTGI7Ue3i592/wTWljULpopZJdld6p+iv4BL0Y3axq3RGj6SIoQ/UzBxISUEyxTaCHzf73PPnblzM/+TdJL09eQxdObOnXvvnHvOue/z507Ouvjii98AEREREVGOTLP/EhERERHlBANSIiIiIsopBqRERERElFMMSImIiIgopxiQEhEREVFOMSAlIiIiopxiQEpEREREORX3d0inT5+O/Px8zJgxA2eddZZdSkRERDR5vPHGGzh58iSGhoZw6tQpuzQ9r88O4tQlV+O1wlLg7Ol2KWXstVM4e6AH0x//Hqa9FLILRxoRkGowumDBAoTDYXMS9WQSERERTTbaqaada4FAAM8991zaQakGo6+suIWB6FiSwPS8g/+QMCgdMWSvPaMajL766qsMRomIiGjS0jhG4xmNazS+SZf2jDIYHWOSniZdExgRkGpLQntGiYiIiKYCjWs0vkmXGaanMZcsXUcEpNq9zZ5RIiIimio0rsnonhj2jo6PJOnKu+yJiIiIKKcYkBIRERFRTjEgJSIiIqKcYkBKRERERDnFgJSIiIiIcooBKRERERHlFANSIiIiIsqprAJS/S2vyspKXHnllTj33HPtUiIiIqKxU1BQgK/+Wyua7/43vGn2bLuUpqKse0jz8vJMRtHAlEHpWFqGT35xD3bfsMy+nniW3bAbe774STlSSt/EP69ERBNNwdx5yM+fjfnzF+CCC4rs0sln08ffjf5/fk/sY8dl2GTfpywDUv2LBz/5yU/M34Y9//zz8cd//McMSqeI9Z9n0ERERBPDU08+gW9/cy/a7vk6Hn/s13bpZPU6eh99Ht/5uX388kU8Yt85/RbiG59/N55uKLGvcy/rHtJXX30V//3f/22C0kAgwKD0DHLoSzdi46fuwCH7moiIaDy8/vrraP3Gv+He/2ibAn/W/HU89/hjqG+zj2/+BgfsO6ffuViUfw5mnG1fTgBnXXzxxTFneNGiRTh27Jh9lZoGoRqMalCqwakGqRqsjj8dAv0YLjtfn5/Arx4+hsveATy48QvYa94X13wOe1Ytsi9kna/eiDv+x75Mkw5Pf+wdM83zEw//CsfecRmwfyO+cK9ZZHjXyWo/3uN89lf41ZzLcNGTX8GNX9KQbz0+t2clXvJu06zv+65mvavk889g0UL3O+sxu9vxppd49kFsvNX9tO89j2c83zXme778K3wlTlAamxbPxByjea/gAB7EVbhqoV0Ycxzpid2HiLON1OfESa9ISo3YRuz70XR0aE/yysEH8eRFV0XSzb9O8vOqfMeQZR4lIprKLigqwu+Hf4+BgeftkuzMmzcPzzzzjH2VXPjqu+2zsaFD9p+/GDhw309xzY/sQjXvrXjw5rfg0td+h3/87MPYLYHi52+6ApuKT+H+r3bhYz3n4rrqUnymbCbedI6s//vf45GfPoarvjNoPr6o/K24bc2bsbJA3xSDx1D/fx/Fylveg7+efwL//je/wE3mjRL86J/fjJLn/xdFPz0Xv16bjzeZ5Y7en/0Ef/Qfyfc1VgLf+4h9FmvUd9m7PaUvv/yyCUpXrFhh3xlfy26oxmWQoGjjRmzceACz3xG9rBvv+iR2SzCgAdVGWecrDwOXffRzEgJkQLZRLUHur77qbONAwWWe4MHhBD7HJPBy1tm4sQ14ZyZ7kaDEe5yDF8UNDNO1SAK96LFsjAQ/6z9fDfynu/wrEhxd5RmaP4Q7PuW89+CzTmDlft4beJueUVn2lYdP2CU+EoB9zJNeDz67CFf555ouvApv+7U9jq/+CicWrsQn32XfS8PI9JbHr98WM83ArHPRkzZvyGO/NFY+utuzHycQnOf5nht/fYHnfQ3QJVDUIFXfk+PEOz6Gz11j37ZmvmNlNE33PyOvr/Lkr1TnNc4xaN75ywzzKBHRFLZocRB3Nt+NPV/7Oorf8ha7dLI6ByvXeuaQ3lICHHsat/78BE7OeBP++v9XAPxRCaqLp+GZh5+UYBR431+V4vPvnAn09WNbWwj3D03Dpe8pwTf+UDZ3ifz7V2/Byje9jl/8/Flsa/9f/OI4kO/sLLGeZ/E3bcdgQvNjEsC2PYZbD6bY12kw6oDUNTw8bJ+dDsuw7KKZeOanbg/dXjzoC5KWvfMizHz5V3jQBlSHvnRAEn8R3uYLKpIx23j2QKTHau+DEkA5T631uOodchz7vT2VEtx9Kf0ev2U3rMSiEceZvdhjidp7q7fn7RAOPXkCMwv84fXorH+bbM+fXudfhGXegNPzXfE/h/DkyzMxO9PDePml2DS69wsxvY5XaVD8n57e23sfxK9kPxe90wla3TRv8/Zm3ntHNH3etQwXnX8Cv3rQpuT/3IEDEqgvepsvVPR8V9z7azmmebjAftd0z+ux5z3HYBoG8c8fEdGZaHj4FF577ff21WTnm0P6K4kexYF7n8S3f/s6FpW+FT96Tz7edHwQu/9NeyWLcH3pTMyQ13+3+0l8TYLOjz04hOcxHRXlRfjgewpQcs7reOQnD+NqCSC/9oNeXL37UXzNbDWJY0O4/+e/x0l9/vrvzbH84Nnk+zodRh2QukP2c+bMMUP2Bw9KmD3uFmG2BAwvea7wh56PM83gxd9GgxIJB156GZg3P6a/LqlFBTNxYtCzk//5LWL28q4LJAR5Br/29CJmJc5xjjntMd6zB3vswwxnz7kgtvdyDIxML1/AGfNdHZmck0M/f1KC3MvwMfe7fN4XJJpzMhOXfTT6XffsiZ2OYM7rkxKU29fxHcNvIwG8nJVBaYr40ivmuxrJvqv/vO7FrzXIXeUeo7cHl4iI1G/7+1F//UZs/MiH0feb39ilk5VvDmn7/9rlQ7jpB4N4/pyZKCl4Hb842IN/N8sDWBCQf2YV4Ha3V7W6APP1rWnTsLJgujx5Fb/63lhMk0y+r9NhVHvJ3fxRysx6fO6jl+GYHT42Q8iJht0nuv+5Azd6v8PCq+IEczp3Nfpd3UfM/M4JYO+t7rE9KEdsg2h/gE1EdIb73//9LQaeH9380YktH7e/T4K/k6fw/MlpuOKdS/A+szyM58Lyz9AgbnWDWPv4mweP4ZHj2nN8Li65yqwc6zX93zTMvsS8AuZNwwz7NL7k+zodsg5IcxuMam9TbG/Usvnz7DOPmB4t7VX1D5Emp71iMcPapvfNw/QAZjYNwM/07MY5zmTiftdk4vTkai/heBiZXrE92WPJmdP6lZjheOecRIfO4zHn9aJlKXqHY7dh0itO724imZ3XvfiCBqb7JaEWvo1zSImIrBkzZuBTN92MT2z5G0w7ewLdEp6VaVhwyRI0VbuPi7BJAsb3/dVF+PMLpqH34cdwg3a0zJuPHdUFsn4/ftgnQWd+Pja9e7ZcRcTs2fjrqy7A+554FV87/Ds8L9u84k8q8L3qIK57Xwm+d+PbcZ2sdmDwlPz/XKxcuwQ3vieIb9TNcz7vN+t83F61BLdfnXxfp0NWAan+paaVK1eaYFRvZjr9PaPOHMhF73ZvmHHmcnqZOXvnX4arbLBo5vT5grJUzPCw56ab9Vddhti9OHNXF63y3oiyDJ+8IYOQQucejjhOLyf4jgRccb5rejyB87s+iZXuXe5xZDu31MwZ9afXy0/ikGfoe7T07vaYm4vMfE9vQ0PPycgb2NZ/PtqL6uaNau/vrV7zyWgvq5kzOhOXXWW3YNPrmV9nMLsz1XnVKRS+G77MHFz//FgiojPYJUvehj/64yvxvj+5Ckvk+eQ2DSVvn48PvjP6uPLyEny+fCZmDB7Drf8xhAP/0YcfHJcrdvlFaCoF7rrrMdz1xCmcu/jN+IwGsavn4w9efxW9urmf9WDD94+h9+R0XPHOhdhR9WaUnPc6huSt79wn2xl8HW+6YD4+s7YYi/qGfNeWZ/HvPa/i5Hnn46/fNx+XzUixr9Mgq5990oBU/2zoOeecgx/96Ec5GqY/U372SWjw8lE3GH4GD+4Hrkr0s0++Y4vw7kNvtnnyIlyld6KP+OkmZztuqkV/9il2uVfCn4bSY43zs0/+n5uK/Smk1DQojfxslPDu3xV7HPHW8X2frH72aeRPOMWkf0bnVch5ifdTWkREZ6o5cwrQ+M+78drrr+Hmv9mCl17ScCs7ufzZJ4pK9LNPo/4d0nje9773mZucEnnxxRfxgx/8wL4aI3rxf/dL43xB16DD95ugRERENOExIJ0Yxu13SHPmXZ/E5yJDrsvwyXcvSuPO6UzJdj8fHVZ1fspnbIegiYiIiM5049JDerrEDMtm8hd//EOlcUSGeP3D5THD5Mn5h5ZH4BCtR+IpAa4RfwmJiIgoTewhnRhO65A9ERER0UTCgHRimHpD9kREREQ0JTAgJSIiIqKcYkBKRERERDnFgJSIiIiIcmpEQPrGG2+YH74nIiIimgo0rtH4Jm2v6Z/epDGXJF1HBKQnT540fzuWiIiIaCrQuEbjm3SdPdBjn9FYSpauIwLSoaEh8zfqzz33XPaUEhER0aSlcYzGMxrXaHyTrumPf4+9pGNN0tOkawIjfodUTZ8+Hfn5+aZFwaCUiIiIJiMdpteeUQ1GT53KLMB8fXYQpy65Gq8VlgJnT7dLKWMSiGrPqAaj014K2YUjxQ1IiYiIiIhOF95lT0REREQ5xYCUiIiIiHKKASkRERER5RQDUiIiIiLKKQakRERERJRTDEiJiIiIKKcYkBIRERFRTjEgJSIiIqKcYkBKRERERDnFgJSIiIiIcooBKRERERHlFANSIiIiIsopBqRERERElFMMSImIiIgopxiQEhEREVFOMSAlIiIiopxiQEpEREREOcWAlIiIiIhyigEpEREREeUUA1IiIiIiyikGpERERESUUwxIiYiIiCinGJASERERUU4xICUiIiKinGJASkREREQ5xYCUiIiIiHKKASkRERER5RQDUiIiIiLKKQakRERERJRTDEiJiIiIKKfOuvjii9+wz8fMvHnz8IEPfABFRUXm9fz58/HGG29gYGDAvHa98sor2L9/P/7f//t/dgllIhgM4rzzzrOvRnriiScwPDxsX9FYOv/88/HOd74TF110EWbNmoWnnnoKDz/8MI4ePWrXICIionSNS0B6/fXXY9GiRTh8+LB5ffnll5t/f/nLX5p/XRq4vvvd7zbrnzx50i5NYWUDmjeXIWBfeoUPN6Hu9k77Ktbym5pRP7cDNVvb7BKfDTvQunIITZsaEX8LE8utt95qgqFkNE2/8IUv4Omnn7ZLMhQvrY93j18aTZJzsHLlSnz4wx/Gb37zG/T19eHEiRNYsGABLrvsMhw4cAD/+Z//aZZlbjka7qpH2Sz70gij+846NB6wL7ORdrpWY0drFfBADbbdYxcRERGdBuMSkO7YsQM/+MEP8MMf/tC8/uhHP2r+/epXv2r+dU2bNg3f+MY3sG3bNoRCIbs0AxkEMFMpINWe58bGRtTX12NoaMgujaVp++lPf9oETW1tCb5zEia9yuELhjRgqkLfpm3IfItpmATn4L3vfS+qq6tx1113obu72y51zJkzB5s2bUJeXp5pMGTOCUjzD4xxQDiJ8jYREZ2ZOId0Ejr33HPNv4mCUfX666/jxRdfjKybkZUNqC0fQHuNv2euE43jFYxOAvn5+aZndNeuXTHB6AUXXGD+1fS+7bbbzHqrVq0yy4iIiCi1cQlItadoxYoVpmdUH0uWLMHb3va2yGv38ZGPfMSsn2weZGZ0yLEVre7jrgYst++4tOcv8v7Oars0Hu2t8mwr6boTx5VXXon3vOc99lV2qteUAYfbUwaeJi13Nth0akbDSlmovXFumsmj+aboGXDWr055DoJpn6PTS9P1sccew69//Wu7xEnvzZs321cwc3bvvfdeXHXVVXbJ2KjeGZsWThrukByffrpGJDxHTp7fscG+1PWkDFVP0PNBRERTx7gEpHoDUzrc9dJdP6UNpWb+W02NPtoRmlWGKvfiqhZXoRYt9v0mdBdUxQRMUc7QaUlvU8y6kQv1BKJD8zfccIN5fPCDHzSBvg4bL18e73ulYzmKC4CB59Ic3F1cAtyjaeT0plYvBdpNmsnjgRAC5VUmaIpIdQ7knFW679/ZjbCsP1HS/a1vfeuIm5Z+//vfmwDUS+fs6rSKGTNm2CWZCa6OBotuo6ptqzcPVqPKTKfw9FannbfTOEdeE/h8EBHR1DEuAakOJR88eNDMGdWH26vkvnYfX/va18z6r776qvl31O7Z5pl714YeiR0KF3guykfbPTc9dUoAJRfjkhXmgh9j5QqUzAqhw7ducOnE6h06++yz8alPfQpvectbcOGFF+JDH/oQmpubcfvtt+PNb36zXWsM6M1NboDk9oS6jnbEDOu3bfUESff0IIRCFMesn+IcHO9Gi/v+gUZ0+M9hDumd9eFw2L5yrFmzBuvXr7evHC+//LL5V+++z0Yo0qiSR2Tep82Dci4adlah8HBLTLqnnbdFynPkNYHPBxERTR1TbA5p7DB71WK7OJHQEGLDCyuYjwCCqIoEYfJYHQQKiuNe4HPl0ksvRUFBgbmTfufOnfjnf/5n/OhHPzK/bvDtb3/brpWpTvQN+oIOCUTqTIDULsFLCjHBa5WkYgqJzsEEpDeILV4cm6n0Z8u0l9pLe1JPnTqFY8eO2SVjRBpc7YNlKCvwBImJJEvXTM8RERHROJtCAWn0DmW3d6k91U9CmsAzDr2Y688bub1U7mOC3aWsv3upv1CgvXYa/PziF7+w74xO25HEvWtJaaCzOR8dkTRLI4BNdA4moGeeecb89qj+xJNL54zq8LzOk3b92Z/9GZ588kn7agxJ+lYWhCRNfVNR4kmUrtmcIyIionE2hQLSIPJnhTEUubpWo9TfQ7q40jPcXI0dq4MIHYgTZB44iF656NcmmIOXa3oHvc67Peuss+yS+LTnTuc4Zsz2xNXbm2bSpkHQ8aFogLOhdGTvW7rnYAL66U9/agL/T3ziE+ZOeqW/O/pP//RP6O3tNel9zTXXoLS0FN/61rfM+2NH0mpzCXrNtJRuFK72nZt00zWdc0RERHSajUtAqnNC9bcYU3HX0b/YNHptaD8MlG12hyJLAX8P6dFeuQBHhyoLDzcl+L3HTjRuasdAeb1d13lMlJs5tKdOf3h948aN+Iu/+Iu4D53XqH+Q4NFHH7Wfykzb1ho0HS6MnbZg0sw3d9HrnnZ0SyBf766/FCN739I+BxOP/qEB/VknvVlJp0esW7fO/AGI/v5+cxPZ3/3d35k5pTqPN9t0VzE3Ncljxwbt/a9C0J2vK4Fmizk3nqA03XRN5xwRERGdZuPyw/iVlZXmbm//3Lp49Ian7H5E/MymPXT601qJfmdUe1GPHDli0nei0J8lSvrHCSYJvZls7dq1Jp/PnTvXLNM5o4888oj5Qw/PP/+8WXa6TJV0JSKiM9e4BKTqTW96E4qLi81zDZp0iNn/50G1ZzSrv9BEk9JUDJw0n+uNZdprrY2AXGBASkREk924zSH93e9+Z4Yt9aF/w17/so372n0wGKXJTvO55uNcBaNERERTwbj1kBIRERERpWMK3WVPRERERJMRA1IiIiIiyikGpERERESUUwxIiYiIiCinGJASERERUU4xICUiIiKinGJASkREREQ5xYCUiIiIiHJqxA/jh6++2z6j8fD2h7fbZ0RERERnFv1T2/Gwh5SIiIiIcop/OpSIiIiIcoo9pERERESUUwxIiYiIiCinGJASERERUU4xICUiIiKinGJASkREREQ5xYCUiIiIiHKKASkRERER5RQDUiIiIiLKKQakRERERJRTDEiJiIiIKKcYkBIRERFRTjEgJSIiIqKcYkBKRERERDnFgJSIiIiIcooBKRERERHlFANSIiIiIsopBqRERERElFMMSImIiIgopxiQEhEREVFOMSAlIiIiopxiQEpEREREOcWAlIiIiIhyigEpEREREeXUWRdffPEb9nnE9OnTkZ+fjxkzZuCss86yS4nodHnjjTdw8uRJDA0N4dSpU3YpERHR1DQiINVgdMGCBQiHw+aCqBdGIjq9tCGoDcJAIIDnnnuOQSkREU1pI4bstWdUg9FXX32VwShRjmjZ0zKoZVHLJBER0VQ2IiDVXhntGSWi3NOyqGWSiIhoKhsRkOpQIXtGiSYGLYucx01ERFMd77InIiIiopxiQEpEREREOcWAlIiIiIhyigEpEREREeUUA1IiIiIiyikGpERERESUUwxIiYiIiCinGJASERERUU4xICUiIiKinDrr4osvjvmzTIsWLcKxY8fsq+xNO/tsfOqmm/HYo0fw///efXZp5grfvgKXFNgX1ouPH8SRAfsiYzOxqPxynP/saLaRSCGWrrgEGNXxZcakDx7HwUdP0w4ppblz5+L//n0jdn5hO5599hm7NHvz5s3DM8+MfjtENIl85F9w72UP45pPfcUuGDsrt92Lj+Jfcd2ODrskgcq/w9e2FOCH6z6Bb9hFY87sowIB+9L19HfX4DN3yxNNhw9cZBd+e1zSI7VK3PL1m1H+JvtSRI5vzHwM/7jvHXhkPNPa0P1chRd3XYN/SHH603XtF+/H1W+1L3znyPteqjQblx7Ss88+B9s+97cIBoP40Y/+2y7N3qu/+SUOHjwYeZyuYC+lmYtwxYqlEoa6BnBkXI9PA94rsGimfSkGHpU0YTA6obzwwgs49D+d2PmPt2HhosV2KRHRRKeB1724pdK+7PhbXDfeAZLZxxpc4z52dSH8uy58zwQuEjx9YAEO79L3/gmH5/45/vEj5lM58LI9DucY53/gX3CtfWc8aCA3Pt/1K/jMurELRvUcFR/7p8j5+x7+HF/b5mQgbfhcDQlQ00yzMQ9I8/Ly8Lntt6KgYB4+e/NNOP6739l3iM4cLXd/Bd/77j78/T/djrdeeKFdSkREyVy7tgLPS5B6QF9ULsT83z2KAyZ46sCBx17G/AvcaDmHOv4bj/1uAYonwKHk3lfwD56e9qePvWyfVWLlEuDwfba3VM7pD5++CJcmCbLHNCDVntHP/93/RSAQwLZbGvDyy+6BjT0dqr5isaerUHiXzVx8BVasWBF5LI12Y8YYuR1/L6S+jm5nRfkimLcKl2LF5QtxLubgEl3+dt2BTgfw7UvX837erOey+yrUnlZ3HW+Pq4fpjb1E9nYuFl4u69njMN/T3abuS5YXRr67/R7eY4jZv4r9fv40pezd+x9t+Nbe/8SOf2jERRddbJcSEY2G9mLej3v32ccXP2aXOz1SkeX7vL1ROkwbXb7SLo3lDkufj/Itdrs6nP71v3PWt8+vdfdhlnu26zkOs65nf85x+Hpf4/oYLp3r9o6Kjmfx/JvejpXmM06A89hBDX50v7JdHc6P7MOTLu4xq8g6vuWjUfnHWAI3UNbX8b6v73yY9PGnQfw0cYe53/qB+Mc8crsO/Zy73O2ldM/bLeY9PTabds67CdLHk5bycHpq0zl/cszzzsfzv9WEuRhz3vQc+qKxqglWkzUoxjQgDZwfwFsWLsQTvY/jlVdO2KWjd+5bLo8GVDZgGzj2Is6dO88JDpUEbIsKXsQzR3W/MzFv5gB+aYf4f/mbVzFnoQ0kM1Uoe3vcnS7wOF48byGC5gCO4OAvn8WreFHeTjBsroHgJefh2V+6n/8lnj3vEl/QJwHmQuBR9/1XJMAdETSKE8/gF7p/2aPZ3uFnEDeF5fgWSUFxvjec4HXegLN/Pd4CSafI7jUYdea8ut/vlbe8PWZKAI1O7+OPYdq0s1GsJ5mIaFQ0KLgZSx6LP0R6YMc1keV3dC3AlWa5fubPMb/L/czDmFNxvlk/Vgf+4cP/hMO/s0PT8eZqvqkCV+Jfnf2+UIFPmjmPus1v4+m3XuUEKxoASQDzVXsc13wXuNobrCaxcttVmP/Yfzu9o8ZX8Jldj2KJBsj7bsacDu9Q80W4WufYyj70u1697+PA3bpP+Q6owNVuEFXpDvnL48O25zUrNlDXIE2/n7uthN/3Y7i64jl8z12ewdzXb3xK0vdpZ87lyGOOv10NRi/9lV0mafDYko9Hg0c5b3PMe77pF+48ZbutOx57Oz6qeeYjf4HyF+xQuzzSnisr27va26DI0JgGpL976SVs/cynsfK9lfjkp27CWWedZd8Zndg5pEdgQr+BAQkOCyXwNKtgpgSO5w4OOO9JqPbMo9GA7YSs++p558M/aTotEnhG54TK9gcl5puZXsRWOG+OHPujeCYSOcpxPesLpDXA/LV7rM77OO+87IJn9cqzeNQE5fZ76/aP2i9w4hgGXjkX0m5wSJrNkfVDnu8XkiC2sJAR6Vgou7wcf3vrDnzj3+7GjztGP5eaiM50F2MOuvBVzxDpN+7rApb8se3ZivZYflKCzsA8HZnxf+Yr+F5XlqOXv4tuR3u7wl3fsgHOE3jRnZ13YQECEgB90h6HuSFp7kI5Pg14k81d1B7Q5/BD741WGjB5gr1HLvP0/OFJfM8GYwd++5wc0IN22x3oe8EsFvpcA0lPj2DW3DmkEnxHem1Fwu+raSJB81j1ykbE224liufaHlVzHE5P9xx3tlhkTm6slRcskA/9uf2MJ888NYiwLI+mtUp+/kzvrAa3owj6x3wO6W/7+/G5rTdj2bvejb9puAXTpo35Lixv8DQT8+RkRAIv5R2mNkPr2XKG4d1t+e/4T2ymxpV45YSvHzP8cvbBcaZOvALzn+8QXDNnygGetxCXu+kkj8vfci7OnXlajm5Ku+Kdf2jmUn/z3v9A+/ekyUxENK40GNW7p53g7ZrvPuks1nmYzrPTR++0tkGkeaQTpOgw+AsPx/TgXXvZRXjanU8qYoPv9Ghvo/YKX6pB15gEh1/BZ777HMrXenp9435fDeDkuQSCH9V9p9lLnFqi7XpuurKPdHo2w5Gec/vQIN/eaPZVfNwEqqluror0zsb0AmvgHDvPNjqcH9+4RIuhp5+WoPQWVFT8Idb9+Yfs0rGnPYDQ3saZ81AoAeoxN/DSYHThy5Ehe2doPRvRn4hye2gfH7RvpXQCr7ySoDf1FWlZ2qe5dEICVgw+HvlukQfv2h+Vwvnzse3z23Hfd76N//z3VruUiGi05CKPCmdY1dKbgKDD3CbwjM7Z02DO0BtwIkPYSod84w3ZjxHTu2aH72Mkn4O4csXbgWNP2FcO7YV9a2U0iNR1Ai88m0UPnN5ZrkP5np7N0bj7W9E7/hN+X8sEdzql4R241vbYLllhV9Yg3PNTUhmJs92YIDkN2rMcqPiLhL3HZgqINGzeepluN8H5k/NzJb4dJ/jVm9AQPSZd761P4pEkQfJ4dV/iySd68bef24ruw7+wS8aBDkFLKBpcXAi8cCwyRG96/iQajLzW4Xz73C984tWYIfTCt+uNQ64Azj/vVbwciR4LUZh2Dymcea4xczIlwH3bwphjzSmd9lBwScIbvig7gy8M4sv/+iV8vSWN5ikRUSKe4VTnhhTtHfs2nq+4ObJcf1bH/J6ovYv5arv8UtgeUv3M3fqTO+523oEXEw7Z2yDCvakpGxooaQ+iO99SHrFDv/HF6z3TgMiZq+ps55NLHsUdGczFdIIo9zh07u2/jtHPHUmadkigpj9jlPD7em742vfnwHed+Zuml9c9fx8pwPMJfojoG7/S7cs6I3p1E2z3U87PYrnH4L25KqG7P2Hn37qfsb2h3hudPoDI1Ii4dMpCTD6Vhz3mAzv+NXpMW96Ox3Yl/wmxcfth/LES74fxdU7pL+w8Sb3L/PK3vILH3bmlhnOzjhtYvjr4IiDbeMas4/9hfOf1Qolh1YuPPw5csggv//IXZu6ns303nH0RLw7OwXknovuPHJ/2ND4a9m1bmBuboiGu99id44zuy1lke3cT3LQUOZ5XnjXrQF/PfMbp1RzxWd1+IQYiaeP/7rpoEa6ImdKgN015jodyjj+MT0REU92ED0iJznQMSImIaKobtyF7IiIiIqJ0MCAlIiIiopxiQEpEREREOcWAlIiIiIhyigEpEREREeUUA1IiIiIiyikGpERERESUUyMC0jfeeANnnXWWfUVEuaRlUcskERHRVDYiID158iRmzJhhXxFRLmlZ1DJJREQ0lY0ISIeGhhAIBHDuueeyp5QoR7TsaRnUsqhlkoiIaCob8adD1fTp05Gfn296ZxiUEp1+OkyvPaMajJ46dcouJSIimpriBqRERERERKcL77InIiIiopxiQEpEREREOcWAlIiIiIhyigEpEREREeUUA1IiIiIiyikGpERERESUUwxIiYiIiCinGJASERERUU4xICUiIiKinGJASkREREQ5xYCUiIiIiHKKASkRERER5RQDUiIiIiLKKQakRERERJRTDEiJiIiIKKcYkBIRERFRTjEgJSIiIqKcYkBKRERERDnFgJSIiIiIcuqsiy+++A37PCIvLw+BQADTp0/HWWedZZcSEREREaXvjTfewKlTpxAOhzE8PGyXjjQiINVgdM6cOXj55ZfxyiuvmA0REREREWVKOzbPO+88nH/++XjxxRcTBqUjhuy1Z1SD0RMnTjAYJSIiIqKsaSypMaXGlhpjJjIiINVheu0ZJSIiIiIaCxpbaoyZyIiAVLtW2TNKRERERGNFY8tk9yXxLnsiIiIiyikGpERERESUUwxIiYiIiCinGJASERERUU4xICUiIiKinGJASkREREQ5xYCUiIiIiHKKASkRERER5dSIv2W/YMECPPfcc/bVVFCNHa2l6KnZhja7ZEytbEDz5nx0jNf2J4DlNzWjFi2ou73TLhmpemcrqgq60bRpP4KfXYPpD+1GS1fYvjv5Ve9sRvH9LcCGWuCeOjQesG9ELEfDXYney4ymZeULTUnTe1LasAOtS3tQs1VKipabDUDLpkZMsW8Zl5ah+nL7J/OOtjtpoDRNVged5wih3V+PmPqlBL13+vKVWV4Gs8XjWu4kHXXZmj7UHSmNpnMCZRu2Ys20/dj99S4kLaXm+ArR7d9/WqTuvasY7fcAtZPuXMeWZy2TpUdqsE2+i1/qumGCWFiF+g0lCO3dhfZ3jea8Rmm+rnquDj1LvemjaVePsln6PJxgHwnW8efh+4tNPh94IH7aT2yjSAflrRu8dUY2n4lXX5g3ND6qglsDxbzn3VbMZxymTivpHbE8lWQxJntIM6aZoRkNK+3LA42om8LBaHqqUbpYLqaaMReW4fKlpSgrj2TxzLx/C3Y1N2GLm75TiRbwndX2RWJtW2umXjA6afnKezbkvNeXD0iwWYOamiZ0F1RhhwRoqnrBEJrMcnk8AFTd1SB7VLrfVrRuyMfAcbMgylxctBFsP5fhBQEoQtmlpSi94g+jFyKackqrt6OpZYfUztaSpXjH0jJ52NfjpHpnPUp6m2yeHpDGj5uno9JZx9Dr6wMhBCXPx31/AhtVOmgZX434dUbGn5G6ZIMT1Otn2gfLUHuTPZKVxSjUYNN8Rh5uXWK2pQ2WeJ+R91pbUTt3QMLhscWAlMbG8SGE9N9nW9BwbQ22fLnHLM5YYSEKA3nIsy+JJrvlCwoRPtxuG62daDwgF9ilTpjQdrsnmAwNeSp4WW+TXiDaMWSXuKrX6MVlNI3gfrTcItu+sQlZllKaBGZfUIR8b0X6kAR319Zi53ft63HhdE50uA3qe9rRjRKsiGnQpbOOR0y5mCxGlw7Ll5UAceuMbD4TRP6sEHpsD3PbkRACcz1N0cG+aB3kCuYjcLQj0vPadn83ULLCCXxNJ1wN6u7310yjd479N3sxXcTdEpVLorjDFhpJu93EIpSq2z3ZtjTKj3RTJ9+Wd3gsfLgbA+aZ0O17h7I8r51h6V4MlJchaLq6EdOVHT6sQ6iIHsPmVrSukfV0SME7HOX9Dt7udE0LWa+jtwRV5tgSdeFb3u2k040ek9bRoT8zlL7YLIxZ3/m+HegtqXK+T0yXvLcbP4Tuw+aJI9H+XfY4nCEWe86GutEVKENFgbx/vBf7btuOvU8EUHnDdlQvK0JAm0WDXdh1qBBb7LbLJH2bl0ma/1cQ2zdfhRJbs4b7O9G2vQkdlzv7eam7CzP/oAL5so3wY/vQeOteOYtSdqoaULe2DEUmqUPYf8c2tDwSQMWHt6J2lRRQ3eeQHEtTI/YeSV3dtW2tc54c8Hxbb1pofnWeiTh5Fe66QbS2Vppzf3CZZxjXd87c4S/z/IVuFEq+hMmDMaltOOu3A6udc6b7a1/gbjvJkE7a+dP7fWT5YWmVz42Wo0R5LN7n/IKesppR/WD3A/383A57LJpvKzFk0zYmf/uGw5OXC7ce0DqozPm8W951P3HLgDM1aOhwIcrKIWkXHcLtmyvf7wVn9YiCYlO5x5xNvQgM9sQuG2E5igtCGJLz29rqpJtTN8mn9EJhz3ON808C9rwM2u8TqEDtLbVYdWG+8/aQlJeWnTFTbgLl29F0fcmIcpZcG7Ztcp51uvnPn89M+vWhyq1vEg5NCs97/jyfcBpEJtekhOXZ5akXPXkmbt0Ql3znz9Zj/dJC5E0bxsATA5h58WxnOkZQ9+0ZQjfH4r5ehS2716Ninj1qrbe+qHWoTZ849WvfWrdcBSRtJa0idZDdptlQVGx92Y+ue3dg10OpA47O2+tsfrU5zvS42c4JoxN9g/Uo1USL5IEk69yTbh6e4EaZDkGpMwaOePKTBuWy/nIJPDP+DA5i6HgVSrW3VK8pS4MIHdnmrKN1zuIyqUuq5EW0ztdG9Aiz8k3eT5XLR2N0PaRauD3dujVH8qOVhyn4OvfJvlejlUeSoa9k2xIx3dTySHjhkoIcHR6rQYtUApqI6QiU56NHP2cqNqlM7Tb02AfKq6Q60l6LJnQf1xPnrudhKhG3y1wed/aiZLNnyGRWGSrliPS9JgnyytZE3vGRimalJy3cC7xuXwNou/0mqdSdbnSpKGPS2hOMQipqz/r1niHjQHmlZFB9T74TylClGdZcBKpQKBc553M9yLcBQ8Lj0oJl3k/gzfMR3tuAhi91YWBWCSr/rAJYthHr312I/vvqnW19Yhe67tmGmge0qDnpay6yL/Xj4Le2o17WqbujC8NFy7FqrbNZVTg/jL2faUDToQEEllSiapksLK9HfXUZZh7dh10NDWh5WtaTa23ggw2ovxLo+vs61NTtxP7jQay7bj2K5COaVq1Sccc8IsOncSTLrxskCNKLvUk/m1fd76YXzhqn0Gtl7q7TJIFMpTsk4hOU62mLrJNsGD+4WudJy7bulOB1dauZ8+ts15PPssyfWvai30cCrZJoiUqWx5J9zvDszzluz7H4Jcj7nbe3SMBRaeqV6p1SqT5gL+gimr+d9K2KHFeqcuHWA40jy3vCMqiCUtvo94kegzI9Em7vgtALwkhShjU/3e+rU0bQ3o6gNAgkCDfHoHVT7SimFBSh+pZ6rFo4hP27pHw07EHHiWKs2ngjVtk1JEVQNPdx7LmxHo3fkTB0yTrUXaelxknLjMqN8px3HQqsN3P8ne8SWuycSzcY9db57XLWmj1lJJLnvZ/L9pqU4vqjovvzDWGmqUgaKOsvnYnQfY2ol/ru4GuzI4FxcgPo+f4eNNTJvj+xD6GArUNdcepXrVuaDmuDQhtiKRp6Wl/+VRDP36t1cb3Ul7NRcc3HnfOv+d1/fltHOYUlGzYYomxo3KJ53Tl/en9CJD/odcnmaTP8b68HnYd6EV5cGqmPtfc1vbw6OqMLSH3duqb72J3vJO/hcIunYm5Du1zkSpYlKMTJtiXJEtNNnYRG9iHPcFbn7R2e1kRy0WE1h/aWOAVQW8WFKE5RCP371h6LjqNBp2WipFXdYr+DOeG2l2QkbfUEIpnDZVoti6vsMbWaFrDpet9QiqA37QynJ6XdEzSbtPBksnDk/HTiYG8YhQv0aOSCJ+Gpe5zOeXN7SuIdlwbD+ehwg9N4+n+JPT/uR/9Pf4Y+OaeBOcXAIyEMnMxDyZod2H69BHDauo9nMIziZfXYcXcLmm6okGMTnlzb97BcQPv70Xm4T8LYAPLlOlm6vASFw73Yv2MvuuS9/Xe04+AwsLa8BHl5QazaJue1eatchPOkois0FZ3O24wUTPeR7Dv587c3v2rLVM6T9+IZn/a4+M5lHCHJR6lyfiTfHeiTy1e0rHQ+F+2VzC5/aj6SgCwSKDlDQY5kecz/nvdzlmd/I47FJ2He1+3eo4G1E2R6L7zR/J3suLzvOfz1gFfi41DeOkovAjYwlUrfCbycz2iPd9g7TGYu+hrsxAayiXnPRxt6jkq+j5910lCJ0gvzMPDzNrR09WOovwN7fvg4hgMS9EbquzB697ehe3AI3d98EL2Sz2cXODvMuNwoz3kPvRD2pHcIQ5E6318Pyb68w4Yimpc9aZDtNSlZeba8Zcd/LOmoXBJE3rGHsfeb3Rga7MbeH0oZs+8lF8b0knW4WRpfLbvXISjVVt7ZnrH4ePVrBireuxSF0yQAv65J8mETai+V0CMQcDoZvAFL5JFuPh0j2vOv86vTmH9PcWhjK9Lo00662vj3Mpg8b+McSfMWbcTbOktHjUIxPbPjY1QBqVbO4RfG5hCTbmtE13Zi2m09Fsywf6QXQntJ7BuniVPR96BUM4Snx0GH52IqB7mwjuV5SNXbOfK42rDtziFUpuoV8cjLmylfZB+2f7oRbYf6kH9FNRpu2451cU7dupvqsWrxi9j3f+pRe217ijyQhzzZxsxzpLJ+/RSG7VKEOyXAss+PdWKnN/1SXTwTMIFJIlqByrZNwZd0ciejx9JgVIeX7XGYnuGJSHvkBtCX8QVIP2efjpF4ed8wQfjpk/A4kvAGbu0oAdzyGulx9TQUkvIGbWPolRftE9cwhiMFyGu6/XdiyrYuTFqex8rZ8njtFCIp7b36hiW97VO/0s31qC6fjp67tkgdmPpaZOrXTEkDfq83T6edH320LMb0ZjoN2iHvKUlnHS/Te42YRuSEN8p00Iaa00FkaUNLG7FZfAYxc0tHNsAT8Y7g1T0n+4w313SMjSog1V4UmKFsS4cq3YtQaEje8w4lVaOqHOg9FP8rJd3WgYMSn6c3RKLDY9478pbfVBk9eabnKnoi4g+dOTSwjVRsK1egJI2Lq/ZGBb3DjnIclYujk4kzp9MGdDjdmbSs2w9408hy0s4/bKe9mcGYVqVJi6M9ySsam9bO8L3S8+aPFGOPK+uAYLAb7V/eie0/lnSeUYjgpbJMCtWwXPQCBaYvFDPPleDyxEvofykPZR+9HOm0/bse6UN4RinWbFuPiqIilH1oI6qXAR1P9QPzKlB9XRmkqKLovRuxdbOTUzIdekyaXy1ToPUOUXsDSwwT+EcDvWR5caxklz+19ynomU6g0zbcY02Wx5J9zprlmeSf4lgS5X2z3bucwF6HdL3Bv3eYPHpcWZYLK/Fx+OlxxRnalO9ZWz5ge1I1TTK90OpohmcaxqjrmA45T8MofI80+CqKkF9UiY1XXoK8oV78zG3ESVkJ/tF6lElZqry+CqWzhtHf69TjWQ3Zp0UCb1+drzdzofdg0otittekdMqztxyncyx+Dz8rteQC+U4fKkNRUQVq/7Q0OgzarzfuBFBcXinvyTpLozXd7JkSYL4exsAzwyh6f2Va1yIVGjoh/w9gztI4LX0PU1/mlWBVwyroHNL8svXYusV+14yH7H3lXtNRrigHtZ7TbZlyl2SdRE5D79zYGl06xOZHp+4MHdF6IvPPjKizdEQ1XnomPA/pTicavdHd1KTdunpjhmRSnRJrJoIfty1N7SXSidp6M8BmZ5FOIE/Y1Z9sW1LsGzcFsaO1XgpDvVmS8AYIHR5b2mq2o2vqTU0hZ6DX7KNjjWzf7iN0NHEW1yGZSmmZmv0dDyEUaZXqBaEW9ZGbmuxiJftu0ptJ3O8gVYxOEs78NOrFLDqZ39y0oOl2wL99Nx38aa3zhqSFu7UJxbIdZ8KyMBPxUx2NDoGuQLNuS1qluq3uw9LyMu8lOK5sLKtH0w3LnZuLpLLt/2kb9ugFMNCJ7jWlqPjLJjRduAs3f78LKzYux9bm5Rjq0hvUnLlrST20G7vnNuDjq9dhS+M6OVC9qUnq/K81o62gDmuvbEDTn8h64QF0P9BuPqI9WBmdp2T5VSucyI1Dei7slu/pQUjOhXtTU8fR9PLimMkyf7ZtbUdppOzJZw7Lsc5130ucx5J9zjg+gPwNbp5NcSwjjt3J+z1L7TxVkw+7Jd/KxTJUh4PyKjyYj1pZ39QYMceVSbnwlfeticqgfRGPBI3xbjh0epGDKPNsy02HZEOi2tAJmkBQP5U83ZzfyEywvdf0f/1ou60V8z+7Hqu2NJp5g+FjPdj3xV2eYCuME9NXmLKUZ8pqCxrtndoZl5u0jazzzfxrzxB+XFlfk5JdfxwhlMqxtDovkh2Lnm/9LU1fQ6Pn663oWLgRlR9sQOPaIfR2hRBebOuzQ/di/5ESrF+2EY0V8t5TekOR09PZeV8HqpZUYf2/NGPNU93ol2tRGrUg+n/0M4RWVGH5tmYUtUsetctHkPpyT5He7FmLxuZaYHgI/T+x31OH7DNs7MSWe83vI0eh0llnshtVOvjysbnW2vOQ+Wf8dVb0M2YkONLh5NmWBqFSvzhXsdR10lgZ4x/G1y+hcxWy7O6PMZbbovHFc3Umce5ET/6HEnJtMhzj+JMG5M4VOLjVfyF0GpZ6w9DUT58c1E3SIN0hQUDSRooyDZU4f/SAYmkDf+VQ5FcNaHI7bT+Mn97Ql1YQ2rr3PmJv3lEpt6WF2b+dMRkqOr2iN05FH6lvhplonGGE6I9603iYGHkl+dSbUZsi5XpC0KlG8M/7Cthh32H0H33YLpu6MpmOMVaqlxYmng9JmdH6YHUwrRs7afIbZQ+pBpdut64wQ1/ZZpyx3BYRjZXYYR2kHqKeANhDGl/1F1pRdSEy+C3RyWYSXUfYQ0pnoGQx5hnwt+yJiIiIKNdO25A9EREREVGmGJASERERUU4xICUiIiKinGJASkREREQ5xYCUiIiIiHKKASkRERER5RQDUiIiIiLKKQakRERERJRTcX8Yf8aMGfYVEREREdHonTx5kn+piYiIiIhyh3+piYiIiIgmLAakRERERJRTDEiJiIiIKKcYkBIRERFRTjEgJSIiIqKcYkBKRERERDnFgJSIiIiIcooBKRERERHlFANSIiIiIsopBqRERERElFMMSImIiIgop86Av2VfjR2tpeip2YY2u2RMrWxA8+Z8dIzX9ieA5Tc1oxYtqLu90y4ZqXpnK6oKutG0aT+Cn12D6Q/tRktX2L47+VXvbEbx/S3Ahlrgnjo0HrBvRCxHw12J3suMpmXlC01J03tS2rADrUt7ULNVSoqWmw1Ay6ZGTLFvGZeWofrygPPiaLuTBkrTZHXQeY4Q2v31iKlfStB7py9fmeVlMFs8ruVO0lGXrelD3ZHSaDonULZhK9ZM24/dX+9C0lJqjq8Q3f79p0Xq3ruK0X4PUDvpznVsedYyWXqkBtvku/ilrhsmiIVVqN9QgtDeXWh/12jOa5Tm66rn6tCz1Js+mnb1KJulz8Px95Ek35tryWL7wvN5fzr3rXGvOTnOV97v4i3bXgnXSZJWKbZr0gm+5Qk+E1P/iNADeq40NqqCexZc4cPOtSfmPMTZv9lmSW/G6c+/ZT+mNAM1o2GlfXmgEXVTOBhNTzVKF0ulohlzYRkuX1qKsnJ/Nk/T+7dgV3MTtrjpO5VoZbGz2r5IrG1rzdQLRictX3nPhpz3+vIBuejWoKamCd0FVdghAZqqXjCEJrNcHg8AVXc1yB6V7rcVrRvyMXDcLIiKNILt5zK+IBeh7NJSlF7xhyMuRjR1lFZvR1PLDqmdrSVL8Y6lZfKwr8dJ9c56lPQ22Tw9II0fN09HJcv3xQUamNn3ahIHzG1bpSyhDFW2LOWElsXViFu2I5KskzCtkm1XryOt0gCQQD5Gks8E5wZMEOqkqdtwaMM2+9p5tMsWQ+gw155qFL9gj0se7RL6Nt9kz6LuR/ZfO3cgeWM2CwxIaWwcH3KKx7MtaLi2Blu+3GMWZ6ywEIWBPOTZl0ST3fIFhQgfbreN1k65wIYQXOqECW23e4LJ0JCngpf1NsnFYFM7huwSV/WaMgw8MJpGcD9abpFt39iELEspTQKzLyhCvrcifagRddfWYud37etx4XROOEGNuKddgsYSrPA16BLnezWAvrR6bTvRN2if5sjyZSVAgrLtSrxO4rRKut17tpkgcdsR56Ur+bGEMeSLX/2W31SJwsjn29Do6RQJveA5Q6YTrgZ19/trptE7x/6bvZgu4m6JyiVR3GELjaTdYSXhdBPbF/Ek25bpMXC7tpNvy9s9HT7cLdnb0u17h7I8r/UztejFQHkZgqZ7GjHd2U43NqLHsLkVrWtkvfuLY4cevd/B2wWvaSHrdfSWoMocW4KhDJd3O+6QnD5PtDwmraNDIDHd7p71ne/bgd6SKuf7eLclBSX63UPoPmyeOBLt32WPY8CcH3vOhrrRFShDRYG8f7wX+27bjr1PBFB5w3ZULytCQJtFg13YdagQW+y2yyR9m5dJmv9XENs3X4USW7OG+zvRtr0JHZc7+3mpuwsz/6AC+bKN8GP70HjrXjmLQElVA+rWlqHIJHUI++/YhpZHAqj48FbUrgqa9TEkx9LUiL1HUrfz2rbWOU8OeL6tNy00vzrPRJy8CnfdoLRuK825P7jMO4wSe87c4S/z/IVuFEq+hB1K8XPWbwdWO+dM99e+wN12kmGgtPOn9/vI8sPSkp8bLUeJ8li8z/kFPWU1o/rB7gf6+bkd9lg031ZiyKZtTP72pK9KXi7cekDroDLn82551/3ELQPO1KChw4UoK4eknWdoca58vxec1SMKik1PSMzZDOYjMNgTu2wE7UEKYUjOb2urk27uEJu5UNjzXOP8k4A9L4P2+wQqUHtLLVZdmO+8LVeu/S07Y6bcBMq3o+n6khHlLLk2bNvkPOt0858/n5n060OVW98kHM4Unvf8eT7mc/5yme41KWF5dnnqRU+eiVs3xCXf+bP1WL+0EHnThjHwxABmXjzbmY4R1H17htDNsbivV2HL7vWomGePWuutL2odatMnTv3at9YtVwFJW0mrSB1kt2k2FBVbX/aj694d2PVQ6oCj8/Y6m19tjltZjEK3c8LQoLEepZpobh7wi8n3UjfPCqJMjrlKXkXytkg/nU8f7XkcOOI5Hg2uJQ28ZTvhOhJ4JkqrdLbrl/gzWmcEzDW1dbMsjzP8rmVtRckAOjbF3/qIbY+T0fWQauE2Gdx2+R7Jj1YepuDr3Cf7Xo1WHkmGvpJtS8R0bcsj4YVLCnJ0eKwGLVIJ2CompUB5Pnr0c+Zkebuz2+UCVSXVkfZaNKH7uF6s3fU8TCXidpnL485elGz2DJnMKkOlHJG+1yRBXtma2JZUlFQ0Kz1p4V7gdfsaQNvtN0mlXmu60aWijElrTzCqc0w869d7howD5ZVSUet78p0iQx9ayVVJS8lN6x7k24Ah4XFpJWTeT+DN8xHe24CGL3VhYFYJKv+sAli2EevfXYj+++qdbX1iF7q05feAFk8nfU1F9FI/Dn5rO+plnbo7ujBctByr1jqbVYXzw9j7mQY0HRpAYEklqpbJwvJ61FeXYebRfdjV0ICWp2U9udYGPtiA+iuBrr+vQ03dTuw/HsS669ajSD6iaaXDIDGPyDBSHMny6wYJgvRib9LP5lX3u2llYIehtDJ312mSQKbSHRLxCcr1tEXWSTaMH1yt86RlW3dK8Lq61cz5dbbryWdZ5k8te9HvI4FWSbREJctjyT5nePbnHLfnWPwS5P3O21sk4Kg09Ur1TrmEPWAv6CKav530rYocV6py4dYDjSPLe8IyqIJS2+j3iR6DajsSQqBkRSQvVS+NVyNJGdb8dL//QuFnL9gahJtj0LqpdhRTCopQfUs9Vi0cwv5dUj4a9qDjRDFWbbwRq+wakiIomvs49txYj8bvSBi6ZB3qrtNS46RlRuVGec57+2AZ6s0cf+e7hBY759INRr11fsywoYjkee/nsr0mpbj+qOj+nOOOnvf0FEkDZf2lMxG6rxH1Ut8dfG12JDBObgA939+DhjrZ9yf2IRSwdagrTv2qdUvTYW1QaEMsRUNP68u/CuL5e7Uurpf6cjYqrvm4c/41v/vPb+sop7DE8Od7/3W3fuQQuE/hgszOw5lH4xY3TZ2hfG85Msw1qyfSYI8heUDn6upc8PE2uoBUWzZHO6KVr3Y5u/Od5D0cbvFUzG1ol4tcybIEmSfZtiTTxnRtJ6HDYyHPcFbn7R2eFkhy0WE1h/aWOAVQW8WFKE5RCP371h6LjqNBlLoFSlrVLfY7dB7qRdj2koykLSVt0cReoHX7WFwVqRi0BRyYKxe3DaUIetPOcHpS2j1Bs0mLxaWRbYYj56cTB3vDtmDLBU/CU/c4nfPm9pTEOy4NhvOlZWWD03j6f4k9P+5H/09/hj45p4E5xcAjIQyczEPJmh3Yfr0UBm3dxzMYRvEyqZTubkHTDRVybMKTa/selgtofz86D/dJGBtAvlwnS5eXoHC4F/t37EWXvLf/jnYcHAbWlpcgLy+IVdvkvDZvlYtwnlwcC02DRedtOgXW80j2nfz525tftWUq52lEoR9Be1x85zKOkOSjVDk/ku8O9MnlK1pWOp+L9kpmlz/tnK7IBcMZCnIky2P+97yfszz7G3EsPgnzvm73Hg2snSDTe+GN5u9kx+V9z+GvB7wSH4fy1lF6EbCBqTRGnMDL+Yz2eIcH+6Ln1Fz0NdiJDWQT856PNvQclXwfP+ukoRKlF+Zh4OdtaOnqx1B/B/b88HEMByTojdR3YfTub0P34BC6v/kgeiWfzy5wdphxuVGe865DgdH0DmEoUuf76yHZ1/3dcgGJBvbRvOxJg2yvScnKs+UtO/5jSUflkiDyjj2Mvd/sxtBgN/b+UMqYfS+5MKaXrMPN0vhq2b0OQam28s72jMXHq18zUPHepSicJgH4dU2SD5tQe6mEyYGA08lgh4djH+nm0xRS5nvn2pMs4NR5pL0lo2mQnWmceth/raleGr8xbBqc2gBPVabHyKgCUq2cwy+kG+4ll3Rb2gMX07WdmHYtjwUz7B/phdBeEvvGaeJU9D0o1YuYp8dBhzBiKge5sI7leUjV2znyuKRFe+cQKlP1injk5c2UL7IP2z/diLZDfci/ohoNt23Hujinbt1N9Vi1+EXs+z/1qL1WJ10nk4c82cbMc6Syfv0Uhu1ShDslwLLPj3Vipzf9sixoJjBJRIdOZdstqDUBSPwWvgajOrxsj8P0DE9E2iOX7pwuL/2cfTpG4uV9wwThp0/C40jCG7i1owRwy2ukx9XTUEjKG7SNoVdetE9cwxiOFCCv6fbfiSnbujBpeR4rZ8vjtVOIpLT36huW9LZP/Uo316O6fDp67toidWDqa5GpXzMlDfi93jyddn700bI4K9808h1Og3bE/MWM8318zsipt5FxemmDKiZg1gaRt7EpEq6TJK3S2a5fNp9xVKO0oBcHfWmowahOHUunfhsrowpItRcFZijb0m5f9yIUGpL3vC2XalSVA72H4idP0m0dOIhepDdEosNjwZXR4Egn6kZOuOm5ivaExB86c2hgG6nYVq5ASRoXV+2NCnqHHeU4KheH0JN1V7cOX+hwujPRWbcf8KaR5aSdv5WovZnByDClMmlxNEG3vMumdfTORT1v/kgx9riyDggGu9H+5Z3Y/mNJ5xmFCF4qy6RQDctFL1Bg+kIx81wJLk+8hP6X8lD20cuRTtu/65E+hGeUYs229agoKkLZhzaiehnQ8VQ/MK8C1deVQYoqit67EVs3Ozkl06HHpPnVMkPyEmj6J7kbJvCPBnrJ8uJYyS5/au9T0DOdQKdtuMeaLI8l+5w1y3OzQ4pjSZT3zXbvcgJ7HdL1Bv/eYfLocWVZLqzEx+GnxxVnaFO+Z235gO1J1TRBTG9tajqa4ZmGMeo6pkPO0zAK3yMNvooi5BdVYuOVlyBvqBc/cxtxUlaCf7QeZVKWKq+vQumsYfT3OvV4VkP2aZHA21fn681c6D2Y9AKb7TUpnfLsLcfpHIvfw89KLblAvtOHylBUVIHaPy2NDtn3y7VJXhWXV8p7ss7SaE03e6YEmK+HMfDMMIreX5nWtUiFhk7I/wOYszROS9/D1Jd5JVjVsAo6hzS/bD22brHf1fRi+s9xsiF7X7nXdJQrigl2dFum3KWb75PHDK6B5zI5C2MrNt84dVzoiH6vaPlPvE7itEr8mcTS+0yc5TrC6g9ctV7xjTidDqO7qelAI1r0xgzJpDoB2UwEP25bmtpLpBO13Ym0QieQJ2zJJNuWJFXjpiB2tNZLYag3SxLeAKHDY0tbzXZ0Tb2pKeQM9Jp9dOhvl9l9hI76m21ROiRTKS1Ts7/jIYQirVK9INSi3r3J4X67WMm+m/RmEvc7SBWjE8iTZ6N4NDNHJ/Obid2abgf823fTwZ/WOm9IWp5bm1As29EpB4aZiJ/qaHQIdAWadVur9bXe1CQtL/NeguPKxrJ6NN2w3Lm5SCrb/p+2YY9eAAOd6F5Tioq/bELThbtw8/e7sGLjcmxtXo6hLr1BzZm7ltRDu7F7bgM+vnodtjSukwPVm5qkzv9aM9oK6rD2ygY0/YmsFx5A9wPt5iPag5XReUqWX7Xijdw4pOfCbvmeHoTkXLg3NXUcTS8vjpks82fb1naURsqefOawHOtc973EeSzZ54zjA8jf4ObZFMcy4tidvN+z1M5TNfmwW/KtXARCdTgor8KD+aiV9U2NEXNcmZQLX3nfmqgM2hfxSOUe74ZDCXFibuBwOOmQrMdHGzpBEwjqp5Knm/PbjQm295r+rx9tt7Vi/mfXY9WWRjNvMHysB/u+uMtzgQrjxPQVpizlmbLagkZ7p3bG5SZtI+t8M//aM4QfV9bXpGTXH0cIpXIsrc6LZMei51t/D9YXcPV8vRUdCzei8oMNaFw7hN6uEMKLbX126F7sP1KC9cs2orFC3ntKbyhyejo77+tA1ZIqrP+XZqx5qhv9ci1KoxZE/49+htCKKizf1oyidsmjdvkIUl/uKdKbPWvR2FwLDA+h/yf2e+qQfYZBSWy51/zuH4VKku/hLSve8zNB+fKbuSb60yvJOgnTKp3t+iX8jI7G2ZvxhH9bcUcVtHd1cZmtYyxTT47v0P0Y/zC+fnGdEzK6bnjHWG6LxhfP1ZnEuRM9+R9KyLXJcIzjTxqQO1fg4Fb/RcRpWOoNQ1M/fXJQN0mDdIeEfyl7l0xDJc4fPaA0Ofk4/0CKBiFNKKfth/HTG/rSCkJb997HyLtrU25LC7N/O2MyVHR6RW+cij5S3wwz0ThDD9EfN6bxMDHySnrDaFmbIuV6QtCpRvDPIQvYYd9h9B992C6bujKZjjFW9AaRVL/5SKNnfsUDp+fubzo9RtlDqsFltCt4dF26Y7ktIhor5gY/zzzilEPUEwB7SOOr/kIrqi5EBr8lOtlMousIe0jpDJQsxjwD/pY9EREREeXaaRuyJyIiIiLKFANSIiIiIsopBqRERERElFMMSImIiIgopxiQEhEREVFOMSAlIiIiopxiQEpEREREOcWAlIiIiIhyKu4P48+YMcO+IiIiIiIavZMnT/IvNRERERFR7vAvNRERERHRhMWAlIiIiIhyigEpEREREeUUA1IiIiIiyikGpERERESUUwxIiYiIiCinGJASERERUU4xICUiIiKinGJASkREREQ5xYCUiIiIiHKKASkRERER5dQZ8Lfsq7GjtRQ9NdvQZpeMqZUNaN6cj47x2v4EsPymZtSiBXW3d9olI1XvbEVVQTeaNu1H8LNrMP2h3WjpCtt3J7/qnc0ovr8F2FAL3FOHxgP2jYjlaLgr0XuZ0bSsfKEpaXpPSht2oHVpD2q2SknRcrMBaNnUiCn2LePSMlRfHnBeHG130kBpmqwOOs8RQru/HjH1Swl67/TlK7O8DGaLx7XcSTrqsjV9qDtSGk3nBMo2bMWaafux++tdSFpKzfEVotu//7RI3XtXMdrvAWon3bmOLc9aJkuP1GCbfBe/1HXDBLGwCvUbShDauwvt7xrNeY3SfF31XB16lnrTR9OuHmWz9Hk4/j68+Ve5ZcKfh+8vNusNPBA/7ScEbxn2lm2vhOskSasU2zXXXMQuN8sW2xcj0l5joSogJi29+5cayPued/9uHeO8MkydVtI7Ynkq/Fv2Y0pPYDMaVtqXBxpRN4WD0fRUo3SxXEw1Yy4sw+VLS1FW7l5kM/T+LdjV3IQtbvpOJVrAd1bbF4m1ba2ZesHopOUr79mQ815fPiDBZg1qaprQXVCFHRKgqeoFQ2gyy+XxAFB1V4PsUel+W9G6IR8Dx82CKHMx10aw/VzGgV4Ryi4tRekVf4gsSylNAqXV29HUskNqZ2vJUrxjaZk87OtxUr2zHiW9TTZPD0jjx83THsF8BDTIcvNwvCBO6fX1gRCCkudHbGMi0LK4GnHLdkSSdRKmVbLt6nWkVRoA0oCNtRzFBRqE6mf0EQ1GNVBtbS2VwNZ57dL9lw3a83BnNwpX2/xi9q8NFmdb7YNlqL3JngF9T/ZfO3cgeWM2CwxIaWwcH3KKx7MtaLi2Blu+3GMWZ6ywEIWBPOTZl0ST3fIFhQgfbreN1k65SMgFdqkTJrTd7gkmQ0OeCl7W2yQXg03tGLJLXNVrtMdoNI3gfrTcItu+sQlZllKaBGZfUIR8b0X6kAR319Zi53ft63HhdE50uA3qe9rRjRKsiNOgC7/gD6gSiCkXE8vyZSVAgrLtSrxO4rRKut17tpkgcdsR52WsAfTF6fHWTo6amm2+8m4D2PttTSLBf8fRIEo18DUNho5IQNt2fzdQssIJlk0nXA3q7vfXTKN3jv03ezHdyt0SyUtCusMWGkl7uuVjuoPjSbYtSYqEXcs+3uGx8OFuOUWWbt87lOV57QxL92KgvAxB0z0O073t9iCED+sQKqLHsFlaHGtkPR1SkBMYGY7yfgdvl7mmhazX0VuCKnNs/u50H+92vN3liZbHpHV06C+mC9+zvvN9O9BbUuV8n5gueadr39lLCN2HzRNHov277HE4Qyz2nA11oytQhooCef94L/bdth17nwig8obtqF5WhIA2iwa7sOtQIbbYbZdJ+jYvkzT/ryC2b74KJbZmDfd3om17Ezoud/bzUncXZv5BBfJlG+HH9qHx1r1yFqXsVDWgbm0ZikxSh7D/jm1oeSSAig9vRe2qoFkfQ3IsTY3YeyR1dde2tc55csDzbb1pofnVeSbi5FW46walpVppzv3BZZ5hXN85c4e/zPMXpOUq+RImD8aktuGs3w6sds6Z7q99gbttXz7LKn96v48sPywt+bnRcpQoj8X7nF/QU1Yzqh/sfqCfn9thj0XzbSWGbNrG5G9P+qrk5cKtB7QOKnM+75Z33U/cMuBMDRo6XIiyckjaRYdw++bK93vBWT2ioNhU7jFnUy8Cgz2xy0bQi0gIQ3J+W1uddHPqJvmUXijsea5x/knAnhftGdHvE6hA7S21WHVhvvP2kJSXlp0xU24C5dvRdH3JiHKWXBu2bXKedbr5z5/PTPr1ocqtbxIOZwrPe/48H/M5f7lM95qUsDy7PPWiJ8/ErRviku/82XqsX1qIvGnDGHhiADMvnu1Mxwjqvj1D6OZY3NersGX3elTMs0et9dYXtQ616ROnfu1b65argKStpFWkDrLbNBuKiq0v+9F17w7seih1wNF5e53NrzbHrSxGods5YXSib7AepZpobh4Q2kgLlNdLHq6XV56ymXYenhiCUrYHjnjOuwbPkgbesp1wHQk8E6VVOtsdSa5rs4Iok/NdJa8i9UJCur5kJ/vKVbhgueyn0L7ymJVv8n6yLY7W6HpItXB7unVrjuRHKw9T8HXuk32vRiuPJENfybYlYrq25ZHwwiUFOTo8VoMWqQRsFZNSoDwfPfo5U7FJZWq3occ+UF4l1ZH2WjSh+7herN31PEwl4nazy+POXpRs9gyZzCpDpRyRvtckQV7ZmtiWVJRUNCs9aeFe4HX7GkDb7TdJpe50o0tFGZPWnmBU55h41q/3DBkHyiulotb35DuhDFXaMjIXgSoUSmZ2PteDfBswJDwurYTM+wm8eT7CexvQ8KUuDMwqQeWfVQDLNmL9uwvRf1+9s61P7EKXtvwe0OLppK8pTC/14+C3tqNe1qm7owvDRcuxaq2zWVU4P4y9n2lA06EBBJZUomqZLJSKrr66DDOP7sOuhga0PC3rybU28MEG1F8JdP19HWrqdmL/8SDWXbceRfIRTSsdBol5RIZP40iWXzdIEOQOg8jD5FX3u5lhKueio5W5u06TBDKV7pCIT1Cupy2yTrLKJbha50nLtsywS6uZ8+ts15PPssyfMcM6NRJolURLVLI8luxzhmd/McNF8STI+523t0jAUWnqleqdOj/KXtBFNH876VsVOa5U5cKtBxpHlveEZVAFpbbR7xM9BtV2JISA27sgqpfGq5GkDGt+cnsrErIXHQ3CzTFo3VQ7iikFRai+pR6rFg5h/y4pHw170HGiGKs23ohVdg1JERTNfRx7bqxH43ckDF2yDnXXaalx0jKjcqM8512HAuvNHH/nu4QWO+fSDUa9dX67nLVmTxmJ5Hnv57K9JqW4/qjo/nxDmGkqkgbK+ktnInRfI+qlvjv42uxIYJzcAHq+vwcNdbLvT+xDKGDrUFec+lXrlqbD2qDQYC9FQ0/ry78K4vl7tS6ul/pyNiqu+bhz/jW/+89v6yinsAh/3RedqpKADYYoGX/MUj9y+kCMNvQcDaBkWaRmQqltpHce6kV4cWmkPtYe2/Ty6uiMLiD1deuaLmd3vpO8h8Mtnoq5De1ykYt+eZ9k2zIJ5enaTkJbXiHPcFbn7R2eFkhy0WE1h/aWOAVQW8WFKE5RCP37jukCV9KqbrHfwZxw20sykraUAijzBgtCt4/FVZGKQVvAgblSTDeUIuhNO8PpSWn3BM0mLTyZLBw5P5042Bs2LSM5EciX8NQ9Tue8uT0l8Y5Lg+F8dLjBaTz9v8SeH/ej/6c/Q5+c08CcYuCREAZO5qFkzQ5sv14COG3dxzMYRvEyKVh3t6Dphgo5NuHJtX0PywW0vx+dh/skjA0gX66TpctLUDjci/079qJL3tt/RzsODgNry0uQlxfEqm1yXpu3ykU4Tyq6QlPROUMavkey7+TP3978qq1ZOU/ei2d82uPiO5dxhCQfpcr5kXx3oE8uX9Gy0vlctFcyu/zpG9aRI9HhI0eyPOZ/z/s5y7O/EcfikzDv63bv0cDaCTK9F95o/k52XN73HP56wCvxcShvHaWNVxuYSmPECbycz2iPd3iwL3pOzUVfg53YQDYx7/lwLir58bNOGipRemEeBn7ehpaufgz1d2DPDx/HcECC3kh9F0bv/jZ0Dw6h+5sPolfy+ewCZ4cZlxvlOe+hF8Ke9A5hKFLn++sh2Zd32FBE87InDbK9JiUrz5a37PiPJR2VS4LIO/Yw9n6zG0OD3dj7Qylj9r3kwphesg43S+OrZfc6BKXayjvbMxYfr37NQMV7l6JwmgTg1zVJPmxC7aUSegQCTieDHR6OfaSbT9Njyl+ygFN7TXV+dRrz78nlXLeda3pibVudwNWpz3SEJ4yB56TMSZq3aEPB1lk6ahSK6c0dH6MKSLVyTnseSApJtzViGCAx7eoeC2bYP9ILob0k9o3TxKnoe1CqGcLTetRu+JjKQS6sY3keUvV2jjwuaZXdOYTKVC1cj7y8mfJF9mH7pxvRdqgP+VdUo+G27VgX59Stu6keqxa/iH3/px6117anyAN5yJNtzDxHKuvXT2HYLkW4UwIs+/xYJ3Z60y/VxTMBE5gkohWobLtFirEW5vitVA1GdXjZHofpGZ6ItEcu/ryk5JzhoLEUL+8bJgg/fRIeRxLewK0dJYBbXiM9rp6GQlLeoG0MvfKifeIaxnCkAHlNt/9OTNnWhUnL81g5Wx6vnUIkpb1X37Ckt33qV7q5HtXl09Fz1xapA1Nfi0z9milpwO/15um086OPlsWY4NJp0A6NpnozvdeIaUROFNqgign6tEHkbWyKhOskSat0tjs2YntVtWpyz5W3F7vuOTnOcdl/rFEFpNqLAjOUbelQpXsRCg3Je96hpGpUlQO9h+J/paTbOnBQ4vP0hkh0eMx7R97ymyqjJ9z0XEV7QuIPnTk0sI1UbCtXoCSNi6v2RgW9w45yHJWLQ+hJNlySlGYWHU53Jjrr9gPeNLKctPMP22lvZjCmVWnS4mhP8orGprUzfK/0vPkjxdjjyjogGOxG+5d3YvuPJZ1nFCJ4qSyTgjgsF71AgekLxcxzJbg88RL6X8pD2UcvRzpt/65H+hCeUYo129ajoqgIZR/aiOplQMdT/cC8ClRfVwYp3ih670Zs3ezklEyHHpPmV8sUaL1D1DfJ3TCBfzTQS5YXx0p2+VN7n4Ke6QQ6bcM91mR5LNnnrFmemx1SHEuivG+2e5cT2OuQrjf49w6TR48ry3JhJT4OPz2uOEOb8j1rywdsT6qmSaYXWh3N8EzDGHUd0yHnaRiF75EGX0UR8osqsfHKS5A31IufuY04KSvBP1qPMilLlddXoXTWMPp7nXo8qyH7tEjg7avz9WYu9B5MelHM9pqUTnn2luN0jsXv4Welllwg3+lDZSgqqkDtn5ZGh0H75dokr4rLK+U9WWdptKabPVMCzNfDGHhmGEXvr0zrWqRCQyfk/wHMWRqnpe9h6su8EqxqWAWdQ5pfth5bt9jvmvGQva/cazrKFeWg1nO6rTi9nGmVv9PQO5eN2Hzj1HGhI/pNouU/8TqJ0yrxZ9KVPN6KZ/lNtSgb9I+0qnSnE43e6G5q0m5dvTFDMqlOojUTwY/blqb2EulEbb0ZYLOzSCeQJ+zqT7YtKfaNm4LY0epOgna2FXdejA6PLW0129E19aamkDPQa/bRsUa2b/cROpo4i+uQTKW0TM3+jocQirRK9YJQi/rITU12sZJ9N+nNJO53kCpGJ5Bnfho1M0cn85vJyZpuB/zbd9PBn9Y6b0hauFubUCzb0SkHhpmIn+podAh0BZp1W9Iq1W11a9e/eS/BcWVjWT2ablju3FwklW3/T9uwRy+AgU50rylFxV82oenCXbj5+11YsXE5tjYvx1CX3qDmzF1L6qHd2D23AR9fvQ5bGtfJgepNTVLnf60ZbQV1WHtlA5r+RNYLD6D7AWkVCu3Byug8JcuvWvFGbhzSc2G3fE8PQnIu3JuaOo6mlxfHTJb5U4d1SiNlTz5zWI51rvte4jyW7HPG8QHkb3DzbIpjGXHsTt7vWWrnqZp82C35Vi4CoToclFfhwXzUyvqmxog5rkzKha+8b01UBu2LeCRojHfDoYQ4MTchOJx0SDYkqg2doAkE9VPJ0835jcwE23tN/9ePtttaMf+z67FqS6OZNxg+1oN9X9zlCbbCODF9hSlLeaastqDR3qmdcblJ28g638y/9gzhx5X1NSnZ9ccRQqkcS6vzItmx6PnW39L0NTR6vt6KjoUbUfnBBjSuHUJvVwjhxbY+O3Qv9h8pwfplG9FYIe89pbeaOD2dnfd1oGpJFdb/SzPWPNWNfrkWpVELov9HP0NoRRWWb2tGUbvkUbt8BKkv9xTpzZ61aGyuBYaH0P8T+z11yD7Dxk5sudf8PnIUyszjjrmpcHxy0bjz5TdzTfSnV5J1EqZVOtv1i6lnvHk7MTMS7HY4eW8M1CBU6hfnKpa6ThorY/zD+PoldC5Ult39McZyWzS+eK7OJM6d6Mn/UEKuTYZjHH/SgNy5Age3+gMCp2GpNwxN/fTJQd0kDdIdEv4lbaQoE0DE+aMHFEsb+CuHJGjNbnoVTSyn7Yfx0xv60gpCW/fex8i7a1NuSwuzfztjMlR0ekVvnIo+Ut8MM9E4Qw8p75SkUZkYeSXzoaCMTJFyPSHoVCP4530F7LDvMPqPPmyXTV2ZTMcYK9VLC0c3Z5KitD5YHUzrxk6a/EbZQ6rBpdutK0zXe7YZZyy3RURjJWZYR6Qcop4A2EMaX/UXWlF1ITL4LdHJZhJdR9hDSmegZDHmGfC37ImIiIgo107bkD0RERERUaYYkBIRERFRTjEgJSIiIqKcYkBKRERERDnFgJSIiIiIcooBKRERERHlFANSIiIiIsqpuL9DOmPGDPuKiIiIiGj0Tp48yR/GJyIiIqLc4Q/jExEREdGExYCUiIiIiHKKASkRERER5RQDUiIiIiLKKQakRERERJRTDEiJiIiIKKcYkBIRERFRTjEgJSIiIqKcYkBKRERERDnFgJSIiIiIcooBKRERERHl1Bnwt+yrsaO1FD0129Bml4yplQ1o3pyPjvHa/gSw/KZm1KIFdbd32iUjVe9sRVVBN5o27Ufws2sw/aHdaOkK23cnv+qdzSi+vwXYUAvcU4fGA/aNiOVouCvRe5nRtKx8oSlpek9KG3agdWkParZKSdFyswFo2dSIKfYt49IyVF8ecF4cbXfSQGmarA46zxFCu78eMfVLCXrv9OUrs7wMZovHtdxJOuqyNX2oO1IaTecEyjZsxZpp+7H7611IWkrN8RWi27//tEjde1cx2u8BaifduY4tz1omS4/UYJt8F7/UdcMEsbAK9RtKENq7C+3vGs15jdJ8XfVcHXqWetNH064eZbP0eXjkPrx51yP0gPN5cy1ZbBd6Pu9P57417jUnx/nKW4a9Zdsr4TrppJW//GtMUwVna97PeLcl7xz2X0Ocz8Gms8ub3u45UDF1lvC+l+gz6eDfsh9TetKb0bDSvjzQiLopHIympxqli+ViqhXDwjJcvrQUZeXuRTZD79+CXc1N2OKm71SildLOavsisbatNVMvGJ20fOU9G3Le68sHJNisQU1NE7oLqrBDAjRVvWAITWa5PB4Aqu5qkD0q3W8rWjfkY+C4WRBlLlLaCLafy/iCXISyS0tResUf2osaTUWl1dvR1LJDamdryVK8Y2mZPOzrcVK9sx4lvU02Tw9I48fN05a5Ztq8q487uxGWRpU2XDTfFxdokOW+7wvQPNq2SllCGapsWcoJLYurEbdsRyRZJ3FaJSr/urwKhRJsjvjMyhWStroPZz+9JfWe/ci2WkslGHZeu0yDAhIg62fkPBSujuaX4NyACTad7XmCTqnPTEMgzmdGiwEpjY3jQwjpv8+2oOHaGmz5co9ZnLHCQhQG8pBnXxJNdssXFCJ8uN02WjvlAhtCcKlThbfd7gkmQ0Oe3kpZb5NU+JvaMWSXuKrXlGHggdE0gvvRcots+8YmZFlKaRKYfUER8r0V6UMSCF5bi53fta/HhdM50eE2qO9pl6CxBCuSNOhMfpYgNdqoGkBfgiA0Vif6Bu3THFm+rARIULZdiddJllaJyn8Q+bMSfEbSsDHSUxmbNtrJUVOzzVfel2OFHFr3/bYmkc93HA2iNBJQhzFkLuqxTH3We1D2IA4cRO/xQhSPUQfSOfbf7MV0RXdL9C/f0B228HXNp+zaTbYt0zKIdkcn25a3qzl8uFuyt6Xb9w5leV7rZ2rRi4HyMgRNlzo83eJu9zeix7BZWhxrZL37i2OHHr3fwdudrmkh63X0lqDKHFuc7nkv73bcITl9nmh5TFpHh/5ihj886zvft0NaUVXO9/FuSwpK9LuH0H3YPHEk2r/LHseAOT/2nA11oytQhooCef94L/bdth17nwig8obtqF5WhIA2iwa7sOtQIbbYbZdJ+jYvkzT/ryC2b74KJbZmDfd3om17Ezoud/bzUncXZv5BBfJlG+HH9qHx1r1yFoGSqgbUrS1DkUnqEPbfsQ0tjwRQ8eGtqF0lhVr3OSTH0tSIvUdSTy1o21rnPDng+bbetND86jwTcfIq3HWD0lKtNOf+4DLvkEjsOXOHv8zzF6QVKvkSI4ZgHM767cBq55zp/toXuNv25bOs8qf3+8jyw9IqnxstR4nyWLzP+QU9ZTWj+sHuB/r5uR32WDTfVmLIpm1M/vYNhycvF249oHVQmfN5t7zrfuKWAd13KYYOF6KsXCr5Oz1Di3Pl+73grB5RUCypo5cNj2A+AoM9sctG0B6kEIbk/La2OukWGZrTnid7nmucfxKw52XQfp9ABWpvqcWqC/Odt+UqtL9lZ8yUm0D5djRdXzKinCXXhm2bnGedbv7z5zOTfn2ocuubhMOZwvOeP88nnAaRyTUpYXl2eepFT56JWzfEJd/5s/VYv7QQedOGMfDEAGZePNsZjg3qvj1D6OZY3NersGX3elTMs0et9dYXtQ616ROnfu1b65argKStpFWkDrLbNBuKiq0v+9F17w7sesjfFBqp8/Y6m19tjltZjEK3c8LQwKgepZpobh6IIUFZgds7qjTgCqJMjrlKXnmHndNP59NHexEHjniORxuVkgbesp1wHQniMksroelrn0YFkD/iM05Pc7yAMkrTegA9ns+FXgijcoHTR1tcEDDX4dbN8sJTvjqfG0D9yhWyh050yr8lUhO0JDreDI2uh1QLt8ngGn3L40h+tPIwBV/nPtj3arTySDL0lWxbIqZrWx4JL1xSkKPDYzVokeSyVUxKgfJ89OjnTMJLZWq3occ+UF4lRUdbLU3oPq4Xa3c9D1OJuF3z8rizFyWbPd3Zs8pQKUek7zVJkFe2JlFHt1Q0Kz1p4V7gdfsaQNvtN0mlXnuTZh6pKGPS2hOMut3xdv16z5BxoLxSKmp9zzv0oZWcZ0igpgf5NmBIeFxxC4nHm+cjvLcBDV/qwsCsElT+WQWwbCPWv7sQ/ffVO9v6xC503bMNNQ9oCXLS11REL/Xj4Le2o17WqbujC8NFy7FqrbNZVTg/jL2faUDToQEEllSiapksLK9HfXUZZh7dh10NDWh5WtaTa23ggw2ovxLo+vs61NTtxP7jQay7bj2K5COaVq1SCcY8IsOncSTLrxskCNKLvUk/m1fd76YF2w5DaWXurtMkgUylOZcjBeV62iLrJBvGD67WedKyLTOE0mrm/Drb9eSzLPOnlr3o95FAqyRaopLlsWSfMzz7Szn0kyDvd97eIgFHpalXqnfq/Ch7QRfR/O2kb1XkuFKVC7ceaBxZ3hOWQRWU2ka/T/QYVNuREAIlWoE7qpfGq5GkDGt+cnsrErIXbA3CzTFo3VQ7iikFRai+pR6rFg5h/y4pHw170HGiGKs23ohVdg1JERTNfRx7bqxH43ckDF2yDnXXaalx0jKjcqM85719sAz1Zo6/811Ci51z6Qaj3jq/Xc5as6eMRPK893PZXpNSXH9UdH/OcUfPe3qKpIGy/tKZCN3XiHqp7w6+NjsSGCcnQcP396ChTvb9iX0IBWwd6opTv2rd0nRYGxTaEEvR0NP68q+CeP5erYvrpb6cjYprPu6cf83v/vPbOsopLB7Lb6pEodvbZvivu9Fh50QKbQB1RjA9kp5eTA0IfflULb+pVurejph6KDO2h9acB2eaQaTsybXM1JmaF3TqkBsHjIHRBaTaoj/q+dLafezOd5D3cLjFkyBtaJeLXMmyBJkn2bakso7p2k5Cu5NDnuGszts7PC2Q5KLDag7tLXEKoLaKU3dL+/c9ogtcWtUt9jt0HupF2PaSjKQtJW2dxF6gdftYXBWpGLQFHJgrF7cNpQh6085welLaPUGzSYvFpZFthiPnpxMHe8O2YMsFT8JT9zid8+b2lMQ7Lg2GU2TK/l9iz4/70f/Tn6FPzmlgTjHwSAgDJ/NQsmYHtl8vAZy27uMZDKN4mVRKd7eg6YYKOTbhybV9D8sFtL8fnYf7JIyVlqJcJ0uXl6BwuBf7d+xFl7y3/452HBwG1paXIC8viFXb5Lw2b5WLcJ5cHAtNg8UZ0vA9kn0nf/725ldtAct58l4849MeF9+5jCMUM5wVXyTfHeiTy1e0rGhr1pVd/rRzuiKBkjPk5EiWx/zveT9nefY3crgoVsK8r9u9RwNrJ8j0Xnij+TvZcXnfc/jrAa/Ex6G8dZRW6DYwlQrcCbycz2iPd3iwL3pOzUVfg53YQDYx7/loQ89R20OSlUqUXpiHgZ+3oaWrH0P9Hdjzw8cxHJCgN1LfhdG7vw3dg0Po/uaDckEEZhc4O8y43CjPedcemWh6hzAUqfP99ZDs6/5uuYBEA/toXvakQbbXpGTl2fKWHf+xpKNySRB5xx7G3m92Y2iwG3t/KGXMvpdcGNNL1uFmaXy17F6HoFRbeWd7xuLj1a8ZqHjvUhROkwD8uibJh02ovVTC5EDA6WTQhrT//KadT1PRIeOBJNd159qTLODUeaS9JaNpkE02Wt85nQ6mDpL6sveotydUG3K2Q8JTx42OU3e79Zw2Qt0OD+2wKh3DBsqoAlKtnMMvpBvuJZd0WyOGARLT7vGxYIb9I70Q2kti3zhNnIpeT7ZkOk+Pgw5hxFQOkunG8jyk6u0ceVzSor1zCJWpekU88vJmyhfZh+2fbkTboT7kX1GNhtu2Y12cU7fupnqsWvwi9v2fetRe254iD+QhT7Yx8xyprF8/hWG7FOFOCbDs82Od2OlNvyxbdyYwSUSHTmXbLVJstdKI38LXYFSHl+1xmJ7hicgZ1klvTpeXfs4+HSPx8r5hgvDTJ+FxJOEN3NpRArjlNdLj6mkoJOUN2sbQKy/aJ65hDEcKkNd0++/ElG1dmLQ8j5Wz5fHaKURS2nv1DUt626d+pZvrUV0+HT13bZE6MPW1yNSvmZIG/F5vnk47P/poWZyVbxr5DqdBG3foWHv3Bnuy24/ljJx6GxmnlzaoYgJmbRB5G5si4TqZpJWXvb6Y87RJrp+L3fpZg1GdJpTuTbFal8R2tJnpBc8l+6y/czBFR2OGRhWQai8KzFC2pUOV7kUoNCTveVsu1agql2j+UPwvm3Rb2k2N9IZIdHgsuDIaHOmQQOSEm56raE9I/KEzh56YSMWWoFvcT3ujgt5hRzmOSjl5PcmGS5LS4QsdTncmLev2A940spy087cStTczGBmmVCYtjqaoAGxaR+9c1PPmjxRjjyvrgGCwG+1f3ontP5Z0nlGI4KWyTArvsFz0AgWmLxQzz5Xg8sRL6H8pD2UfvRzptP27HulDeEYp1mxbj4qiIpR9aCOqlwEdT/UD8ypQfV0ZpEpA0Xs3YutmJ6dkOvSYNL9aZkheAk3/JHfDBP7RQC9ZXhwr2eVP7X0KeqYT6LQN91iT5bFkn7NmeW52SHEsifK+2e5dTmCvQ7re4N87TB49rizLhZX4OPz0uOL0HMj3rC13e4U0TRDTW5uajmZ4pmGMuo7pkPM0jML3SIOvogj5RZXYeOUlyBvqxc/cRpyUleAfrUeZlKXK66tQOmsY/b1OPZ7VkH1a5GLpq/P15hfEDO+OlO01KZ3y7C3H6RyL38PPSi25QL7Th8pQVFSB2j8tjQ7Z9+sNbQEUl1fKe7LO0mhNN3umBJivhzHwzDCK3l+Z1rVIhYZOyP8DmLM0Tkvfw9SXeSVY1bAKOoc0v2w9tm6x3zXjIXtfudd0lCvKQa3ndFvecqc3+yRtPCSPGVzJA6jxFZtvnDoudETLc7T8J14nSVqlSacpFbojDPL5zILzdOsS7zFrEBtbr68oSRXEpm90NzVJpN6iN2ZIJtUJyGYiuETchkbxOlHbnRQrdAJ5wsRKti1JuMZNQexorZfCUG+WJLwBQofHlraa7eiaelNTyBnoNfvo0N8us/sIHU1cGHRIplJapmZ/x0MIRVqlehJrUe/e5HC/Xax0boXeTOJ+B6lidAJ5Jpcbh2bm6GR+M7Fb0+2Af/tuOvjTWucNSQt3axOKZTs65cAwE/FTHY0OCaxAs25rtb7Wm5qkhWfeS3Bc2VhWj6Ybljs3F0ll2//TNuzRC2CgE91rSlHxl01ounAXbv5+F1ZsXI6tzcsx1KU3qDlz15J6aDd2z23Ax1evw5bGdXKgelOT1Plfa0ZbQR3WXtmApj+R9cID6H6g3XxEe7AyOk/J8qtWvJEbh/Rc2C3f04OQnAv3pqaOo+nlxTGTZf5s29qO0kjZk88clmOd676XOI8l+5xxfAD5G9w8m+JYRhy7k/d7ltp5qiYfdku+lYtAqA4H5VV4MB+1sr6pMWKOK5Ny4SvvWxOVQfsiHqno491wKCFOzA0cDicdkl1UtKETNIGgfip5ujm/3Zhge6/p//rRdlsr5n92PVZtaTTzBsPHerDvi7vkm7vCODF9hSlLeaasykXP3qmdcblJ28g638y/TtXzk/U1Kdn1xxFCqRxLq/Mi2bHo+dbfg/U1NHq+3oqOhRtR+cEGNK4dQm9XCOHFtj47dC/2HynB+mUb0Vgh7z2lNxQ5PZ2d93WgakkV1v9LM9Y81Y1+uRalUQui/0c/Q2hFFZZva0ZRu+RRu3wEqS/3FOnNnrVobK4FhofQ/xP7PXXIPsPGTmy51/wefxRqxM0+KqaseM/PBOXLb+aa6E+vJOukm1ZeZg68vSHTbMvmQ+3lD5R7yovy3uwXh87BXxGpC711iY7g2Rv4RPSYR5bLuN85S2P8w/j6JXQuVJbd/THGcls0vniuziTOnejJ/1BCrk2GYxx/0oDcuQIHt/ovck7DUm8Ymvrpk4O6SRqkOyT8S9pIUSb48v/oOaXPycf5B1I0CGlCOW0/jJ/e0JdWENq69z5G3l2bcltamP3bGZOhotMreuNU9JH6ZpiJxhl6iP6oN42HiZFX0htGy9oUKdcTgvlJltj5bDqE6wz7DqP/6MN22dSVyXSMsVK9tDD1PEAaNfMrHvD+ZBRNdqPsIdXgMtqt6wx9ZXeTyNhui4jGirnBzzOPOOUQ9QTAHtL4qr/QiqoLkcFviU42k+g6wh5SOgMlizHPgL9lT0RERES5dtqG7ImIiIiIMsWAlIiIiIhyigEpEREREeUUA1IiIiIiyikGpERERESUUwxIiYiIiCinGJASERERUQ4B/x8o99ma1t95nQAAAABJRU5ErkJggg==;" vertex="1" parent="1">
          <mxGeometry x="389.99999999999994" y="1410" width="503.3" height="233.78" as="geometry" />
        </mxCell>
        <mxCell id="PEiCkukdCwHBLGiY2Sb7-97" style="edgeStyle=orthogonalEdgeStyle;rounded=0;orthogonalLoop=1;jettySize=auto;html=1;shape=flexArrow;strokeColor=#994C00;fillColor=#994C00;" edge="1" parent="1" source="PEiCkukdCwHBLGiY2Sb7-94" target="PEiCkukdCwHBLGiY2Sb7-80">
          <mxGeometry relative="1" as="geometry" />
        </mxCell>
        <mxCell id="PEiCkukdCwHBLGiY2Sb7-94" value="Server Host" style="sketch=0;outlineConnect=0;fontColor=#FF8FC7;gradientColor=none;fillColor=#FF8FC7;strokeColor=#FF8FC7;dashed=0;verticalLabelPosition=bottom;verticalAlign=top;align=center;html=1;fontSize=31;fontStyle=0;aspect=fixed;pointerEvents=1;shape=mxgraph.aws4.traditional_server;" vertex="1" parent="1">
          <mxGeometry x="-110" y="1140" width="93.78" height="162.55" as="geometry" />
        </mxCell>
        <mxCell id="PEiCkukdCwHBLGiY2Sb7-96" value="" style="group" vertex="1" connectable="0" parent="1">
          <mxGeometry x="207.17000000000002" y="1220" width="260" height="90" as="geometry" />
        </mxCell>
        <mxCell id="PEiCkukdCwHBLGiY2Sb7-80" value="" style="shape=image;verticalLabelPosition=bottom;labelBackgroundColor=none;verticalAlign=top;aspect=fixed;imageAspect=0;image=https://cdn.icon-icons.com/icons2/2107/PNG/512/file_type_prometheus_icon_130229.png;fontSize=18;fontStyle=1;fontColor=#FF8000;" vertex="1" parent="PEiCkukdCwHBLGiY2Sb7-96">
          <mxGeometry width="90" height="90" as="geometry" />
        </mxCell>
        <mxCell id="PEiCkukdCwHBLGiY2Sb7-84" value="&lt;font style=&quot;font-size: 22px;&quot;&gt;Node Exporter&lt;/font&gt;" style="text;html=1;align=center;verticalAlign=middle;resizable=0;points=[];autosize=1;fillColor=none;fontSize=19;fontStyle=1;fontColor=#FF8000;" vertex="1" parent="PEiCkukdCwHBLGiY2Sb7-96">
          <mxGeometry x="90" y="25" width="170" height="40" as="geometry" />
        </mxCell>
        <mxCell id="PEiCkukdCwHBLGiY2Sb7-99" style="edgeStyle=orthogonalEdgeStyle;rounded=0;orthogonalLoop=1;jettySize=auto;html=1;entryX=0.25;entryY=1;entryDx=0;entryDy=0;strokeColor=#FF8000;strokeWidth=4;dashed=1;dashPattern=1 1;" edge="1" parent="1" source="PEiCkukdCwHBLGiY2Sb7-84" target="PEiCkukdCwHBLGiY2Sb7-34">
          <mxGeometry relative="1" as="geometry">
            <Array as="points">
              <mxPoint x="540" y="1265" />
              <mxPoint x="540" y="900" />
              <mxPoint x="718" y="900" />
            </Array>
          </mxGeometry>
        </mxCell>
      </root>
    </mxGraphModel>
  </diagram>
</mxfile>
